SplineFontDB: 3.2
FontName: notosanshindi
FullName: notosanshindi
FamilyName: notosanshindi
Weight: Regular
Copyright: Copyright 2022 The Noto Project Authors (https://github.com/notofonts/devanagari)
Version: 2.006
ItalicAngle: 0
UnderlinePosition: -125
UnderlineWidth: 50
Ascent: 800
Descent: 200
InvalidEm: 0
sfntRevision: 0x00020189
LayerCount: 2
Layer: 0 1 "Back" 1
Layer: 1 1 "Fore" 0
XUID: [1021 238 -758118090 6390989]
StyleMap: 0x0040
FSType: 0
OS2Version: 4
OS2_WeightWidthSlopeOnly: 0
OS2_UseTypoMetrics: 1
CreationTime: 1432194851
ModificationTime: 1743458426
PfmFamily: 81
TTFWeight: 400
TTFWidth: 5
LineGap: 0
VLineGap: 0
Panose: 0 0 0 0 0 0 0 0 0 0
OS2TypoAscent: 896
OS2TypoAOffset: 0
OS2TypoDescent: -408
OS2TypoDOffset: 0
OS2TypoLinegap: 0
OS2WinAscent: 1348
OS2WinAOffset: 0
OS2WinDescent: 558
OS2WinDOffset: 0
HheadAscent: 896
HheadAOffset: 0
HheadDescent: -408
HheadDOffset: 0
OS2SubXSize: 650
OS2SubYSize: 600
OS2SubXOff: 0
OS2SubYOff: 75
OS2SupXSize: 650
OS2SupYSize: 600
OS2SupXOff: 0
OS2SupYOff: 350
OS2StrikeYSize: 50
OS2StrikeYPos: 322
OS2CapHeight: 622
OS2XHeight: 536
OS2Vendor: 'GOOG'
OS2CodePages: 00000013.00000000
OS2UnicodeRanges: 80008023.00002046.00000000.00000000
Lookup: 1 0 0 "'aalt' Access All Alternates lookup 0" { "'aalt' Access All Alternates lookup 0 subtable"  } ['aalt' ('DFLT' <'dflt' > 'cyrl' <'dflt' > 'dev2' <'MAR ' 'NEP ' 'SAN ' 'SAT ' 'dflt' > 'deva' <'MAR ' 'NEP ' 'SAN ' 'dflt' > 'grek' <'dflt' > 'latn' <'APPH' 'CAT ' 'IPPH' 'MAH ' 'MOL ' 'NAV ' 'ROM ' 'dflt' > ) ]
Lookup: 4 0 0 "Ligature Substitution lookup 1" { "Ligature Substitution lookup 1 subtable"  } []
Lookup: 1 0 0 "Single Substitution lookup 2" { "Single Substitution lookup 2 subtable"  } []
Lookup: 1 0 0 "Single Substitution lookup 3" { "Single Substitution lookup 3 subtable"  } []
Lookup: 1 0 0 "Single Substitution lookup 4" { "Single Substitution lookup 4 subtable"  } []
Lookup: 1 0 0 "Single Substitution lookup 5" { "Single Substitution lookup 5 subtable"  } []

StartChar: .notdef
Encoding: 1114112 -1 0
Width: 600
Flags: W
LayerCount: 2
Fore
SplineSet
94 714 m 1,0,-1
 505 714 l 1,1,-1
 505 0 l 1,2,-1
 94 0 l 1,3,-1
 94 714 l 1,0,-1
454 51 m 1,4,-1
 454 663 l 1,5,-1
 145 663 l 1,6,-1
 145 51 l 1,7,-1
 454 51 l 1,4,-1
EndSplineSet
EndChar

StartChar: uni0905
Encoding: 2309 2309 5
Width: 764
GlyphClass: 2
Flags: W
AnchorPoint: "Anchor-10" 282 -40 basechar 0
AnchorPoint: "Anchor-9" 594 -40 basechar 0
AnchorPoint: "Anchor-3" 594 622 basechar 0
AnchorPoint: "Anchor-2" 639 -150 basechar 0
AnchorPoint: "Anchor-0" 634 622 basechar 0
LayerCount: 2
Fore
SplineSet
675 551 m 1,0,-1
 675 0 l 1,1,-1
 594 0 l 1,2,-1
 594 551 l 1,3,-1
 521 551 l 1,4,-1
 521 622 l 1,5,-1
 779 622 l 1,6,-1
 779 551 l 1,7,-1
 675 551 l 1,0,-1
299 632 m 0,8,9
 356 632 356 632 391.5 612 c 128,-1,10
 427 592 427 592 443 559.5 c 128,-1,11
 459 527 459 527 459 488 c 0,12,13
 459 418 459 418 407.5 374 c 128,-1,14
 356 330 356 330 237 320 c 1,15,-1
 221 391 l 1,16,17
 284 399 284 399 318 411.5 c 128,-1,18
 352 424 352 424 365.5 443 c 128,-1,19
 379 462 379 462 379 489 c 0,20,21
 379 522 379 522 358 541.5 c 128,-1,22
 337 561 337 561 296 561 c 0,23,24
 262 561 262 561 229.5 551 c 128,-1,25
 197 541 197 541 165 521 c 1,26,-1
 139 591 l 1,27,28
 174 611 174 611 213.5 621.5 c 128,-1,29
 253 632 253 632 299 632 c 0,8,9
475 216 m 0,30,31
 475 143 475 143 427 102.5 c 128,-1,32
 379 62 379 62 305 62 c 0,33,34
 245 62 245 62 197.5 88.5 c 128,-1,35
 150 115 150 115 109 176.5 c 128,-1,36
 68 238 68 238 29 344 c 1,37,-1
 100 373 l 1,38,39
 141 256 141 256 187 195.5 c 128,-1,40
 233 135 233 135 298 135 c 0,41,42
 342 135 342 135 369 158.5 c 128,-1,43
 396 182 396 182 396 225 c 0,44,45
 396 269 396 269 364 301.5 c 128,-1,46
 332 334 332 334 293 356 c 1,47,-1
 337 369 l 1,48,-1
 380 378 l 1,49,50
 394 367 394 367 411 351 c 128,-1,51
 428 335 428 335 438 320 c 2,52,-1
 448 301 l 2,53,54
 461 282 461 282 468 260.5 c 128,-1,55
 475 239 475 239 475 216 c 0,30,31
495 352 m 0,56,57
 530 352 530 352 569.5 359 c 128,-1,58
 609 366 609 366 651 384 c 1,59,-1
 651 309 l 1,60,61
 617 293 617 293 582 287 c 128,-1,62
 547 281 547 281 511 281 c 0,63,64
 486 281 486 281 456.5 285.5 c 128,-1,65
 427 290 427 290 399 298 c 1,66,-1
 379 352 l 1,67,-1
 385 367 l 1,68,69
 411 359 411 359 440 355.5 c 128,-1,70
 469 352 469 352 495 352 c 0,56,57
EndSplineSet
EndChar

StartChar: uni0907
Encoding: 2311 2311 7
Width: 491
GlyphClass: 2
Flags: W
AnchorPoint: "Anchor-10" 94 -110 basechar 0
AnchorPoint: "Anchor-9" 343 -180 basechar 0
AnchorPoint: "Anchor-3" 323 622 basechar 0
AnchorPoint: "Anchor-0" 363 622 basechar 0
LayerCount: 2
Fore
SplineSet
271 222 m 0,0,1
 242 222 242 222 212.5 215.5 c 128,-1,2
 183 209 183 209 158 199 c 1,3,4
 130 217 130 217 105 240 c 128,-1,5
 80 263 80 263 65 291.5 c 128,-1,6
 50 320 50 320 50 352 c 0,7,8
 50 408 50 408 86.5 436.5 c 128,-1,9
 123 465 123 465 199 465 c 2,10,-1
 323 465 l 1,11,-1
 323 551 l 1,12,-1
 0 551 l 1,13,-1
 0 622 l 1,14,-1
 505 622 l 1,15,-1
 505 551 l 1,16,-1
 404 551 l 1,17,-1
 404 394 l 1,18,-1
 206 394 l 2,19,20
 166 394 166 394 148 381 c 128,-1,21
 130 368 130 368 130 344 c 0,22,23
 130 324 130 324 142.5 307 c 128,-1,24
 155 290 155 290 173 276 c 1,25,26
 198 285 198 285 225 289.5 c 128,-1,27
 252 294 252 294 283 294 c 0,28,29
 337 294 337 294 373.5 276.5 c 128,-1,30
 410 259 410 259 428.5 227.5 c 128,-1,31
 447 196 447 196 447 154 c 0,32,33
 447 75 447 75 387 37.5 c 128,-1,34
 327 0 327 0 226 0 c 0,35,36
 218 0 218 0 210.5 0 c 128,-1,37
 203 0 203 0 195.5 0.5 c 128,-1,38
 188 1 188 1 181 1 c 0,39,40
 119 4 119 4 80.5 24 c 128,-1,41
 42 44 42 44 42 82 c 0,42,43
 42 105 42 105 56.5 118.5 c 128,-1,44
 71 132 71 132 96 132 c 0,45,46
 125 132 125 132 148 111 c 128,-1,47
 171 90 171 90 199 41 c 1,48,49
 233 3 233 3 271.5 -34.5 c 128,-1,50
 310 -72 310 -72 352 -109 c 1,51,-1
 282 -161 l 1,52,53
 239 -114 239 -114 201 -66 c 128,-1,54
 163 -18 163 -18 131 31 c 2,55,-1
 105 74 l 1,56,57
 130 71 130 71 163 69.5 c 128,-1,58
 196 68 196 68 215 68 c 0,59,60
 258 68 258 68 292 75.5 c 128,-1,61
 326 83 326 83 346 101.5 c 128,-1,62
 366 120 366 120 366 154 c 0,63,64
 366 186 366 186 344 204 c 128,-1,65
 322 222 322 222 271 222 c 0,0,1
EndSplineSet
EndChar

StartChar: uni0909
Encoding: 2313 2313 9
Width: 548
GlyphClass: 2
Flags: W
AnchorPoint: "Anchor-10" 282 -116 basechar 0
AnchorPoint: "Anchor-9" 366 -40 basechar 0
AnchorPoint: "Anchor-3" 303 622 basechar 0
AnchorPoint: "Anchor-0" 353 622 basechar 0
LayerCount: 2
Fore
SplineSet
0 622 m 1,0,-1
 563 622 l 1,1,-1
 563 551 l 1,2,-1
 0 551 l 1,3,-1
 0 622 l 1,0,-1
418 563 m 1,4,5
 444 542 444 542 457.5 514 c 128,-1,6
 471 486 471 486 471 452 c 0,7,8
 471 405 471 405 445 368.5 c 128,-1,9
 419 332 419 332 367.5 310 c 128,-1,10
 316 288 316 288 238 283 c 1,11,-1
 222 356 l 1,12,13
 311 364 311 364 350.5 386 c 128,-1,14
 390 408 390 408 390 458 c 0,15,16
 390 494 390 494 368.5 522 c 128,-1,17
 347 550 347 550 312 563 c 1,18,-1
 418 563 l 1,4,5
400 346 m 1,19,20
 453 304 453 304 476 261 c 128,-1,21
 499 218 499 218 499 168 c 0,22,23
 499 89 499 89 448.5 44.5 c 128,-1,24
 398 0 398 0 318 0 c 0,25,26
 268 0 268 0 227 16 c 128,-1,27
 186 32 186 32 151.5 68 c 128,-1,28
 117 104 117 104 87 163 c 128,-1,29
 57 222 57 222 29 308 c 1,30,-1
 102 338 l 1,31,32
 133 241 133 241 163 183 c 128,-1,33
 193 125 193 125 228 99.5 c 128,-1,34
 263 74 263 74 308 74 c 0,35,36
 355 74 355 74 384.5 99 c 128,-1,37
 414 124 414 124 414 173 c 0,38,39
 414 221 414 221 389.5 256 c 128,-1,40
 365 291 365 291 317 319 c 1,41,-1
 400 346 l 1,19,20
EndSplineSet
EndChar

StartChar: uni090A
Encoding: 2314 2314 10
Width: 785
GlyphClass: 2
Flags: W
AnchorPoint: "Anchor-10" 282 -116 basechar 0
AnchorPoint: "Anchor-9" 366 -40 basechar 0
AnchorPoint: "Anchor-3" 313 622 basechar 0
AnchorPoint: "Anchor-0" 379 622 basechar 0
LayerCount: 2
Fore
SplineSet
300 622 m 1,0,-1
 800 622 l 1,1,-1
 800 551 l 1,2,-1
 300 551 l 1,3,-1
 300 622 l 1,0,-1
444 274 m 1,4,5
 471 305 471 305 507 322 c 128,-1,6
 543 339 543 339 590 339 c 0,7,8
 664 339 664 339 706.5 296.5 c 128,-1,9
 749 254 749 254 749 181 c 0,10,11
 749 129 749 129 725.5 82.5 c 128,-1,12
 702 36 702 36 645 -10 c 1,13,-1
 583 43 l 1,14,15
 624 74 624 74 646 107.5 c 128,-1,16
 668 141 668 141 668 181 c 0,17,18
 668 227 668 227 645 248.5 c 128,-1,19
 622 270 622 270 585 270 c 0,20,21
 554 270 554 270 527.5 255.5 c 128,-1,22
 501 241 501 241 483 217 c 1,23,-1
 444 274 l 1,4,5
0 622 m 1,24,-1
 563 622 l 1,25,-1
 563 551 l 1,26,-1
 0 551 l 1,27,-1
 0 622 l 1,24,-1
418 563 m 1,28,29
 444 542 444 542 457.5 514 c 128,-1,30
 471 486 471 486 471 452 c 0,31,32
 471 405 471 405 445 368.5 c 128,-1,33
 419 332 419 332 367.5 310 c 128,-1,34
 316 288 316 288 238 283 c 1,35,-1
 222 356 l 1,36,37
 311 364 311 364 350.5 386 c 128,-1,38
 390 408 390 408 390 458 c 0,39,40
 390 494 390 494 368.5 522 c 128,-1,41
 347 550 347 550 312 563 c 1,42,-1
 418 563 l 1,28,29
400 346 m 1,43,44
 453 304 453 304 476 261 c 128,-1,45
 499 218 499 218 499 168 c 0,46,47
 499 89 499 89 448.5 44.5 c 128,-1,48
 398 0 398 0 318 0 c 0,49,50
 268 0 268 0 227 16 c 128,-1,51
 186 32 186 32 151.5 68 c 128,-1,52
 117 104 117 104 87 163 c 128,-1,53
 57 222 57 222 29 308 c 1,54,-1
 102 338 l 1,55,56
 133 241 133 241 163 183 c 128,-1,57
 193 125 193 125 228 99.5 c 128,-1,58
 263 74 263 74 308 74 c 0,59,60
 355 74 355 74 384.5 99 c 128,-1,61
 414 124 414 124 414 173 c 0,62,63
 414 221 414 221 389.5 256 c 128,-1,64
 365 291 365 291 317 319 c 1,65,-1
 400 346 l 1,43,44
EndSplineSet
EndChar

StartChar: uni090B
Encoding: 2315 2315 11
Width: 853
GlyphClass: 2
Flags: W
AnchorPoint: "Anchor-10" 237 -68 basechar 0
AnchorPoint: "Anchor-9" 514 -40 basechar 0
AnchorPoint: "Anchor-3" 381 622 basechar 0
AnchorPoint: "Anchor-0" 421 622 basechar 0
LayerCount: 2
Fore
SplineSet
382 0 m 1,0,-1
 382 551 l 1,1,-1
 0 551 l 1,2,-1
 0 622 l 1,3,-1
 867 622 l 1,4,-1
 867 551 l 1,5,-1
 462 551 l 1,6,-1
 462 0 l 1,7,-1
 382 0 l 1,0,-1
101 69 m 1,8,-1
 58 141 l 1,9,-1
 370 295 l 1,10,-1
 408 237 l 1,11,-1
 101 69 l 1,8,-1
343 245 m 1,12,13
 318 283 318 283 298 309 c 128,-1,14
 278 335 278 335 260 350.5 c 128,-1,15
 242 366 242 366 223 373 c 128,-1,16
 204 380 204 380 181 380 c 0,17,18
 154 380 154 380 123 371 c 128,-1,19
 92 362 92 362 55 343 c 1,20,-1
 27 418 l 1,21,22
 62 435 62 435 100 445.5 c 128,-1,23
 138 456 138 456 179 456 c 0,24,25
 223 456 223 456 257.5 440.5 c 128,-1,26
 292 425 292 425 327 387.5 c 128,-1,27
 362 350 362 350 405 285 c 1,28,-1
 397 261 l 1,29,-1
 343 245 l 1,12,13
708 -36 m 0,30,31
 635 -36 635 -36 591 0 c 128,-1,32
 547 36 547 36 547 101 c 0,33,34
 547 160 547 160 587.5 192 c 128,-1,35
 628 224 628 224 710 238 c 1,36,-1
 754 178 l 1,37,38
 686 171 686 171 653.5 151.5 c 128,-1,39
 621 132 621 132 621 96 c 0,40,41
 621 65 621 65 644.5 50 c 128,-1,42
 668 35 668 35 705 35 c 0,43,44
 734 35 734 35 759 43 c 128,-1,45
 784 51 784 51 813 67 c 1,46,-1
 840 1 l 1,47,48
 815 -16 815 -16 780.5 -26 c 128,-1,49
 746 -36 746 -36 708 -36 c 0,30,31
445 242 m 1,50,-1
 442 313 l 1,51,52
 492 316 492 316 538 327 c 128,-1,53
 584 338 584 338 618 363 c 1,54,-1
 604 337 l 1,55,56
 592 351 592 351 586 366.5 c 128,-1,57
 580 382 580 382 580 399 c 0,58,59
 580 429 580 429 600.5 445.5 c 128,-1,60
 621 462 621 462 652 462 c 0,61,62
 692 462 692 462 711.5 438 c 128,-1,63
 731 414 731 414 731 384 c 0,64,65
 731 360 731 360 719 342 c 128,-1,66
 707 324 707 324 681 307 c 1,67,-1
 665 304 l 1,68,69
 639 288 639 288 603 274 c 128,-1,70
 567 260 567 260 526 251.5 c 128,-1,71
 485 243 485 243 445 242 c 1,50,-1
706 178 m 1,72,73
 695 191 695 191 678.5 215 c 128,-1,74
 662 239 662 239 646.5 266 c 128,-1,75
 631 293 631 293 622 314 c 1,76,-1
 686 340 l 1,77,78
 701 305 701 305 725 269.5 c 128,-1,79
 749 234 749 234 765 211 c 1,80,-1
 754 178 l 1,81,-1
 706 178 l 1,72,73
EndSplineSet
EndChar

StartChar: uni0960
Encoding: 2400 2400 12
Width: 853
GlyphClass: 2
Flags: W
AnchorPoint: "Anchor-10" 237 -68 basechar 0
AnchorPoint: "Anchor-9" 514 -120 basechar 0
AnchorPoint: "Anchor-3" 381 622 basechar 0
AnchorPoint: "Anchor-0" 421 622 basechar 0
LayerCount: 2
Fore
SplineSet
382 0 m 1,0,-1
 382 551 l 1,1,-1
 0 551 l 1,2,-1
 0 622 l 1,3,-1
 867 622 l 1,4,-1
 867 551 l 1,5,-1
 462 551 l 1,6,-1
 462 0 l 1,7,-1
 382 0 l 1,0,-1
101 69 m 1,8,-1
 58 141 l 1,9,-1
 370 295 l 1,10,-1
 408 237 l 1,11,-1
 101 69 l 1,8,-1
343 245 m 1,12,13
 318 283 318 283 298 309 c 128,-1,14
 278 335 278 335 260 350.5 c 128,-1,15
 242 366 242 366 223 373 c 128,-1,16
 204 380 204 380 181 380 c 0,17,18
 154 380 154 380 123 371 c 128,-1,19
 92 362 92 362 55 343 c 1,20,-1
 27 418 l 1,21,22
 62 435 62 435 100 445.5 c 128,-1,23
 138 456 138 456 179 456 c 0,24,25
 223 456 223 456 257.5 440.5 c 128,-1,26
 292 425 292 425 327 387.5 c 128,-1,27
 362 350 362 350 405 285 c 1,28,-1
 397 261 l 1,29,-1
 343 245 l 1,12,13
445 242 m 1,30,-1
 442 313 l 1,31,32
 492 316 492 316 538 327 c 128,-1,33
 584 338 584 338 618 363 c 1,34,-1
 604 337 l 1,35,36
 592 351 592 351 586 366.5 c 128,-1,37
 580 382 580 382 580 399 c 0,38,39
 580 430 580 430 600.5 446 c 128,-1,40
 621 462 621 462 651 462 c 0,41,42
 690 462 690 462 710.5 438.5 c 128,-1,43
 731 415 731 415 731 384 c 0,44,45
 731 360 731 360 719 342 c 128,-1,46
 707 324 707 324 681 307 c 1,47,-1
 665 304 l 1,48,49
 639 288 639 288 603 274 c 128,-1,50
 567 260 567 260 526 251.5 c 128,-1,51
 485 243 485 243 445 242 c 1,30,-1
702 181 m 1,52,53
 693 193 693 193 677.5 216 c 128,-1,54
 662 239 662 239 646.5 266 c 128,-1,55
 631 293 631 293 622 314 c 1,56,-1
 686 340 l 1,57,58
 701 305 701 305 725 269.5 c 128,-1,59
 749 234 749 234 765 211 c 1,60,-1
 754 178 l 1,61,-1
 702 181 l 1,52,53
834 43 m 1,62,63
 807 25 807 25 774 15.5 c 128,-1,64
 741 6 741 6 704 6 c 0,65,66
 634 6 634 6 595.5 38 c 128,-1,67
 557 70 557 70 557 122 c 0,68,69
 557 176 557 176 598 205.5 c 128,-1,70
 639 235 639 235 720 238 c 1,71,-1
 754 178 l 1,72,73
 686 176 686 176 658.5 161.5 c 128,-1,74
 631 147 631 147 631 121 c 0,75,76
 631 99 631 99 649 87 c 128,-1,77
 667 75 667 75 699 75 c 0,78,79
 728 75 728 75 754 83 c 128,-1,80
 780 91 780 91 808 107 c 1,81,-1
 834 43 l 1,62,63
682 19 m 1,82,83
 660 17 660 17 650.5 2.5 c 128,-1,84
 641 -12 641 -12 641 -28 c 0,85,86
 641 -53 641 -53 661.5 -65 c 128,-1,87
 682 -77 682 -77 716 -77 c 0,88,89
 745 -77 745 -77 770.5 -68.5 c 128,-1,90
 796 -60 796 -60 826 -43 c 1,91,-1
 854 -108 l 1,92,93
 826 -127 826 -127 792.5 -137.5 c 128,-1,94
 759 -148 759 -148 721 -148 c 0,95,96
 649 -148 649 -148 608 -115.5 c 128,-1,97
 567 -83 567 -83 567 -30 c 0,98,99
 567 1 567 1 583 23.5 c 128,-1,100
 599 46 599 46 631 56 c 1,101,-1
 682 19 l 1,82,83
EndSplineSet
EndChar

StartChar: uni090C
Encoding: 2316 2316 13
Width: 699
GlyphClass: 2
Flags: W
AnchorPoint: "Anchor-10" 198 -119 basechar 0
AnchorPoint: "Anchor-9" 451 -130 basechar 0
AnchorPoint: "Anchor-3" 470 622 basechar 0
AnchorPoint: "Anchor-0" 510 622 basechar 0
LayerCount: 2
Fore
SplineSet
550 378 m 1,0,-1
 470 413 l 1,1,-1
 470 551 l 1,2,-1
 0 551 l 1,3,-1
 0 622 l 1,4,-1
 714 622 l 1,5,-1
 714 551 l 1,6,-1
 550 551 l 1,7,-1
 550 378 l 1,0,-1
255 -14 m 1,8,9
 157 44 157 44 101 110.5 c 128,-1,10
 45 177 45 177 45 262 c 0,11,12
 45 345 45 345 94 387.5 c 128,-1,13
 143 430 143 430 219 430 c 0,14,15
 269 430 269 430 306 411.5 c 128,-1,16
 343 393 343 393 370 363 c 1,17,-1
 332 304 l 1,18,19
 315 328 315 328 289 343 c 128,-1,20
 263 358 263 358 227 358 c 0,21,22
 180 358 180 358 153 329.5 c 128,-1,23
 126 301 126 301 126 254 c 0,24,25
 126 197 126 197 168 149 c 128,-1,26
 210 101 210 101 302 48 c 1,27,-1
 255 -14 l 1,8,9
582 -111 m 0,28,29
 507 -111 507 -111 464.5 -72 c 128,-1,30
 422 -33 422 -33 422 30 c 0,31,32
 422 67 422 67 440.5 97.5 c 128,-1,33
 459 128 459 128 498 149.5 c 128,-1,34
 537 171 537 171 600 180 c 1,35,-1
 616 114 l 1,36,37
 552 104 552 104 524 82 c 128,-1,38
 496 60 496 60 496 24 c 0,39,40
 496 -10 496 -10 521 -25.5 c 128,-1,41
 546 -41 546 -41 577 -41 c 0,42,43
 609 -41 609 -41 633.5 -33 c 128,-1,44
 658 -25 658 -25 689 -9 c 1,45,-1
 715 -75 l 1,46,47
 690 -91 690 -91 656.5 -101 c 128,-1,48
 623 -111 623 -111 582 -111 c 0,28,29
616 114 m 1,49,-1
 544 149 l 1,50,51
 560 174 560 174 567.5 200 c 128,-1,52
 575 226 575 226 575 254 c 0,53,54
 575 305 575 305 552 331.5 c 128,-1,55
 529 358 529 358 488 358 c 0,56,57
 457 358 457 358 434 341.5 c 128,-1,58
 411 325 411 325 395.5 288.5 c 128,-1,59
 380 252 380 252 371 190 c 1,60,-1
 293 212 l 1,61,62
 301 283 301 283 324.5 331 c 128,-1,63
 348 379 348 379 388.5 403.5 c 128,-1,64
 429 428 429 428 486 428 c 0,65,66
 567 428 567 428 611.5 381.5 c 128,-1,67
 656 335 656 335 656 255 c 0,68,69
 656 218 656 218 646 182 c 128,-1,70
 636 146 636 146 616 114 c 1,49,-1
EndSplineSet
EndChar

StartChar: uni0961
Encoding: 2401 2401 14
Width: 699
GlyphClass: 2
Flags: W
AnchorPoint: "Anchor-10" 198 -119 basechar 0
AnchorPoint: "Anchor-9" 451 -190 basechar 0
AnchorPoint: "Anchor-3" 470 622 basechar 0
AnchorPoint: "Anchor-0" 510 622 basechar 0
LayerCount: 2
Fore
SplineSet
550 378 m 1,0,-1
 470 413 l 1,1,-1
 470 551 l 1,2,-1
 0 551 l 1,3,-1
 0 622 l 1,4,-1
 714 622 l 1,5,-1
 714 551 l 1,6,-1
 550 551 l 1,7,-1
 550 378 l 1,0,-1
255 -14 m 1,8,9
 157 44 157 44 101 110.5 c 128,-1,10
 45 177 45 177 45 262 c 0,11,12
 45 345 45 345 94 387.5 c 128,-1,13
 143 430 143 430 219 430 c 0,14,15
 269 430 269 430 306 411.5 c 128,-1,16
 343 393 343 393 370 363 c 1,17,-1
 332 304 l 1,18,19
 315 328 315 328 289 343 c 128,-1,20
 263 358 263 358 227 358 c 0,21,22
 180 358 180 358 153 329.5 c 128,-1,23
 126 301 126 301 126 254 c 0,24,25
 126 197 126 197 168 149 c 128,-1,26
 210 101 210 101 302 48 c 1,27,-1
 255 -14 l 1,8,9
609 -198 m 0,28,29
 556 -198 556 -198 520.5 -181 c 128,-1,30
 485 -164 485 -164 467 -136 c 128,-1,31
 449 -108 449 -108 449 -74 c 0,32,33
 449 -45 449 -45 461 -22.5 c 128,-1,34
 473 0 473 0 494 16 c 1,35,-1
 559 -16 l 1,36,37
 537 -32 537 -32 530 -45 c 128,-1,38
 523 -58 523 -58 523 -75 c 0,39,40
 523 -103 523 -103 545 -115.5 c 128,-1,41
 567 -128 567 -128 604 -128 c 0,42,43
 636 -128 636 -128 659.5 -122.5 c 128,-1,44
 683 -117 683 -117 717 -101 c 1,45,-1
 742 -164 l 1,46,47
 716 -178 716 -178 683 -188 c 128,-1,48
 650 -198 650 -198 609 -198 c 0,28,29
584 -43 m 0,49,50
 534 -43 534 -43 498.5 -25.5 c 128,-1,51
 463 -8 463 -8 444 20.5 c 128,-1,52
 425 49 425 49 425 82 c 0,53,54
 425 121 425 121 443.5 149 c 128,-1,55
 462 177 462 177 501 193.5 c 128,-1,56
 540 210 540 210 602 215 c 1,57,-1
 635 152 l 1,58,59
 579 150 579 150 549.5 139 c 128,-1,60
 520 128 520 128 509.5 112.5 c 128,-1,61
 499 97 499 97 499 80 c 0,62,63
 499 52 499 52 521 39 c 128,-1,64
 543 26 543 26 580 26 c 0,65,66
 612 26 612 26 635.5 32.5 c 128,-1,67
 659 39 659 39 693 55 c 1,68,-1
 718 -8 l 1,69,70
 693 -24 693 -24 659 -33.5 c 128,-1,71
 625 -43 625 -43 584 -43 c 0,49,50
635 152 m 1,72,-1
 560 179 l 1,73,74
 568 197 568 197 571.5 215.5 c 128,-1,75
 575 234 575 234 575 254 c 0,76,77
 575 305 575 305 552 331.5 c 128,-1,78
 529 358 529 358 488 358 c 0,79,80
 457 358 457 358 434 341.5 c 128,-1,81
 411 325 411 325 395.5 288.5 c 128,-1,82
 380 252 380 252 371 190 c 1,83,-1
 293 212 l 1,84,85
 301 283 301 283 324.5 331 c 128,-1,86
 348 379 348 379 388.5 403.5 c 128,-1,87
 429 428 429 428 486 428 c 0,88,89
 567 428 567 428 611.5 381.5 c 128,-1,90
 656 335 656 335 656 255 c 0,91,92
 656 231 656 231 650.5 204 c 128,-1,93
 645 177 645 177 635 152 c 1,72,-1
EndSplineSet
EndChar

StartChar: uni090F
Encoding: 2319 2319 15
Width: 553
GlyphClass: 2
Flags: W
AnchorPoint: "Anchor-10" 141 -39 basechar 0
AnchorPoint: "Anchor-9" 385 -110 basechar 0
AnchorPoint: "Anchor-3" 395 622 basechar 0
AnchorPoint: "Anchor-0" 291 622 basechar 0
LayerCount: 2
Fore
SplineSet
568 551 m 1,0,-1
 474 551 l 1,1,-1
 474 390 l 2,2,3
 474 337 474 337 460.5 302.5 c 128,-1,4
 447 268 447 268 418.5 247.5 c 128,-1,5
 390 227 390 227 345 214 c 1,6,-1
 307 283 l 1,7,8
 341 293 341 293 359.5 306.5 c 128,-1,9
 378 320 378 320 385.5 343 c 128,-1,10
 393 366 393 366 393 402 c 2,11,-1
 393 551 l 1,12,-1
 160 551 l 1,13,-1
 160 349 l 2,14,15
 160 312 160 312 164 288 c 128,-1,16
 168 264 168 264 179 247.5 c 128,-1,17
 190 231 190 231 211.5 216 c 128,-1,18
 233 201 233 201 269 183 c 2,19,-1
 347 143 l 2,20,21
 398 117 398 117 426 95.5 c 128,-1,22
 454 74 454 74 465 52 c 128,-1,23
 476 30 476 30 476 2 c 0,24,25
 476 -23 476 -23 467 -47.5 c 128,-1,26
 458 -72 458 -72 441 -94 c 1,27,-1
 363 -61 l 1,28,29
 377 -46 377 -46 384 -30.5 c 128,-1,30
 391 -15 391 -15 391 1 c 256,31,32
 391 17 391 17 384.5 28.5 c 128,-1,33
 378 40 378 40 359.5 52.5 c 128,-1,34
 341 65 341 65 305 83 c 2,35,-1
 220 127 l 2,36,37
 162 157 162 157 131.5 183 c 128,-1,38
 101 209 101 209 90 243.5 c 128,-1,39
 79 278 79 278 79 334 c 2,40,-1
 79 551 l 1,41,-1
 0 551 l 1,42,-1
 0 622 l 1,43,-1
 568 622 l 1,44,-1
 568 551 l 1,0,-1
EndSplineSet
EndChar

StartChar: uni093E
Encoding: 2366 2366 31
Width: 259
GlyphClass: 2
Flags: W
AnchorPoint: "Anchor-10" 129 -150 basechar 0
AnchorPoint: "Anchor-9" 89 -40 basechar 0
AnchorPoint: "Anchor-8" 89 0 basechar 0
AnchorPoint: "Anchor-1" 89 -20 basechar 0
LayerCount: 2
Fore
SplineSet
170 551 m 1,0,-1
 170 0 l 1,1,-1
 89 0 l 1,2,-1
 89 551 l 1,3,-1
 0 551 l 1,4,-1
 0 622 l 1,5,-1
 273 622 l 1,6,-1
 273 551 l 1,7,-1
 170 551 l 1,0,-1
EndSplineSet
EndChar

StartChar: uni0940
Encoding: 2368 2368 33
Width: 259
GlyphClass: 2
Flags: W
AnchorPoint: "Anchor-10" 129 -150 basechar 0
AnchorPoint: "Anchor-9" 89 -40 basechar 0
AnchorPoint: "Anchor-8" 89 0 basechar 0
AnchorPoint: "Anchor-4" 228 622 basechar 0
AnchorPoint: "Anchor-1" 89 -20 basechar 0
LayerCount: 2
Fore
SplineSet
-185 615 m 1,0,1
 -202 650 -202 650 -211 685 c 128,-1,2
 -220 720 -220 720 -220 751 c 0,3,4
 -220 815 -220 815 -180.5 855.5 c 128,-1,5
 -141 896 -141 896 -70 896 c 0,6,7
 -2 896 -2 896 42.5 864 c 128,-1,8
 87 832 87 832 115.5 769.5 c 128,-1,9
 144 707 144 707 164 615 c 1,10,-1
 89 615 l 1,11,12
 67 722 67 722 31 773.5 c 128,-1,13
 -5 825 -5 825 -57 825 c 0,14,15
 -100 825 -100 825 -119.5 801 c 128,-1,16
 -139 777 -139 777 -139 736 c 0,17,18
 -139 707 -139 707 -129.5 677 c 128,-1,19
 -120 647 -120 647 -105 615 c 1,20,-1
 -185 615 l 1,0,1
170 551 m 1,21,-1
 170 0 l 1,22,-1
 89 0 l 1,23,-1
 89 551 l 1,24,-1
 0 551 l 1,25,-1
 0 622 l 1,26,-1
 273 622 l 1,27,-1
 273 551 l 1,28,-1
 170 551 l 1,21,-1
EndSplineSet
Substitution2: "Single Substitution lookup 216 subtable" uni0940.03
Substitution2: "Single Substitution lookup 215 subtable" uni0940.02
Substitution2: "Single Substitution lookup 214 subtable" uni0940.01
EndChar

StartChar: uni0941
Encoding: 2369 2369 34
Width: 0
GlyphClass: 4
Flags: W
AnchorPoint: "Anchor-20" -170 0 mark 0
AnchorPoint: "Anchor-12" -170 0 mark 0
AnchorPoint: "Anchor-11" -170 0 mark 0
AnchorPoint: "Anchor-8" -170 0 mark 0
AnchorPoint: "Anchor-6" -183 27 basemark 0
LayerCount: 2
Fore
SplineSet
-162 -268 m 0,0,1
 -220 -268 -220 -268 -270.5 -249.5 c 128,-1,2
 -321 -231 -321 -231 -366.5 -195.5 c 128,-1,3
 -412 -160 -412 -160 -456 -110 c 1,4,-1
 -397 -57 l 1,5,6
 -357 -105 -357 -105 -320.5 -136 c 128,-1,7
 -284 -167 -284 -167 -246 -181.5 c 128,-1,8
 -208 -196 -208 -196 -165 -196 c 0,9,10
 -112 -196 -112 -196 -85.5 -176.5 c 128,-1,11
 -59 -157 -59 -157 -59 -122 c 0,12,13
 -59 -93 -59 -93 -76 -75 c 128,-1,14
 -93 -57 -93 -57 -128 -57 c 0,15,16
 -156 -57 -156 -57 -181 -69 c 128,-1,17
 -206 -81 -206 -81 -229 -103 c 1,18,-1
 -274 -48 l 1,19,20
 -245 -19 -245 -19 -210 -4 c 128,-1,21
 -175 11 -175 11 -127 11 c 0,22,23
 -58 11 -58 11 -21 -28.5 c 128,-1,24
 16 -68 16 -68 16 -129 c 0,25,26
 16 -194 16 -194 -30 -231 c 128,-1,27
 -76 -268 -76 -268 -162 -268 c 0,0,1
EndSplineSet
Substitution2: "Single Substitution lookup 195 subtable" uMatra_Narrowdeva
Substitution2: "Single Substitution lookup 84 subtable" uni093C
MultipleSubs2: "Multiple Substitution lookup 79 subtable" uni093C.alt uni0941.alt
Substitution2: "Single Substitution lookup 78 subtable" uni0941.alt
Substitution2: "Single Substitution lookup 77 subtable" uni093C0941
EndChar

StartChar: uni0942
Encoding: 2370 2370 35
Width: 0
GlyphClass: 4
Flags: W
AnchorPoint: "Anchor-20" -170 0 mark 0
AnchorPoint: "Anchor-12" -170 0 mark 0
AnchorPoint: "Anchor-11" -170 0 mark 0
AnchorPoint: "Anchor-8" -170 0 mark 0
LayerCount: 2
Fore
SplineSet
63 -274 m 1,0,1
 26 -194 26 -194 -8 -146.5 c 128,-1,2
 -42 -99 -42 -99 -79 -78 c 128,-1,3
 -116 -57 -116 -57 -163 -57 c 0,4,5
 -208 -57 -208 -57 -233 -76 c 128,-1,6
 -258 -95 -258 -95 -258 -130 c 0,7,8
 -258 -153 -258 -153 -247.5 -167.5 c 128,-1,9
 -237 -182 -237 -182 -219 -189 c 128,-1,10
 -201 -196 -201 -196 -180 -196 c 0,11,12
 -158 -196 -158 -196 -138.5 -190.5 c 128,-1,13
 -119 -185 -119 -185 -99 -172 c 1,14,-1
 -69 -236 l 1,15,16
 -92 -253 -92 -253 -119 -260.5 c 128,-1,17
 -146 -268 -146 -268 -178 -268 c 0,18,19
 -251 -268 -251 -268 -292 -229.5 c 128,-1,20
 -333 -191 -333 -191 -333 -128 c 0,21,22
 -333 -62 -333 -62 -287 -25.5 c 128,-1,23
 -241 11 -241 11 -162 11 c 0,24,25
 -94 11 -94 11 -42 -17.5 c 128,-1,26
 10 -46 10 -46 51.5 -101.5 c 128,-1,27
 93 -157 93 -157 131 -238 c 1,28,-1
 63 -274 l 1,0,1
EndSplineSet
Substitution2: "Single Substitution lookup 84 subtable" uni093C
MultipleSubs2: "Multiple Substitution lookup 79 subtable" uni093C.alt uni0942.alt
Substitution2: "Single Substitution lookup 78 subtable" uni0942.alt
Substitution2: "Single Substitution lookup 77 subtable" uni093C0942
EndChar

StartChar: uni0943
Encoding: 2371 2371 36
Width: 0
GlyphClass: 4
Flags: W
AnchorPoint: "Anchor-20" -170 0 mark 0
AnchorPoint: "Anchor-12" -170 0 mark 0
AnchorPoint: "Anchor-11" -170 0 mark 0
AnchorPoint: "Anchor-8" -170 0 mark 0
LayerCount: 2
Fore
SplineSet
27 -231 m 1,0,1
 2 -248 2 -248 -32.5 -258 c 128,-1,2
 -67 -268 -67 -268 -105 -268 c 0,3,4
 -178 -268 -178 -268 -222 -230 c 128,-1,5
 -266 -192 -266 -192 -266 -125 c 0,6,7
 -266 -63 -266 -63 -221.5 -25 c 128,-1,8
 -177 13 -177 13 -89 18 c 1,9,-1
 -82 -48 l 1,10,11
 -139 -55 -139 -55 -165.5 -74.5 c 128,-1,12
 -192 -94 -192 -94 -192 -129 c 0,13,14
 -192 -166 -192 -166 -168.5 -181.5 c 128,-1,15
 -145 -197 -145 -197 -108 -197 c 0,16,17
 -79 -197 -79 -197 -54 -189 c 128,-1,18
 -29 -181 -29 -181 0 -165 c 1,19,-1
 27 -231 l 1,0,1
EndSplineSet
Substitution2: "Single Substitution lookup 177 subtable" uni0930094D
Substitution2: "Single Substitution lookup 84 subtable" uni093C
Substitution2: "Single Substitution lookup 77 subtable" uni093C0943
EndChar

StartChar: uni0944
Encoding: 2372 2372 37
Width: 0
GlyphClass: 4
Flags: W
AnchorPoint: "Anchor-20" -170 0 mark 0
AnchorPoint: "Anchor-12" -170 0 mark 0
AnchorPoint: "Anchor-11" -170 0 mark 0
AnchorPoint: "Anchor-8" -170 0 mark 0
LayerCount: 2
Fore
SplineSet
27 -193 m 1,0,1
 -1 -212 -1 -212 -36 -222.5 c 128,-1,2
 -71 -233 -71 -233 -110 -233 c 0,3,4
 -184 -233 -184 -233 -225 -199.5 c 128,-1,5
 -266 -166 -266 -166 -266 -109 c 0,6,7
 -266 -53 -266 -53 -225 -19.5 c 128,-1,8
 -184 14 -184 14 -89 18 c 1,9,-1
 -82 -48 l 1,10,11
 -146 -53 -146 -53 -169 -69 c 128,-1,12
 -192 -85 -192 -85 -192 -111 c 0,13,14
 -192 -135 -192 -135 -172 -148.5 c 128,-1,15
 -152 -162 -152 -162 -115 -162 c 0,16,17
 -85 -162 -85 -162 -58.5 -153.5 c 128,-1,18
 -32 -145 -32 -145 -1 -128 c 1,19,-1
 27 -193 l 1,0,1
-130 -221 m 1,20,21
 -153 -228 -153 -228 -161 -241 c 128,-1,22
 -169 -254 -169 -254 -169 -271 c 0,23,24
 -169 -295 -169 -295 -149 -308.5 c 128,-1,25
 -129 -322 -129 -322 -92 -322 c 0,26,27
 -62 -322 -62 -322 -35.5 -313.5 c 128,-1,28
 -9 -305 -9 -305 22 -288 c 1,29,-1
 50 -353 l 1,30,31
 22 -372 22 -372 -13 -382.5 c 128,-1,32
 -48 -393 -48 -393 -87 -393 c 0,33,34
 -161 -393 -161 -393 -202 -360 c 128,-1,35
 -243 -327 -243 -327 -243 -272 c 0,36,37
 -243 -243 -243 -243 -227.5 -218.5 c 128,-1,38
 -212 -194 -212 -194 -181 -184 c 1,39,-1
 -130 -221 l 1,20,21
EndSplineSet
Substitution2: "Single Substitution lookup 177 subtable" uni0930094D
Substitution2: "Single Substitution lookup 84 subtable" uni093C
Substitution2: "Single Substitution lookup 78 subtable" uni0944.alt
Substitution2: "Single Substitution lookup 77 subtable" uni093C0944
EndChar

StartChar: uni0962
Encoding: 2402 2402 38
Width: 0
GlyphClass: 4
Flags: W
AnchorPoint: "Anchor-20" -170 0 mark 0
AnchorPoint: "Anchor-12" -170 0 mark 0
AnchorPoint: "Anchor-11" -170 0 mark 0
AnchorPoint: "Anchor-8" -170 0 mark 0
LayerCount: 2
Fore
SplineSet
-259 -304 m 1,0,1
 -328 -270 -328 -270 -368 -224.5 c 128,-1,2
 -408 -179 -408 -179 -408 -120 c 0,3,4
 -408 -56 -408 -56 -370.5 -23 c 128,-1,5
 -333 10 -333 10 -272 10 c 0,6,7
 -240 10 -240 10 -210 -1 c 128,-1,8
 -180 -12 -180 -12 -157 -38 c 1,9,-1
 -188 -86 l 1,10,11
 -201 -72 -201 -72 -218.5 -62 c 128,-1,12
 -236 -52 -236 -52 -262 -52 c 0,13,14
 -296 -52 -296 -52 -315.5 -71.5 c 128,-1,15
 -335 -91 -335 -91 -335 -123 c 0,16,17
 -335 -161 -335 -161 -306 -189 c 128,-1,18
 -277 -217 -277 -217 -218 -247 c 1,19,-1
 -259 -304 l 1,0,1
16 -370 m 0,20,21
 -39 -370 -39 -370 -71 -341.5 c 128,-1,22
 -103 -313 -103 -313 -103 -267 c 0,23,24
 -103 -238 -103 -238 -89.5 -215.5 c 128,-1,25
 -76 -193 -76 -193 -46 -178 c 128,-1,26
 -16 -163 -16 -163 33 -158 c 1,27,-1
 47 -215 l 1,28,29
 -1 -221 -1 -221 -19.5 -233.5 c 128,-1,30
 -38 -246 -38 -246 -38 -270 c 0,31,32
 -38 -292 -38 -292 -22 -302 c 128,-1,33
 -6 -312 -6 -312 16 -312 c 0,34,35
 36 -312 36 -312 53.5 -306.5 c 128,-1,36
 71 -301 71 -301 93 -290 c 1,37,-1
 115 -342 l 1,38,39
 97 -354 97 -354 72.5 -362 c 128,-1,40
 48 -370 48 -370 16 -370 c 0,20,21
47 -215 m 1,41,-1
 -24 -189 l 1,42,43
 -10 -172 -10 -172 -5 -153.5 c 128,-1,44
 0 -135 0 -135 0 -116 c 0,45,46
 0 -85 0 -85 -14 -68.5 c 128,-1,47
 -28 -52 -28 -52 -57 -52 c 0,48,49
 -80 -52 -80 -52 -98 -63.5 c 128,-1,50
 -116 -75 -116 -75 -127 -99.5 c 128,-1,51
 -138 -124 -138 -124 -142 -163 c 1,52,-1
 -212 -144 l 1,53,54
 -204 -68 -204 -68 -165 -29 c 128,-1,55
 -126 10 -126 10 -59 10 c 0,56,57
 6 10 6 10 39 -24 c 128,-1,58
 72 -58 72 -58 72 -115 c 0,59,60
 72 -143 72 -143 65 -168 c 128,-1,61
 58 -193 58 -193 47 -215 c 1,41,-1
EndSplineSet
Substitution2: "Single Substitution lookup 177 subtable" uni0930094D
Substitution2: "Single Substitution lookup 78 subtable" uni0962.alt
Substitution2: "Single Substitution lookup 77 subtable" uni093C0962
EndChar

StartChar: uni0963
Encoding: 2403 2403 39
Width: 0
GlyphClass: 4
Flags: W
AnchorPoint: "Anchor-20" -170 0 mark 0
AnchorPoint: "Anchor-12" -170 0 mark 0
AnchorPoint: "Anchor-11" -170 0 mark 0
AnchorPoint: "Anchor-8" -170 0 mark 0
LayerCount: 2
Fore
SplineSet
-259 -304 m 1,0,1
 -329 -269 -329 -269 -368.5 -223.5 c 128,-1,2
 -408 -178 -408 -178 -408 -117 c 0,3,4
 -408 -55 -408 -55 -370.5 -22.5 c 128,-1,5
 -333 10 -333 10 -273 10 c 0,6,7
 -240 10 -240 10 -209 -2.5 c 128,-1,8
 -178 -15 -178 -15 -156 -41 c 1,9,-1
 -188 -88 l 1,10,11
 -201 -74 -201 -74 -219 -63 c 128,-1,12
 -237 -52 -237 -52 -263 -52 c 0,13,14
 -297 -52 -297 -52 -316 -72 c 128,-1,15
 -335 -92 -335 -92 -335 -122 c 0,16,17
 -335 -161 -335 -161 -306.5 -189 c 128,-1,18
 -278 -217 -278 -217 -218 -247 c 1,19,-1
 -259 -304 l 1,0,1
26 -392 m 0,20,21
 -26 -392 -26 -392 -58 -370 c 128,-1,22
 -90 -348 -90 -348 -90 -310 c 0,23,24
 -90 -286 -90 -286 -74.5 -267.5 c 128,-1,25
 -59 -249 -59 -249 -24 -245 c 1,26,-1
 13 -277 l 1,27,28
 -6 -277 -6 -277 -15.5 -286 c 128,-1,29
 -25 -295 -25 -295 -25 -306 c 0,30,31
 -25 -320 -25 -320 -12 -327 c 128,-1,32
 1 -334 1 -334 23 -334 c 0,33,34
 46 -334 46 -334 65.5 -328.5 c 128,-1,35
 85 -323 85 -323 107 -312 c 1,36,-1
 128 -366 l 1,37,38
 109 -379 109 -379 82 -385.5 c 128,-1,39
 55 -392 55 -392 26 -392 c 0,20,21
20 -280 m 0,40,41
 -31 -280 -31 -280 -63.5 -257.5 c 128,-1,42
 -96 -235 -96 -235 -96 -195 c 0,43,44
 -96 -156 -96 -156 -63 -133.5 c 128,-1,45
 -30 -111 -30 -111 52 -112 c 1,46,-1
 63 -162 l 1,47,48
 6 -164 6 -164 -12.5 -172.5 c 128,-1,49
 -31 -181 -31 -181 -31 -196 c 0,50,51
 -31 -209 -31 -209 -18.5 -216 c 128,-1,52
 -6 -223 -6 -223 18 -223 c 0,53,54
 39 -223 39 -223 58.5 -218 c 128,-1,55
 78 -213 78 -213 101 -201 c 1,56,-1
 122 -255 l 1,57,58
 103 -267 103 -267 76 -273.5 c 128,-1,59
 49 -280 49 -280 20 -280 c 0,40,41
63 -162 m 1,60,-1
 -7 -145 l 1,61,62
 -5 -137 -5 -137 -5 -129.5 c 128,-1,63
 -5 -122 -5 -122 -5 -115 c 0,64,65
 -5 -84 -5 -84 -20.5 -68 c 128,-1,66
 -36 -52 -36 -52 -63 -52 c 0,67,68
 -97 -52 -97 -52 -117 -78 c 128,-1,69
 -137 -104 -137 -104 -145 -163 c 1,70,-1
 -215 -144 l 1,71,72
 -205 -66 -205 -66 -167.5 -28 c 128,-1,73
 -130 10 -130 10 -66 10 c 0,74,75
 1 10 1 10 34 -24.5 c 128,-1,76
 67 -59 67 -59 67 -114 c 0,77,78
 67 -126 67 -126 66 -138.5 c 128,-1,79
 65 -151 65 -151 63 -162 c 1,60,-1
EndSplineSet
Substitution2: "Single Substitution lookup 177 subtable" uni0930094D
Substitution2: "Single Substitution lookup 78 subtable" uni0963.alt
Substitution2: "Single Substitution lookup 77 subtable" uni093C0963
EndChar

StartChar: uni0947
Encoding: 2375 2375 40
Width: 0
GlyphClass: 4
Flags: W
AnchorPoint: "Anchor-21" -170 622 mark 0
AnchorPoint: "Anchor-18" -170 622 mark 0
AnchorPoint: "Anchor-7" -51 622 basemark 0
AnchorPoint: "Anchor-3" -170 622 mark 0
LayerCount: 2
Fore
SplineSet
-169 615 m 1,0,1
 -190 682 -190 682 -205.5 723 c 128,-1,2
 -221 764 -221 764 -235.5 785.5 c 128,-1,3
 -250 807 -250 807 -268 815 c 128,-1,4
 -286 823 -286 823 -312 823 c 0,5,6
 -333 823 -333 823 -355 818.5 c 128,-1,7
 -377 814 -377 814 -395 807 c 1,8,-1
 -417 878 l 1,9,10
 -396 886 -396 886 -369 891 c 128,-1,11
 -342 896 -342 896 -317 896 c 0,12,13
 -273 896 -273 896 -242.5 883.5 c 128,-1,14
 -212 871 -212 871 -188 839.5 c 128,-1,15
 -164 808 -164 808 -142.5 753.5 c 128,-1,16
 -121 699 -121 699 -95 615 c 1,17,-1
 -169 615 l 1,0,1
EndSplineSet
EndChar

StartChar: uni0948
Encoding: 2376 2376 41
Width: 0
GlyphClass: 4
Flags: W
AnchorPoint: "Anchor-21" -170 622 mark 0
AnchorPoint: "Anchor-18" -170 622 mark 0
AnchorPoint: "Anchor-7" -63 622 basemark 0
AnchorPoint: "Anchor-3" -170 622 mark 0
LayerCount: 2
Fore
SplineSet
-169 615 m 1,0,1
 -202 653 -202 653 -225 672 c 128,-1,2
 -248 691 -248 691 -268 697 c 128,-1,3
 -288 703 -288 703 -313 703 c 0,4,5
 -336 703 -336 703 -359 697 c 128,-1,6
 -382 691 -382 691 -402 682 c 1,7,-1
 -427 752 l 1,8,9
 -404 762 -404 762 -379.5 767.5 c 128,-1,10
 -355 773 -355 773 -331 773 c 0,11,12
 -299 773 -299 773 -276 765 c 128,-1,13
 -253 757 -253 757 -230.5 739 c 128,-1,14
 -208 721 -208 721 -180 692 c 1,15,-1
 -176 694 l 1,16,17
 -204 750 -204 750 -224.5 778.5 c 128,-1,18
 -245 807 -245 807 -266 817 c 128,-1,19
 -287 827 -287 827 -315 827 c 0,20,21
 -332 827 -332 827 -349 823.5 c 128,-1,22
 -366 820 -366 820 -386 812 c 1,23,-1
 -409 881 l 1,24,25
 -389 889 -389 889 -365.5 892.5 c 128,-1,26
 -342 896 -342 896 -318 896 c 0,27,28
 -277 896 -277 896 -247.5 884 c 128,-1,29
 -218 872 -218 872 -194 841 c 128,-1,30
 -170 810 -170 810 -146.5 755.5 c 128,-1,31
 -123 701 -123 701 -95 615 c 1,32,-1
 -169 615 l 1,0,1
EndSplineSet
EndChar

StartChar: uni0945
Encoding: 2373 2373 44
Width: 0
GlyphClass: 4
Flags: W
AnchorPoint: "Anchor-14" -143 622 mark 0
AnchorPoint: "Anchor-5" -169 869 basemark 0
AnchorPoint: "Anchor-5" -143 622 mark 0
AnchorPoint: "Anchor-0" -143 622 mark 0
LayerCount: 2
Fore
SplineSet
45 848 m 1,0,1
 27 754 27 754 -21.5 717 c 128,-1,2
 -70 680 -70 680 -143 680 c 256,3,4
 -216 680 -216 680 -264.5 717 c 128,-1,5
 -313 754 -313 754 -331 848 c 1,6,-1
 -258 870 l 1,7,8
 -245 800 -245 800 -217 774.5 c 128,-1,9
 -189 749 -189 749 -143 749 c 256,10,11
 -97 749 -97 749 -69 774.5 c 128,-1,12
 -41 800 -41 800 -28 870 c 1,13,-1
 45 848 l 1,0,1
EndSplineSet
EndChar

StartChar: uni0946
Encoding: 2374 2374 46
Width: 0
GlyphClass: 4
Flags: W
AnchorPoint: "Anchor-21" -170 622 mark 0
AnchorPoint: "Anchor-18" -170 622 mark 0
AnchorPoint: "Anchor-7" -50 622 basemark 0
AnchorPoint: "Anchor-3" -170 622 mark 0
LayerCount: 2
Fore
SplineSet
-170 615 m 1,0,1
 -182 663 -182 663 -194 689.5 c 128,-1,2
 -206 716 -206 716 -222 726.5 c 128,-1,3
 -238 737 -238 737 -263 737 c 0,4,5
 -277 737 -277 737 -294 735.5 c 128,-1,6
 -311 734 -311 734 -327 734 c 0,7,8
 -361 734 -361 734 -387.5 744.5 c 128,-1,9
 -414 755 -414 755 -435.5 785 c 128,-1,10
 -457 815 -457 815 -475 871 c 1,11,-1
 -404 896 l 1,12,13
 -392 861 -392 861 -381 841 c 128,-1,14
 -370 821 -370 821 -356.5 813 c 128,-1,15
 -343 805 -343 805 -322 805 c 0,16,17
 -305 805 -305 805 -284.5 807 c 128,-1,18
 -264 809 -264 809 -244 809 c 0,19,20
 -208 809 -208 809 -181 791.5 c 128,-1,21
 -154 774 -154 774 -132.5 731.5 c 128,-1,22
 -111 689 -111 689 -94 615 c 1,23,-1
 -170 615 l 1,0,1
EndSplineSet
EndChar

StartChar: uni0956
Encoding: 2390 2390 48
Width: 0
GlyphClass: 4
Flags: W
AnchorPoint: "Anchor-13" -169 -40 mark 0
AnchorPoint: "Anchor-9" -169 -40 mark 0
LayerCount: 2
Fore
SplineSet
-276 -182 m 256,0,1
 -341 -182 -341 -182 -391 -162.5 c 128,-1,2
 -441 -143 -441 -143 -472 -118 c 1,3,-1
 -449 -52 l 1,4,5
 -414 -77 -414 -77 -375.5 -94 c 128,-1,6
 -337 -111 -337 -111 -276 -111 c 256,7,8
 -215 -111 -215 -111 -176.5 -94 c 128,-1,9
 -138 -77 -138 -77 -104 -52 c 1,10,-1
 -80 -118 l 1,11,12
 -111 -143 -111 -143 -161 -162.5 c 128,-1,13
 -211 -182 -211 -182 -276 -182 c 256,0,1
EndSplineSet
MultipleSubs2: "Multiple Substitution lookup 79 subtable" uni093C.alt uni0956.alt
Substitution2: "Single Substitution lookup 78 subtable" uni0956.alt
Substitution2: "Single Substitution lookup 77 subtable" uni093C0956
EndChar

StartChar: uni0957
Encoding: 2391 2391 49
Width: 0
GlyphClass: 4
Flags: W
AnchorPoint: "Anchor-13" -169 -40 mark 0
AnchorPoint: "Anchor-9" -169 -40 mark 0
LayerCount: 2
Fore
SplineSet
-275 -150 m 0,0,1
 -339 -150 -339 -150 -389 -131 c 128,-1,2
 -439 -112 -439 -112 -471 -86 c 1,3,-1
 -448 -20 l 1,4,5
 -413 -46 -413 -46 -374.5 -62.5 c 128,-1,6
 -336 -79 -336 -79 -275 -79 c 256,7,8
 -214 -79 -214 -79 -175.5 -62.5 c 128,-1,9
 -137 -46 -137 -46 -103 -20 c 1,10,-1
 -79 -86 l 1,11,12
 -110 -111 -110 -111 -161.5 -130.5 c 128,-1,13
 -213 -150 -213 -150 -275 -150 c 0,0,1
-275 -268 m 256,14,15
 -340 -268 -340 -268 -388 -252 c 128,-1,16
 -436 -236 -436 -236 -471 -216 c 1,17,-1
 -448 -150 l 1,18,19
 -404 -176 -404 -176 -364.5 -186 c 128,-1,20
 -325 -196 -325 -196 -275 -196 c 256,21,22
 -225 -196 -225 -196 -185.5 -186 c 128,-1,23
 -146 -176 -146 -176 -103 -150 c 1,24,-1
 -79 -216 l 1,25,26
 -114 -236 -114 -236 -162 -252 c 128,-1,27
 -210 -268 -210 -268 -275 -268 c 256,14,15
EndSplineSet
MultipleSubs2: "Multiple Substitution lookup 79 subtable" uni093C.alt uni0957.alt
Substitution2: "Single Substitution lookup 78 subtable" uni0957.alt
Substitution2: "Single Substitution lookup 77 subtable" uni093C0957
EndChar

StartChar: uni093A
Encoding: 2362 2362 50
Width: 0
GlyphClass: 4
Flags: W
AnchorPoint: "Anchor-21" -170 622 mark 0
AnchorPoint: "Anchor-18" -170 622 mark 0
AnchorPoint: "Anchor-7" -10 622 basemark 0
AnchorPoint: "Anchor-3" -170 622 mark 0
LayerCount: 2
Fore
SplineSet
-170 615 m 1,0,-1
 -170 805 l 1,1,-1
 -89 805 l 1,2,-1
 -89 615 l 1,3,-1
 -170 615 l 1,0,-1
EndSplineSet
EndChar

StartChar: ayMatradeva
Encoding: 43263 43263 52
Width: 0
GlyphClass: 4
Flags: W
AnchorPoint: "Anchor-21" -170 622 mark 0
AnchorPoint: "Anchor-18" -170 622 mark 0
AnchorPoint: "Anchor-7" -20 622 basemark 0
AnchorPoint: "Anchor-3" -170 622 mark 0
LayerCount: 2
Fore
SplineSet
-172 615 m 1,0,1
 -188 653 -188 653 -212.5 666.5 c 128,-1,2
 -237 680 -237 680 -267 680 c 0,3,4
 -283 680 -283 680 -301.5 678.5 c 128,-1,5
 -320 677 -320 677 -339 677 c 0,6,7
 -369 677 -369 677 -393 686.5 c 128,-1,8
 -417 696 -417 696 -435.5 720.5 c 128,-1,9
 -454 745 -454 745 -467 789 c 1,10,-1
 -401 812 l 1,11,12
 -387 773 -387 773 -372.5 758.5 c 128,-1,13
 -358 744 -358 744 -329 744 c 0,14,15
 -318 744 -318 744 -300.5 745.5 c 128,-1,16
 -283 747 -283 747 -269 747 c 0,17,18
 -225 747 -225 747 -192.5 729.5 c 128,-1,19
 -160 712 -160 712 -139 659 c 1,20,-1
 -136 659 l 1,21,22
 -134 667 -134 667 -133.5 675.5 c 128,-1,23
 -133 684 -133 684 -133 691 c 0,24,25
 -133 720 -133 720 -145 737 c 128,-1,26
 -157 754 -157 754 -195 765 c 2,27,-1
 -228 775 l 2,28,29
 -264 786 -264 786 -283.5 800.5 c 128,-1,30
 -303 815 -303 815 -309.5 837.5 c 128,-1,31
 -316 860 -316 860 -315 895 c 1,32,-1
 -245 896 l 1,33,34
 -246 864 -246 864 -234.5 852 c 128,-1,35
 -223 840 -223 840 -189 830 c 2,36,-1
 -159 821 l 2,37,38
 -110 807 -110 807 -91 781.5 c 128,-1,39
 -72 756 -72 756 -72 706 c 0,40,41
 -72 684 -72 684 -76.5 658.5 c 128,-1,42
 -81 633 -81 633 -86 615 c 1,43,-1
 -172 615 l 1,0,1
EndSplineSet
EndChar

StartChar: uni094E
Encoding: 2382 2382 54
Width: 273
Flags: W
LayerCount: 2
Fore
SplineSet
184 551 m 1,0,-1
 184 0 l 1,1,-1
 103 0 l 1,2,-1
 103 622 l 1,3,-1
 288 622 l 1,4,-1
 288 551 l 1,5,-1
 184 551 l 1,0,-1
EndSplineSet
EndChar

StartChar: uni0955
Encoding: 2389 2389 55
Width: 0
GlyphClass: 4
Flags: W
AnchorPoint: "Anchor-14" -143 622 mark 0
AnchorPoint: "Anchor-5" -143 622 mark 0
AnchorPoint: "Anchor-0" -143 622 mark 0
LayerCount: 2
Fore
SplineSet
-310 714 m 1,0,-1
 24 714 l 1,1,-1
 24 650 l 1,2,-1
 -310 650 l 1,3,-1
 -310 714 l 1,0,-1
35 877 m 1,4,5
 18 797 18 797 -28 765 c 128,-1,6
 -74 733 -74 733 -143 733 c 256,7,8
 -212 733 -212 733 -258 765 c 128,-1,9
 -304 797 -304 797 -321 877 c 1,10,-1
 -248 896 l 1,11,12
 -236 843 -236 843 -210.5 823 c 128,-1,13
 -185 803 -185 803 -143 803 c 256,14,15
 -101 803 -101 803 -75.5 823 c 128,-1,16
 -50 843 -50 843 -38 896 c 1,17,-1
 35 877 l 1,4,5
EndSplineSet
EndChar

StartChar: uni0915
Encoding: 2325 2325 56
Width: 768
GlyphClass: 2
Flags: W
AnchorPoint: "Anchor-10" 142 10 basechar 0
AnchorPoint: "Anchor-9" 514 -40 basechar 0
AnchorPoint: "Anchor-8" 377 0 basechar 0
AnchorPoint: "Anchor-3" 377 622 basechar 0
AnchorPoint: "Anchor-1" 377 -20 basechar 0
AnchorPoint: "Anchor-0" 417 622 basechar 0
LayerCount: 2
Fore
SplineSet
783 551 m 1,0,-1
 458 551 l 1,1,-1
 458 333 l 1,2,-1
 444 343 l 1,3,4
 464 368 464 368 498 384 c 128,-1,5
 532 400 532 400 575 400 c 0,6,7
 646 400 646 400 686 357 c 128,-1,8
 726 314 726 314 726 240 c 0,9,10
 726 188 726 188 706 139.5 c 128,-1,11
 686 91 686 91 642 42 c 1,12,-1
 572 86 l 1,13,14
 605 120 605 120 625.5 157.5 c 128,-1,15
 646 195 646 195 646 241 c 0,16,17
 646 285 646 285 625 307.5 c 128,-1,18
 604 330 604 330 566 330 c 0,19,20
 533 330 533 330 503.5 308.5 c 128,-1,21
 474 287 474 287 455 250 c 1,22,-1
 458 287 l 1,23,-1
 458 0 l 1,24,-1
 377 0 l 1,25,-1
 377 210 l 1,26,-1
 391 183 l 1,27,28
 372 164 372 164 348.5 149 c 128,-1,29
 325 134 325 134 296 126 c 128,-1,30
 267 118 267 118 233 118 c 0,31,32
 182 118 182 118 139.5 137.5 c 128,-1,33
 97 157 97 157 71.5 195.5 c 128,-1,34
 46 234 46 234 46 291 c 0,35,36
 46 373 46 373 100.5 418.5 c 128,-1,37
 155 464 155 464 252 464 c 0,38,39
 278 464 278 464 300.5 461.5 c 128,-1,40
 323 459 323 459 342 454 c 1,41,-1
 335 381 l 1,42,43
 318 386 318 386 297.5 388.5 c 128,-1,44
 277 391 277 391 254 391 c 0,45,46
 193 391 193 391 160 364.5 c 128,-1,47
 127 338 127 338 127 288 c 0,48,49
 127 239 127 239 157.5 214.5 c 128,-1,50
 188 190 188 190 233 190 c 0,51,52
 281 190 281 190 320 214.5 c 128,-1,53
 359 239 359 239 381 273 c 1,54,-1
 377 224 l 1,55,-1
 377 551 l 1,56,-1
 0 551 l 1,57,-1
 0 622 l 1,58,-1
 783 622 l 1,59,-1
 783 551 l 1,0,-1
EndSplineSet
EndChar

StartChar: uni0916
Encoding: 2326 2326 57
Width: 818
GlyphClass: 2
Flags: W
AnchorPoint: "Anchor-10" 112 32 basechar 0
AnchorPoint: "Anchor-9" 648 -40 basechar 0
AnchorPoint: "Anchor-8" 648 0 basechar 0
AnchorPoint: "Anchor-3" 648 622 basechar 0
AnchorPoint: "Anchor-1" 648 -20 basechar 0
AnchorPoint: "Anchor-0" 688 622 basechar 0
LayerCount: 2
Fore
SplineSet
265 551 m 1,0,-1
 276 561 l 1,1,2
 287 542 287 542 292.5 516.5 c 128,-1,3
 298 491 298 491 298 458 c 0,4,5
 298 374 298 374 260.5 324 c 128,-1,6
 223 274 223 274 153 240 c 1,7,-1
 157 247 l 1,8,9
 192 193 192 193 238.5 155.5 c 128,-1,10
 285 118 285 118 343 98.5 c 128,-1,11
 401 79 401 79 469 79 c 0,12,13
 531 79 531 79 584 94 c 128,-1,14
 637 109 637 109 681 139 c 1,15,-1
 691 75 l 1,16,17
 650 40 650 40 595.5 23.5 c 128,-1,18
 541 7 541 7 468 7 c 0,19,20
 388 7 388 7 323 29 c 128,-1,21
 258 51 258 51 207.5 88.5 c 128,-1,22
 157 126 157 126 120 172 c 0,23,24
 82 220 82 220 62 262 c 128,-1,25
 42 304 42 304 42 340 c 0,26,27
 42 366 42 366 56.5 380 c 128,-1,28
 71 394 71 394 96 394 c 0,29,30
 122 394 122 394 144 377.5 c 128,-1,31
 166 361 166 361 192 329 c 1,32,-1
 148 331 l 1,33,34
 176 339 176 339 190.5 359 c 128,-1,35
 205 379 205 379 211 405.5 c 128,-1,36
 217 432 217 432 217 458 c 0,37,38
 217 488 217 488 212 515.5 c 128,-1,39
 207 543 207 543 194 564 c 1,40,-1
 215 551 l 1,41,-1
 0 551 l 1,42,-1
 0 622 l 1,43,-1
 496 622 l 1,44,-1
 496 551 l 1,45,-1
 265 551 l 1,0,-1
729 551 m 1,46,-1
 729 0 l 1,47,-1
 648 0 l 1,48,-1
 648 551 l 1,49,-1
 461 551 l 1,50,-1
 461 622 l 1,51,-1
 832 622 l 1,52,-1
 832 551 l 1,53,-1
 729 551 l 1,46,-1
670 208 m 1,54,55
 644 189 644 189 611.5 178 c 128,-1,56
 579 167 579 167 535 167 c 0,57,58
 480 167 480 167 440 186 c 128,-1,59
 400 205 400 205 378 240 c 128,-1,60
 356 275 356 275 356 322 c 0,61,62
 356 393 356 393 403 433 c 128,-1,63
 450 473 450 473 534 473 c 0,64,65
 557 473 557 473 577.5 470.5 c 128,-1,66
 598 468 598 468 616 463 c 1,67,-1
 610 395 l 1,68,69
 593 400 593 400 575.5 402 c 128,-1,70
 558 404 558 404 540 404 c 0,71,72
 491 404 491 404 464 382.5 c 128,-1,73
 437 361 437 361 437 318 c 256,74,75
 437 275 437 275 465 255 c 128,-1,76
 493 235 493 235 534 235 c 0,77,78
 580 235 580 235 615.5 256 c 128,-1,79
 651 277 651 277 670 306 c 1,80,-1
 670 208 l 1,54,55
EndSplineSet
EndChar

StartChar: uni0917
Encoding: 2327 2327 58
Width: 563
GlyphClass: 2
Flags: W
AnchorPoint: "Anchor-10" 164 37 basechar 0
AnchorPoint: "Anchor-9" 393 -40 basechar 0
AnchorPoint: "Anchor-8" 393 0 basechar 0
AnchorPoint: "Anchor-3" 393 622 basechar 0
AnchorPoint: "Anchor-1" 393 -20 basechar 0
AnchorPoint: "Anchor-0" 433 622 basechar 0
LayerCount: 2
Fore
SplineSet
208 551 m 1,0,-1
 208 234 l 2,1,2
 208 208 208 208 195.5 193 c 128,-1,3
 183 178 183 178 160 178 c 0,4,5
 141 178 141 178 120 190 c 128,-1,6
 99 202 99 202 81 222 c 128,-1,7
 63 242 63 242 52 264.5 c 128,-1,8
 41 287 41 287 41 308 c 0,9,10
 41 331 41 331 54.5 345 c 128,-1,11
 68 359 68 359 102 359 c 2,12,-1
 127 359 l 1,13,-1
 127 551 l 1,14,-1
 0 551 l 1,15,-1
 0 622 l 1,16,-1
 577 622 l 1,17,-1
 577 551 l 1,18,-1
 474 551 l 1,19,-1
 474 0 l 1,20,-1
 393 0 l 1,21,-1
 393 551 l 1,22,-1
 208 551 l 1,0,-1
EndSplineSet
EndChar

StartChar: uni0918
Encoding: 2328 2328 59
Width: 591
GlyphClass: 2
Flags: W
AnchorPoint: "Anchor-10" 152 31 basechar 0
AnchorPoint: "Anchor-9" 421 -40 basechar 0
AnchorPoint: "Anchor-8" 421 0 basechar 0
AnchorPoint: "Anchor-3" 421 622 basechar 0
AnchorPoint: "Anchor-1" 421 -20 basechar 0
AnchorPoint: "Anchor-0" 461 622 basechar 0
LayerCount: 2
Fore
SplineSet
605 551 m 1,0,-1
 502 551 l 1,1,-1
 502 0 l 1,2,-1
 421 0 l 1,3,-1
 421 183 l 1,4,-1
 441 167 l 1,5,6
 412 142 412 142 368 127 c 128,-1,7
 324 112 324 112 270 112 c 0,8,9
 211 112 211 112 166 131.5 c 128,-1,10
 121 151 121 151 95.5 187 c 128,-1,11
 70 223 70 223 70 270 c 0,12,13
 70 303 70 303 85.5 336 c 128,-1,14
 101 369 101 369 141 389 c 1,15,-1
 158 403 l 1,16,17
 178 411 178 411 207.5 415.5 c 128,-1,18
 237 420 237 420 262 420 c 0,19,20
 276 420 276 420 289 419.5 c 128,-1,21
 302 419 302 419 313 417 c 1,22,-1
 307 346 l 1,23,24
 295 348 295 348 285.5 348 c 128,-1,25
 276 348 276 348 265 348 c 0,26,27
 208 348 208 348 179.5 326.5 c 128,-1,28
 151 305 151 305 151 266 c 0,29,30
 151 224 151 224 183.5 203.5 c 128,-1,31
 216 183 216 183 270 183 c 0,32,33
 319 183 319 183 363 205 c 128,-1,34
 407 227 407 227 432 261 c 1,35,-1
 421 221 l 1,36,-1
 421 551 l 1,37,-1
 0 551 l 1,38,-1
 0 622 l 1,39,-1
 605 622 l 1,40,-1
 605 551 l 1,0,-1
183 352 m 1,41,42
 144 362 144 362 114 380.5 c 128,-1,43
 84 399 84 399 67 425.5 c 128,-1,44
 50 452 50 452 50 485 c 0,45,46
 50 520 50 520 65.5 544 c 128,-1,47
 81 568 81 568 110 590 c 1,48,-1
 173 560 l 1,49,50
 152 547 152 547 141.5 528 c 128,-1,51
 131 509 131 509 131 485 c 0,52,53
 131 451 131 451 155 430 c 128,-1,54
 179 409 179 409 213 404 c 1,55,-1
 183 352 l 1,41,42
EndSplineSet
EndChar

StartChar: uni0919
Encoding: 2329 2329 60
Width: 637
GlyphClass: 2
Flags: W
AnchorPoint: "Anchor-10" 275 -134 basechar 0
AnchorPoint: "Anchor-9" 373 -40 basechar 0
AnchorPoint: "Anchor-8" 283 0 basechar 0
AnchorPoint: "Anchor-3" 365 622 basechar 0
AnchorPoint: "Anchor-1" 241 -30 basechar 0
AnchorPoint: "Anchor-0" 405 622 basechar 0
LayerCount: 2
Fore
SplineSet
511 318 m 0,0,1
 511 343 511 343 527 359 c 128,-1,2
 543 375 543 375 567 375 c 256,3,4
 591 375 591 375 607 359 c 128,-1,5
 623 343 623 343 623 318 c 0,6,7
 623 294 623 294 607 277.5 c 128,-1,8
 591 261 591 261 567 261 c 256,9,10
 543 261 543 261 527 277.5 c 128,-1,11
 511 294 511 294 511 318 c 0,0,1
511 622 m 1,12,-1
 657 622 l 1,13,-1
 657 551 l 1,14,-1
 511 551 l 1,15,-1
 511 622 l 1,12,-1
315 222 m 0,16,17
 285 222 285 222 255 216 c 128,-1,18
 225 210 225 210 201 199 c 1,19,20
 159 226 159 226 125.5 262.5 c 128,-1,21
 92 299 92 299 92 348 c 0,22,23
 92 406 92 406 130 435 c 128,-1,24
 168 464 168 464 247 464 c 2,25,-1
 365 464 l 1,26,-1
 365 551 l 1,27,-1
 -10 551 l 1,28,-1
 -10 622 l 1,29,-1
 545 622 l 1,30,-1
 545 551 l 1,31,-1
 446 551 l 1,32,-1
 446 394 l 1,33,-1
 248 394 l 2,34,35
 208 394 208 394 190 381 c 128,-1,36
 172 368 172 368 172 342 c 0,37,38
 172 323 172 323 184.5 305.5 c 128,-1,39
 197 288 197 288 214 276 c 1,40,41
 238 284 238 284 266 289 c 128,-1,42
 294 294 294 294 323 294 c 0,43,44
 404 294 404 294 446.5 256.5 c 128,-1,45
 489 219 489 219 489 154 c 0,46,47
 489 110 489 110 468.5 75 c 128,-1,48
 448 40 448 40 405 20 c 128,-1,49
 362 0 362 0 294 0 c 0,50,51
 208 0 208 0 140.5 33.5 c 128,-1,52
 73 67 73 67 20 119 c 1,53,-1
 70 185 l 1,54,55
 123 130 123 130 177 102 c 128,-1,56
 231 74 231 74 292 74 c 0,57,58
 351 74 351 74 379.5 94 c 128,-1,59
 408 114 408 114 408 151 c 0,60,61
 408 184 408 184 386.5 203 c 128,-1,62
 365 222 365 222 315 222 c 0,16,17
EndSplineSet
Substitution2: "Single Substitution lookup 74 subtable" uni0919.alt
EndChar

StartChar: uni091A
Encoding: 2330 2330 61
Width: 635
GlyphClass: 2
Flags: W
AnchorPoint: "Anchor-10" 192 6 basechar 0
AnchorPoint: "Anchor-9" 465 -40 basechar 0
AnchorPoint: "Anchor-8" 465 0 basechar 0
AnchorPoint: "Anchor-3" 465 622 basechar 0
AnchorPoint: "Anchor-1" 465 -20 basechar 0
AnchorPoint: "Anchor-0" 505 622 basechar 0
LayerCount: 2
Fore
SplineSet
649 551 m 1,0,-1
 545 551 l 1,1,-1
 545 0 l 1,2,-1
 465 0 l 1,3,-1
 465 179 l 1,4,-1
 483 171 l 1,5,6
 456 143 456 143 413.5 126 c 128,-1,7
 371 109 371 109 322 109 c 0,8,9
 267 109 267 109 225.5 129 c 128,-1,10
 184 149 184 149 160.5 185 c 128,-1,11
 137 221 137 221 137 269 c 0,12,13
 137 307 137 307 151.5 334.5 c 128,-1,14
 166 362 166 362 187 378 c 1,15,-1
 38 376 l 1,16,-1
 38 448 l 1,17,-1
 389 448 l 1,18,-1
 382 377 l 1,19,-1
 350 377 l 2,20,21
 292 377 292 377 254.5 351.5 c 128,-1,22
 217 326 217 326 217 273 c 0,23,24
 217 229 217 229 245 205 c 128,-1,25
 273 181 273 181 316 181 c 0,26,27
 368 181 368 181 409.5 207 c 128,-1,28
 451 233 451 233 477 270 c 1,29,-1
 465 212 l 1,30,-1
 465 551 l 1,31,-1
 0 551 l 1,32,-1
 0 622 l 1,33,-1
 649 622 l 1,34,-1
 649 551 l 1,0,-1
EndSplineSet
EndChar

StartChar: uni091B
Encoding: 2331 2331 62
Width: 701
GlyphClass: 2
Flags: W
AnchorPoint: "Anchor-10" 317 -134 basechar 0
AnchorPoint: "Anchor-9" 438 -40 basechar 0
AnchorPoint: "Anchor-8" 339 0 basechar 0
AnchorPoint: "Anchor-3" 455 622 basechar 0
AnchorPoint: "Anchor-1" 318 -30 basechar 0
AnchorPoint: "Anchor-0" 495 622 basechar 0
LayerCount: 2
Fore
SplineSet
535 551 m 1,0,-1
 535 446 l 1,1,-1
 455 446 l 1,2,-1
 455 551 l 1,3,-1
 0 551 l 1,4,-1
 0 622 l 1,5,-1
 715 622 l 1,6,-1
 715 551 l 1,7,-1
 535 551 l 1,0,-1
316 70 m 0,8,9
 387 70 387 70 446 99.5 c 128,-1,10
 505 129 505 129 540 182.5 c 128,-1,11
 575 236 575 236 575 308 c 0,12,13
 575 360 575 360 555 389.5 c 128,-1,14
 535 419 535 419 491 419 c 0,15,16
 460 419 460 419 442 400.5 c 128,-1,17
 424 382 424 382 424 353 c 0,18,19
 424 318 424 318 451 295.5 c 128,-1,20
 478 273 478 273 527 259 c 1,21,-1
 496 198 l 1,22,23
 420 218 420 218 383.5 257.5 c 128,-1,24
 347 297 347 297 347 353 c 256,25,26
 347 409 347 409 382.5 446 c 128,-1,27
 418 483 418 483 492 483 c 256,28,29
 566 483 566 483 609.5 438.5 c 128,-1,30
 653 394 653 394 653 300 c 0,31,32
 653 242 653 242 630.5 188.5 c 128,-1,33
 608 135 608 135 564.5 92.5 c 128,-1,34
 521 50 521 50 458.5 25 c 128,-1,35
 396 0 396 0 316 0 c 0,36,37
 206 0 206 0 150 42.5 c 128,-1,38
 94 85 94 85 94 153 c 0,39,40
 94 181 94 181 107 209.5 c 128,-1,41
 120 238 120 238 151 255 c 1,42,-1
 164 266 l 2,43,44
 185 279 185 279 210 284.5 c 128,-1,45
 235 290 235 290 263 290 c 0,46,47
 276 290 276 290 287.5 289.5 c 128,-1,48
 299 289 299 289 308 287 c 1,49,-1
 302 216 l 1,50,51
 292 218 292 218 284.5 218 c 128,-1,52
 277 218 277 218 270 218 c 0,53,54
 221 218 221 218 198 199.5 c 128,-1,55
 175 181 175 181 175 148 c 0,56,57
 175 108 175 108 213 89 c 128,-1,58
 251 70 251 70 316 70 c 0,8,9
194 219 m 1,59,60
 125 233 125 233 84 268.5 c 128,-1,61
 43 304 43 304 43 357 c 0,62,63
 43 419 43 419 85.5 451 c 128,-1,64
 128 483 128 483 204 483 c 0,65,66
 230 483 230 483 252 480.5 c 128,-1,67
 274 478 274 478 288 474 c 1,68,-1
 282 408 l 1,69,70
 266 411 266 411 250 413 c 128,-1,71
 234 415 234 415 215 415 c 0,72,73
 172 415 172 415 148 398.5 c 128,-1,74
 124 382 124 382 124 350 c 0,75,76
 124 316 124 316 150.5 299 c 128,-1,77
 177 282 177 282 212 277 c 1,78,-1
 194 219 l 1,59,60
EndSplineSet
Substitution2: "Single Substitution lookup 74 subtable" uni091B.alt
EndChar

StartChar: uni091C
Encoding: 2332 2332 63
Width: 742
GlyphClass: 2
Flags: W
AnchorPoint: "Anchor-10" 282 -39 basechar 0
AnchorPoint: "Anchor-9" 572 -40 basechar 0
AnchorPoint: "Anchor-8" 572 0 basechar 0
AnchorPoint: "Anchor-3" 572 622 basechar 0
AnchorPoint: "Anchor-1" 572 -20 basechar 0
AnchorPoint: "Anchor-0" 612 622 basechar 0
LayerCount: 2
Fore
SplineSet
653 551 m 1,0,-1
 653 0 l 1,1,-1
 572 0 l 1,2,-1
 572 370 l 1,3,-1
 435 370 l 2,4,5
 409 370 409 370 393.5 371 c 128,-1,6
 378 372 378 372 369 375 c 1,7,-1
 362 385 l 1,8,9
 404 356 404 356 431 312 c 128,-1,10
 458 268 458 268 458 218 c 0,11,12
 458 172 458 172 437.5 141 c 128,-1,13
 417 110 417 110 383.5 95 c 128,-1,14
 350 80 350 80 310 80 c 256,15,16
 270 80 270 80 233.5 97 c 128,-1,17
 197 114 197 114 162.5 151.5 c 128,-1,18
 128 189 128 189 95.5 250.5 c 128,-1,19
 63 312 63 312 31 401 c 1,20,-1
 102 426 l 1,21,22
 133 337 133 337 165 276 c 128,-1,23
 197 215 197 215 232 184 c 128,-1,24
 267 153 267 153 306 153 c 0,25,26
 338 153 338 153 358.5 170 c 128,-1,27
 379 187 379 187 379 227 c 0,28,29
 379 271 379 271 348.5 310 c 128,-1,30
 318 349 318 349 273 377 c 1,31,-1
 302 441 l 1,32,-1
 572 441 l 1,33,-1
 572 551 l 1,34,-1
 0 551 l 1,35,-1
 0 622 l 1,36,-1
 756 622 l 1,37,-1
 756 551 l 1,38,-1
 653 551 l 1,0,-1
EndSplineSet
EndChar

StartChar: uni091D
Encoding: 2333 2333 64
Width: 756
GlyphClass: 2
Flags: W
AnchorPoint: "Anchor-10" 94 -110 basechar 0
AnchorPoint: "Anchor-9" 636 -40 basechar 0
AnchorPoint: "Anchor-8" 586 0 basechar 0
AnchorPoint: "Anchor-3" 586 622 basechar 0
AnchorPoint: "Anchor-1" 586 -20 basechar 0
AnchorPoint: "Anchor-0" 626 622 basechar 0
LayerCount: 2
Fore
SplineSet
667 551 m 1,0,-1
 667 0 l 1,1,-1
 586 0 l 1,2,-1
 586 551 l 1,3,-1
 489 551 l 1,4,-1
 489 622 l 1,5,-1
 770 622 l 1,6,-1
 770 551 l 1,7,-1
 667 551 l 1,0,-1
480 271 m 0,8,9
 527 271 527 271 562 278.5 c 128,-1,10
 597 286 597 286 637 303 c 1,11,-1
 637 228 l 1,12,13
 612 215 612 215 580.5 207.5 c 128,-1,14
 549 200 549 200 514 200 c 0,15,16
 483 200 483 200 453 204 c 128,-1,17
 423 208 423 208 387 219 c 1,18,-1
 339 271 l 1,19,-1
 345 286 l 1,20,21
 380 279 380 279 411.5 275 c 128,-1,22
 443 271 443 271 480 271 c 0,8,9
271 222 m 0,23,24
 242 222 242 222 212.5 215.5 c 128,-1,25
 183 209 183 209 158 199 c 1,26,27
 130 217 130 217 105 240 c 128,-1,28
 80 263 80 263 65 291.5 c 128,-1,29
 50 320 50 320 50 352 c 0,30,31
 50 408 50 408 86.5 436.5 c 128,-1,32
 123 465 123 465 199 465 c 2,33,-1
 323 465 l 1,34,-1
 323 551 l 1,35,-1
 0 551 l 1,36,-1
 0 622 l 1,37,-1
 505 622 l 1,38,-1
 505 551 l 1,39,-1
 404 551 l 1,40,-1
 404 394 l 1,41,-1
 206 394 l 2,42,43
 166 394 166 394 148 381 c 128,-1,44
 130 368 130 368 130 344 c 0,45,46
 130 324 130 324 142.5 307 c 128,-1,47
 155 290 155 290 173 276 c 1,48,49
 198 285 198 285 225 289.5 c 128,-1,50
 252 294 252 294 283 294 c 0,51,52
 337 294 337 294 373.5 276.5 c 128,-1,53
 410 259 410 259 428.5 227.5 c 128,-1,54
 447 196 447 196 447 154 c 0,55,56
 447 75 447 75 387 37.5 c 128,-1,57
 327 0 327 0 226 0 c 0,58,59
 218 0 218 0 210.5 0 c 128,-1,60
 203 0 203 0 195.5 0.5 c 128,-1,61
 188 1 188 1 181 1 c 0,62,63
 119 4 119 4 80.5 24 c 128,-1,64
 42 44 42 44 42 82 c 0,65,66
 42 105 42 105 56.5 118.5 c 128,-1,67
 71 132 71 132 96 132 c 0,68,69
 125 132 125 132 148 111 c 128,-1,70
 171 90 171 90 199 41 c 1,71,72
 233 3 233 3 271.5 -34.5 c 128,-1,73
 310 -72 310 -72 352 -109 c 1,74,-1
 282 -161 l 1,75,76
 239 -114 239 -114 201 -66 c 128,-1,77
 163 -18 163 -18 131 31 c 2,78,-1
 105 74 l 1,79,80
 130 71 130 71 163 69.5 c 128,-1,81
 196 68 196 68 215 68 c 0,82,83
 258 68 258 68 292 75.5 c 128,-1,84
 326 83 326 83 346 101.5 c 128,-1,85
 366 120 366 120 366 154 c 0,86,87
 366 186 366 186 344 204 c 128,-1,88
 322 222 322 222 271 222 c 0,23,24
EndSplineSet
Substitution2: "'locl' Localized Forms lookup 98 subtable" uni091D.NEP
Substitution2: "'aalt' Access All Alternates lookup 0 subtable" uni091D.NEP
EndChar

StartChar: uni091E
Encoding: 2334 2334 65
Width: 742
GlyphClass: 2
Flags: W
AnchorPoint: "Anchor-10" 297 -6 basechar 0
AnchorPoint: "Anchor-9" 572 -40 basechar 0
AnchorPoint: "Anchor-8" 572 0 basechar 0
AnchorPoint: "Anchor-3" 572 622 basechar 0
AnchorPoint: "Anchor-1" 572 -20 basechar 0
AnchorPoint: "Anchor-0" 612 622 basechar 0
LayerCount: 2
Fore
SplineSet
653 551 m 1,0,-1
 653 0 l 1,1,-1
 572 0 l 1,2,-1
 572 551 l 1,3,-1
 0 551 l 1,4,-1
 0 622 l 1,5,-1
 756 622 l 1,6,-1
 756 551 l 1,7,-1
 653 551 l 1,0,-1
646 290 m 1,8,9
 615 269 615 269 576 257 c 128,-1,10
 537 245 537 245 484 245 c 0,11,12
 472 245 472 245 465.5 246 c 128,-1,13
 459 247 459 247 448 249 c 1,14,-1
 437 326 l 1,15,16
 447 322 447 322 461 318.5 c 128,-1,17
 475 315 475 315 493 315 c 0,18,19
 549 315 549 315 584.5 339 c 128,-1,20
 620 363 620 363 646 391 c 1,21,-1
 646 290 l 1,8,9
192 420 m 1,22,23
 223 434 223 434 255.5 440 c 128,-1,24
 288 446 288 446 315 446 c 0,25,26
 389 446 389 446 438 405 c 128,-1,27
 487 364 487 364 487 287 c 0,28,29
 487 237 487 237 469 204 c 128,-1,30
 451 171 451 171 422.5 152 c 128,-1,31
 394 133 394 133 361.5 125.5 c 128,-1,32
 329 118 329 118 300 118 c 0,33,34
 243 118 243 118 194 141.5 c 128,-1,35
 145 165 145 165 104 213.5 c 128,-1,36
 63 262 63 262 29 338 c 1,37,-1
 98 365 l 1,38,39
 139 272 139 272 183.5 232 c 128,-1,40
 228 192 228 192 294 192 c 0,41,42
 349 192 349 192 380 218 c 128,-1,43
 411 244 411 244 411 287 c 0,44,45
 411 333 411 333 382.5 353 c 128,-1,46
 354 373 354 373 313 373 c 0,47,48
 288 373 288 373 265 366 c 128,-1,49
 242 359 242 359 219 348 c 1,50,-1
 192 420 l 1,22,23
EndSplineSet
EndChar

StartChar: uni091F
Encoding: 2335 2335 66
Width: 504
GlyphClass: 2
Flags: W
AnchorPoint: "Anchor-10" 267 -134 basechar 0
AnchorPoint: "Anchor-9" 372 -40 basechar 0
AnchorPoint: "Anchor-8" 290 0 basechar 0
AnchorPoint: "Anchor-3" 319 622 basechar 0
AnchorPoint: "Anchor-1" 258 -30 basechar 0
AnchorPoint: "Anchor-0" 359 622 basechar 0
LayerCount: 2
Fore
SplineSet
518 551 m 1,0,-1
 400 551 l 1,1,-1
 400 358 l 1,2,-1
 317 358 l 2,3,4
 225 358 225 358 175.5 325 c 128,-1,5
 126 292 126 292 126 217 c 0,6,7
 126 147 126 147 172 110.5 c 128,-1,8
 218 74 218 74 283 74 c 0,9,10
 330 74 330 74 368.5 89 c 128,-1,11
 407 104 407 104 450 135 c 1,12,-1
 484 70 l 1,13,14
 444 37 444 37 395.5 18.5 c 128,-1,15
 347 0 347 0 282 0 c 0,16,17
 213 0 213 0 160 26.5 c 128,-1,18
 107 53 107 53 76.5 102 c 128,-1,19
 46 151 46 151 46 218 c 0,20,21
 46 323 46 323 113.5 375.5 c 128,-1,22
 181 428 181 428 306 428 c 2,23,-1
 348 428 l 1,24,-1
 319 404 l 1,25,-1
 319 551 l 1,26,-1
 0 551 l 1,27,-1
 0 622 l 1,28,-1
 518 622 l 1,29,-1
 518 551 l 1,0,-1
EndSplineSet
Substitution2: "Single Substitution lookup 74 subtable" uni091F.alt
EndChar

StartChar: uni0920
Encoding: 2336 2336 67
Width: 581
GlyphClass: 2
Flags: W
AnchorPoint: "Anchor-10" 292 -134 basechar 0
AnchorPoint: "Anchor-9" 392 -40 basechar 0
AnchorPoint: "Anchor-8" 322 0 basechar 0
AnchorPoint: "Anchor-3" 300 622 basechar 0
AnchorPoint: "Anchor-1" 278 -30 basechar 0
AnchorPoint: "Anchor-0" 340 622 basechar 0
LayerCount: 2
Fore
SplineSet
599 551 m 1,0,-1
 381 551 l 1,1,-1
 381 414 l 1,2,3
 453 384 453 384 496 327.5 c 128,-1,4
 539 271 539 271 539 198 c 0,5,6
 539 128 539 128 506 84.5 c 128,-1,7
 473 41 473 41 418 20.5 c 128,-1,8
 363 0 363 0 297 0 c 0,9,10
 222 0 222 0 165.5 25 c 128,-1,11
 109 50 109 50 77.5 98.5 c 128,-1,12
 46 147 46 147 46 216 c 0,13,14
 46 283 46 283 80.5 328.5 c 128,-1,15
 115 374 115 374 172.5 397 c 128,-1,16
 230 420 230 420 297 420 c 2,17,-1
 304 420 l 1,18,-1
 300 415 l 1,19,-1
 300 551 l 1,20,-1
 0 551 l 1,21,-1
 0 622 l 1,22,-1
 599 622 l 1,23,-1
 599 551 l 1,0,-1
293 72 m 256,24,25
 341 72 341 72 378 85.5 c 128,-1,26
 415 99 415 99 436.5 127.5 c 128,-1,27
 458 156 458 156 458 200 c 0,28,29
 458 248 458 248 430.5 286.5 c 128,-1,30
 403 325 403 325 353 349 c 1,31,-1
 318 349 l 2,32,33
 264 349 264 349 220.5 335 c 128,-1,34
 177 321 177 321 151.5 290.5 c 128,-1,35
 126 260 126 260 126 210 c 0,36,37
 126 164 126 164 148 133 c 128,-1,38
 170 102 170 102 207.5 87 c 128,-1,39
 245 72 245 72 293 72 c 256,24,25
EndSplineSet
Substitution2: "Single Substitution lookup 74 subtable" uni0920.alt
EndChar

StartChar: uni0921
Encoding: 2337 2337 68
Width: 535
GlyphClass: 2
Flags: W
AnchorPoint: "Anchor-10" 275 -134 basechar 0
AnchorPoint: "Anchor-9" 373 -40 basechar 0
AnchorPoint: "Anchor-8" 283 0 basechar 0
AnchorPoint: "Anchor-3" 365 622 basechar 0
AnchorPoint: "Anchor-1" 241 -30 basechar 0
AnchorPoint: "Anchor-0" 405 622 basechar 0
LayerCount: 2
Fore
SplineSet
315 222 m 0,0,1
 285 222 285 222 255 216 c 128,-1,2
 225 210 225 210 201 199 c 1,3,4
 159 226 159 226 125.5 262.5 c 128,-1,5
 92 299 92 299 92 348 c 0,6,7
 92 406 92 406 130 435 c 128,-1,8
 168 464 168 464 247 464 c 2,9,-1
 365 464 l 1,10,-1
 365 551 l 1,11,-1
 -10 551 l 1,12,-1
 -10 622 l 1,13,-1
 545 622 l 1,14,-1
 545 551 l 1,15,-1
 446 551 l 1,16,-1
 446 394 l 1,17,-1
 248 394 l 2,18,19
 208 394 208 394 190 381 c 128,-1,20
 172 368 172 368 172 342 c 0,21,22
 172 323 172 323 184.5 305.5 c 128,-1,23
 197 288 197 288 214 276 c 1,24,25
 238 284 238 284 266 289 c 128,-1,26
 294 294 294 294 323 294 c 0,27,28
 404 294 404 294 446.5 256.5 c 128,-1,29
 489 219 489 219 489 154 c 0,30,31
 489 110 489 110 468.5 75 c 128,-1,32
 448 40 448 40 405 20 c 128,-1,33
 362 0 362 0 294 0 c 0,34,35
 208 0 208 0 140.5 33.5 c 128,-1,36
 73 67 73 67 20 119 c 1,37,-1
 70 185 l 1,38,39
 123 130 123 130 177 102 c 128,-1,40
 231 74 231 74 292 74 c 0,41,42
 351 74 351 74 379.5 94 c 128,-1,43
 408 114 408 114 408 151 c 0,44,45
 408 184 408 184 386.5 203 c 128,-1,46
 365 222 365 222 315 222 c 0,0,1
EndSplineSet
Substitution2: "Single Substitution lookup 74 subtable" uni0921.alt
EndChar

StartChar: uni0922
Encoding: 2338 2338 69
Width: 563
GlyphClass: 2
Flags: W
AnchorPoint: "Anchor-10" 288 -134 basechar 0
AnchorPoint: "Anchor-9" 395 -40 basechar 0
AnchorPoint: "Anchor-8" 305 0 basechar 0
AnchorPoint: "Anchor-3" 350 622 basechar 0
AnchorPoint: "Anchor-1" 268 -30 basechar 0
AnchorPoint: "Anchor-0" 390 622 basechar 0
LayerCount: 2
Fore
SplineSet
307 0 m 0,0,1
 230 0 230 0 171 28 c 128,-1,2
 112 56 112 56 79 108 c 128,-1,3
 46 160 46 160 46 232 c 0,4,5
 46 338 46 338 115 394.5 c 128,-1,6
 184 451 184 451 324 451 c 2,7,-1
 375 451 l 1,8,-1
 360 420 l 1,9,-1
 360 551 l 1,10,-1
 0 551 l 1,11,-1
 0 622 l 1,12,-1
 577 622 l 1,13,-1
 577 551 l 1,14,-1
 440 551 l 1,15,-1
 440 381 l 1,16,-1
 340 381 l 2,17,18
 240 381 240 381 183 346.5 c 128,-1,19
 126 312 126 312 126 228 c 0,20,21
 126 163 126 163 164.5 121.5 c 128,-1,22
 203 80 203 80 276 69 c 0,23,24
 284 68 284 68 298 68.5 c 128,-1,25
 312 69 312 69 320 69 c 0,26,27
 377 69 377 69 412.5 92 c 128,-1,28
 448 115 448 115 448 156 c 0,29,30
 448 185 448 185 431.5 202 c 128,-1,31
 415 219 415 219 383 219 c 0,32,33
 349 219 349 219 330 200 c 128,-1,34
 311 181 311 181 311 146 c 0,35,36
 311 118 311 118 322 91.5 c 128,-1,37
 333 65 333 65 355 36 c 1,38,-1
 287 29 l 1,39,40
 263 62 263 62 251 93 c 128,-1,41
 239 124 239 124 239 157 c 0,42,43
 239 216 239 216 276.5 251 c 128,-1,44
 314 286 314 286 384 286 c 0,45,46
 432 286 432 286 462.5 268 c 128,-1,47
 493 250 493 250 508 220 c 128,-1,48
 523 190 523 190 523 155 c 0,49,50
 523 86 523 86 465.5 43 c 128,-1,51
 408 0 408 0 307 0 c 0,0,1
EndSplineSet
Substitution2: "Single Substitution lookup 74 subtable" uni0922.alt
EndChar

StartChar: uni0923
Encoding: 2339 2339 70
Width: 723
GlyphClass: 2
Flags: W
AnchorPoint: "Anchor-10" 252 11 basechar 0
AnchorPoint: "Anchor-9" 553 -40 basechar 0
AnchorPoint: "Anchor-8" 553 0 basechar 0
AnchorPoint: "Anchor-3" 553 622 basechar 0
AnchorPoint: "Anchor-1" 553 -20 basechar 0
AnchorPoint: "Anchor-0" 593 622 basechar 0
LayerCount: 2
Fore
SplineSet
634 551 m 1,0,-1
 634 0 l 1,1,-1
 553 0 l 1,2,-1
 553 551 l 1,3,-1
 420 551 l 1,4,-1
 420 321 l 2,5,6
 420 293 420 293 416 271 c 128,-1,7
 412 249 412 249 404.5 231 c 128,-1,8
 397 213 397 213 385 198 c 0,9,10
 364 173 364 173 331 159.5 c 128,-1,11
 298 146 298 146 251 146 c 256,12,13
 204 146 204 146 170 161 c 128,-1,14
 136 176 136 176 114 205 c 0,15,16
 97 228 97 228 88 263 c 128,-1,17
 79 298 79 298 79 352 c 2,18,-1
 79 551 l 1,19,-1
 0 551 l 1,20,-1
 0 622 l 1,21,-1
 737 622 l 1,22,-1
 737 551 l 1,23,-1
 634 551 l 1,0,-1
249 217 m 0,24,25
 301 217 301 217 321 249 c 0,26,27
 332 266 332 266 335.5 288 c 128,-1,28
 339 310 339 310 339 353 c 2,29,-1
 339 551 l 1,30,-1
 160 551 l 1,31,-1
 160 353 l 2,32,33
 160 314 160 314 164 291 c 128,-1,34
 168 268 168 268 178 251 c 0,35,36
 189 235 189 235 205.5 226 c 128,-1,37
 222 217 222 217 249 217 c 0,24,25
EndSplineSet
EndChar

StartChar: uni0924
Encoding: 2340 2340 71
Width: 570
GlyphClass: 2
Flags: W
AnchorPoint: "Anchor-10" 188 -119 basechar 0
AnchorPoint: "Anchor-9" 400 -40 basechar 0
AnchorPoint: "Anchor-8" 400 0 basechar 0
AnchorPoint: "Anchor-3" 400 622 basechar 0
AnchorPoint: "Anchor-1" 400 -20 basechar 0
AnchorPoint: "Anchor-0" 440 622 basechar 0
LayerCount: 2
Fore
SplineSet
481 551 m 1,0,-1
 481 0 l 1,1,-1
 400 0 l 1,2,-1
 400 328 l 1,3,-1
 261 328 l 2,4,5
 198 328 198 328 162 306 c 128,-1,6
 126 284 126 284 126 231 c 0,7,8
 126 182 126 182 157 138 c 128,-1,9
 188 94 188 94 248 37 c 1,10,-1
 191 -14 l 1,11,12
 121 54 121 54 83 114 c 128,-1,13
 45 174 45 174 45 241 c 0,14,15
 45 322 45 322 100 360.5 c 128,-1,16
 155 399 155 399 247 399 c 2,17,-1
 400 399 l 1,18,-1
 400 551 l 1,19,-1
 0 551 l 1,20,-1
 0 622 l 1,21,-1
 584 622 l 1,22,-1
 584 551 l 1,23,-1
 481 551 l 1,0,-1
EndSplineSet
EndChar

StartChar: uni0925
Encoding: 2341 2341 72
Width: 639
GlyphClass: 2
Flags: W
AnchorPoint: "Anchor-10" 194 21 basechar 0
AnchorPoint: "Anchor-9" 469 -40 basechar 0
AnchorPoint: "Anchor-8" 469 0 basechar 0
AnchorPoint: "Anchor-3" 469 622 basechar 0
AnchorPoint: "Anchor-1" 469 -20 basechar 0
AnchorPoint: "Anchor-0" 509 622 basechar 0
LayerCount: 2
Fore
SplineSet
469 210 m 1,0,-1
 486 181 l 1,1,2
 459 155 459 155 414.5 137.5 c 128,-1,3
 370 120 370 120 312 120 c 0,4,5
 249 120 249 120 199.5 142 c 128,-1,6
 150 164 150 164 114.5 210.5 c 128,-1,7
 79 257 79 257 58 329 c 1,8,9
 142 341 142 341 188.5 362 c 128,-1,10
 235 383 235 383 253.5 412.5 c 128,-1,11
 272 442 272 442 272 479 c 0,12,13
 272 520 272 520 252.5 543.5 c 128,-1,14
 233 567 233 567 198 567 c 0,15,16
 170 567 170 567 154 552.5 c 128,-1,17
 138 538 138 538 138 513 c 0,18,19
 138 490 138 490 155.5 474 c 128,-1,20
 173 458 173 458 203 447 c 1,21,-1
 169 391 l 1,22,23
 111 409 111 409 85 441.5 c 128,-1,24
 59 474 59 474 59 515 c 0,25,26
 59 568 59 568 94.5 600 c 128,-1,27
 130 632 130 632 196 632 c 0,28,29
 271 632 271 632 312 589.5 c 128,-1,30
 353 547 353 547 353 476 c 0,31,32
 353 397 353 397 299.5 345 c 128,-1,33
 246 293 246 293 135 269 c 1,34,-1
 153 304 l 1,35,36
 179 243 179 243 215.5 217 c 128,-1,37
 252 191 252 191 307 191 c 0,38,39
 345 191 345 191 378.5 203 c 128,-1,40
 412 215 412 215 439.5 237 c 128,-1,41
 467 259 467 259 486 287 c 1,42,-1
 469 233 l 1,43,-1
 469 551 l 1,44,-1
 394 551 l 1,45,-1
 394 622 l 1,46,-1
 653 622 l 1,47,-1
 653 551 l 1,48,-1
 550 551 l 1,49,-1
 550 0 l 1,50,-1
 469 0 l 1,51,-1
 469 210 l 1,0,-1
EndSplineSet
EndChar

StartChar: uni0926
Encoding: 2342 2342 73
Width: 531
GlyphClass: 2
Flags: W
AnchorPoint: "Anchor-10" 142 -25 basechar 0
AnchorPoint: "Anchor-9" 392 -98 basechar 0
AnchorPoint: "Anchor-8" 384 -40 basechar 0
AnchorPoint: "Anchor-3" 354 622 basechar 0
AnchorPoint: "Anchor-1" 278 -65 basechar 0
AnchorPoint: "Anchor-0" 394 622 basechar 0
LayerCount: 2
Fore
SplineSet
414 -64 m 1,0,1
 392 -22 392 -22 376 20.5 c 128,-1,2
 360 63 360 63 350 97 c 2,3,-1
 337 133 l 2,4,5
 330 150 330 150 327 165 c 128,-1,6
 324 180 324 180 324 195 c 0,7,8
 324 224 324 224 342 241 c 128,-1,9
 360 258 360 258 392 258 c 0,10,11
 429 258 429 258 453 234 c 128,-1,12
 477 210 477 210 477 179 c 0,13,14
 477 152 477 152 460.5 131 c 128,-1,15
 444 110 444 110 412 96 c 1,16,-1
 395 92 l 2,17,18
 371 84 371 84 349 79.5 c 128,-1,19
 327 75 327 75 293 75 c 0,20,21
 249 75 249 75 206 86 c 128,-1,22
 163 97 163 97 128.5 121 c 128,-1,23
 94 145 94 145 73.5 183 c 128,-1,24
 53 221 53 221 53 275 c 0,25,26
 53 366 53 366 115.5 410.5 c 128,-1,27
 178 455 178 455 299 455 c 2,28,-1
 370 455 l 1,29,-1
 354 420 l 1,30,-1
 354 551 l 1,31,-1
 0 551 l 1,32,-1
 0 622 l 1,33,-1
 541 622 l 1,34,-1
 541 551 l 1,35,-1
 435 551 l 1,36,-1
 435 385 l 1,37,-1
 311 385 l 2,38,39
 223 385 223 385 178.5 357.5 c 128,-1,40
 134 330 134 330 134 271 c 256,41,42
 134 212 134 212 177 180 c 128,-1,43
 220 148 220 148 292 148 c 0,44,45
 309 148 309 148 329.5 151 c 128,-1,46
 350 154 350 154 372 164 c 1,47,-1
 417 112 l 1,48,49
 431 78 431 78 448 45 c 128,-1,50
 465 12 465 12 490 -30 c 1,51,-1
 414 -64 l 1,0,1
EndSplineSet
EndChar

StartChar: uni0927
Encoding: 2343 2343 74
Width: 615
GlyphClass: 2
Flags: W
AnchorPoint: "Anchor-10" 192 11 basechar 0
AnchorPoint: "Anchor-9" 445 -40 basechar 0
AnchorPoint: "Anchor-8" 445 0 basechar 0
AnchorPoint: "Anchor-3" 445 622 basechar 0
AnchorPoint: "Anchor-1" 445 -20 basechar 0
AnchorPoint: "Anchor-0" 485 622 basechar 0
LayerCount: 2
Fore
SplineSet
629 551 m 1,0,-1
 526 551 l 1,1,-1
 526 0 l 1,2,-1
 445 0 l 1,3,-1
 445 185 l 1,4,-1
 463 160 l 1,5,6
 439 135 439 135 397 118.5 c 128,-1,7
 355 102 355 102 296 102 c 0,8,9
 236 102 236 102 191.5 121 c 128,-1,10
 147 140 147 140 122.5 174 c 128,-1,11
 98 208 98 208 98 253 c 0,12,13
 98 285 98 285 113.5 315.5 c 128,-1,14
 129 346 129 346 166 365 c 0,15,16
 168 367 168 367 171.5 368.5 c 128,-1,17
 175 370 175 370 179 372 c 0,18,19
 201 385 201 385 227 389 c 128,-1,20
 253 393 253 393 281 393 c 0,21,22
 295 393 295 393 309.5 391.5 c 128,-1,23
 324 390 324 390 335 388 c 1,24,-1
 327 318 l 1,25,26
 317 320 317 320 307 320.5 c 128,-1,27
 297 321 297 321 283 321 c 0,28,29
 249 321 249 321 225.5 313 c 128,-1,30
 202 305 202 305 190 289 c 128,-1,31
 178 273 178 273 178 249 c 0,32,33
 178 211 178 211 211 191.5 c 128,-1,34
 244 172 244 172 295 172 c 0,35,36
 348 172 348 172 391 196.5 c 128,-1,37
 434 221 434 221 459 260 c 1,38,-1
 445 208 l 1,39,-1
 445 551 l 1,40,-1
 383 551 l 1,41,-1
 383 622 l 1,42,-1
 629 622 l 1,43,-1
 629 551 l 1,0,-1
172 331 m 1,44,45
 138 347 138 347 110 370.5 c 128,-1,46
 82 394 82 394 66 425.5 c 128,-1,47
 50 457 50 457 50 496 c 0,48,49
 50 560 50 560 90 596 c 128,-1,50
 130 632 130 632 199 632 c 0,51,52
 244 632 244 632 273 617 c 128,-1,53
 302 602 302 602 315.5 577 c 128,-1,54
 329 552 329 552 329 521 c 0,55,56
 329 495 329 495 318.5 472 c 128,-1,57
 308 449 308 449 285 428 c 1,58,-1
 225 464 l 1,59,60
 239 478 239 478 245.5 492 c 128,-1,61
 252 506 252 506 252 520 c 0,62,63
 252 543 252 543 238.5 555.5 c 128,-1,64
 225 568 225 568 199 568 c 0,65,66
 167 568 167 568 147.5 547 c 128,-1,67
 128 526 128 526 128 490 c 0,68,69
 128 452 128 452 151 425 c 128,-1,70
 174 398 174 398 217 378 c 1,71,-1
 172 331 l 1,44,45
EndSplineSet
EndChar

StartChar: uni0928
Encoding: 2344 2344 75
Width: 555
GlyphClass: 2
Flags: W
AnchorPoint: "Anchor-10" 152 31 basechar 0
AnchorPoint: "Anchor-9" 385 -40 basechar 0
AnchorPoint: "Anchor-8" 385 0 basechar 0
AnchorPoint: "Anchor-3" 385 622 basechar 0
AnchorPoint: "Anchor-1" 385 -20 basechar 0
AnchorPoint: "Anchor-0" 425 622 basechar 0
LayerCount: 2
Fore
SplineSet
0 622 m 1,0,-1
 569 622 l 1,1,-1
 569 551 l 1,2,-1
 466 551 l 1,3,-1
 466 0 l 1,4,-1
 385 0 l 1,5,-1
 385 298 l 1,6,-1
 204 298 l 1,7,-1
 204 244 l 2,8,9
 204 216 204 216 190 202 c 128,-1,10
 176 188 176 188 153 188 c 0,11,12
 135 188 135 188 114.5 200 c 128,-1,13
 94 212 94 212 76.5 232 c 128,-1,14
 59 252 59 252 48 274.5 c 128,-1,15
 37 297 37 297 37 318 c 0,16,17
 37 341 37 341 50.5 355 c 128,-1,18
 64 369 64 369 98 369 c 2,19,-1
 385 369 l 1,20,-1
 385 551 l 1,21,-1
 0 551 l 1,22,-1
 0 622 l 1,0,-1
EndSplineSet
EndChar

StartChar: uni092A
Encoding: 2346 2346 76
Width: 568
GlyphClass: 2
Flags: W
AnchorPoint: "Anchor-10" 166 22 basechar 0
AnchorPoint: "Anchor-9" 398 -40 basechar 0
AnchorPoint: "Anchor-8" 398 0 basechar 0
AnchorPoint: "Anchor-3" 398 622 basechar 0
AnchorPoint: "Anchor-1" 398 -20 basechar 0
AnchorPoint: "Anchor-0" 438 622 basechar 0
LayerCount: 2
Fore
SplineSet
479 551 m 1,0,-1
 479 0 l 1,1,-1
 398 0 l 1,2,-1
 398 244 l 1,3,-1
 417 217 l 1,4,5
 392 193 392 193 352.5 177 c 128,-1,6
 313 161 313 161 266 161 c 0,7,8
 207 161 207 161 165 183 c 128,-1,9
 123 205 123 205 101 249.5 c 128,-1,10
 79 294 79 294 79 360 c 2,11,-1
 79 551 l 1,12,-1
 0 551 l 1,13,-1
 0 622 l 1,14,-1
 583 622 l 1,15,-1
 583 551 l 1,16,-1
 479 551 l 1,0,-1
398 551 m 1,17,-1
 160 551 l 1,18,-1
 160 357 l 2,19,20
 160 314 160 314 172 286.5 c 128,-1,21
 184 259 184 259 207.5 245.5 c 128,-1,22
 231 232 231 232 264 232 c 0,23,24
 308 232 308 232 348.5 256.5 c 128,-1,25
 389 281 389 281 414 315 c 1,26,-1
 398 263 l 1,27,-1
 398 551 l 1,17,-1
EndSplineSet
EndChar

StartChar: uni092B
Encoding: 2347 2347 77
Width: 771
GlyphClass: 2
Flags: W
AnchorPoint: "Anchor-10" 166 22 basechar 0
AnchorPoint: "Anchor-9" 514 -40 basechar 0
AnchorPoint: "Anchor-8" 379 0 basechar 0
AnchorPoint: "Anchor-3" 379 622 basechar 0
AnchorPoint: "Anchor-1" 379 -20 basechar 0
AnchorPoint: "Anchor-0" 419 622 basechar 0
LayerCount: 2
Fore
SplineSet
460 551 m 1,0,-1
 460 313 l 1,1,-1
 442 341 l 1,2,3
 470 370 470 370 502.5 384.5 c 128,-1,4
 535 399 535 399 575 399 c 0,5,6
 646 399 646 399 687 357.5 c 128,-1,7
 728 316 728 316 728 239 c 0,8,9
 728 186 728 186 707.5 138 c 128,-1,10
 687 90 687 90 643 41 c 1,11,-1
 574 85 l 1,12,13
 607 120 607 120 627.5 158.5 c 128,-1,14
 648 197 648 197 648 239 c 0,15,16
 648 284 648 284 627.5 307 c 128,-1,17
 607 330 607 330 571 330 c 0,18,19
 534 330 534 330 505 310 c 128,-1,20
 476 290 476 290 454 257 c 1,21,-1
 460 293 l 1,22,-1
 460 0 l 1,23,-1
 379 0 l 1,24,-1
 379 238 l 1,25,-1
 395 215 l 1,26,27
 371 190 371 190 334 175 c 128,-1,28
 297 160 297 160 253 160 c 0,29,30
 191 160 191 160 152.5 184 c 128,-1,31
 114 208 114 208 96.5 252.5 c 128,-1,32
 79 297 79 297 79 360 c 2,33,-1
 79 551 l 1,34,-1
 0 551 l 1,35,-1
 0 622 l 1,36,-1
 786 622 l 1,37,-1
 786 551 l 1,38,-1
 460 551 l 1,0,-1
160 551 m 1,39,-1
 160 362 l 2,40,41
 160 312 160 312 171 283.5 c 128,-1,42
 182 255 182 255 203.5 243 c 128,-1,43
 225 231 225 231 256 231 c 0,44,45
 295 231 295 231 332.5 253 c 128,-1,46
 370 275 370 275 397 306 c 1,47,-1
 379 252 l 1,48,-1
 379 551 l 1,49,-1
 160 551 l 1,39,-1
EndSplineSet
EndChar

StartChar: uni092C
Encoding: 2348 2348 78
Width: 571
GlyphClass: 2
Flags: W
AnchorPoint: "Anchor-10" 142 11 basechar 0
AnchorPoint: "Anchor-9" 401 -40 basechar 0
AnchorPoint: "Anchor-8" 401 0 basechar 0
AnchorPoint: "Anchor-3" 401 622 basechar 0
AnchorPoint: "Anchor-1" 401 -20 basechar 0
AnchorPoint: "Anchor-0" 441 622 basechar 0
LayerCount: 2
Fore
SplineSet
585 551 m 1,0,-1
 482 551 l 1,1,-1
 482 0 l 1,2,-1
 401 0 l 1,3,-1
 401 197 l 1,4,-1
 426 172 l 1,5,6
 392 143 392 143 350 128 c 128,-1,7
 308 113 308 113 250 113 c 0,8,9
 156 113 156 113 101 161 c 128,-1,10
 46 209 46 209 46 288 c 0,11,12
 46 380 46 380 107 424 c 128,-1,13
 168 468 168 468 264 468 c 0,14,15
 294 468 294 468 319 465.5 c 128,-1,16
 344 463 344 463 366 458 c 1,17,-1
 360 389 l 1,18,19
 338 394 338 394 315.5 396.5 c 128,-1,20
 293 399 293 399 270 399 c 0,21,22
 203 399 203 399 165 372 c 128,-1,23
 127 345 127 345 127 288 c 0,24,25
 127 234 127 234 162 207.5 c 128,-1,26
 197 181 197 181 253 181 c 0,27,28
 288 181 288 181 318.5 192 c 128,-1,29
 349 203 349 203 373.5 221.5 c 128,-1,30
 398 240 398 240 414 260 c 1,31,-1
 401 216 l 1,32,-1
 401 551 l 1,33,-1
 0 551 l 1,34,-1
 0 622 l 1,35,-1
 585 622 l 1,36,-1
 585 551 l 1,0,-1
205 424 m 1,37,-1
 377 205 l 1,38,-1
 331 163 l 1,39,-1
 143 401 l 1,40,-1
 205 424 l 1,37,-1
EndSplineSet
EndChar

StartChar: uni092D
Encoding: 2349 2349 79
Width: 703
GlyphClass: 2
Flags: W
AnchorPoint: "Anchor-10" 272 21 basechar 0
AnchorPoint: "Anchor-9" 533 -40 basechar 0
AnchorPoint: "Anchor-8" 533 0 basechar 0
AnchorPoint: "Anchor-3" 533 622 basechar 0
AnchorPoint: "Anchor-1" 533 -20 basechar 0
AnchorPoint: "Anchor-0" 573 622 basechar 0
LayerCount: 2
Fore
SplineSet
177 632 m 0,0,1
 235 632 235 632 269 610 c 128,-1,2
 303 588 303 588 317.5 549.5 c 128,-1,3
 332 511 332 511 332 463 c 2,4,-1
 332 321 l 1,5,-1
 533 321 l 1,6,-1
 533 551 l 1,7,-1
 402 551 l 1,8,-1
 402 622 l 1,9,-1
 717 622 l 1,10,-1
 717 551 l 1,11,-1
 614 551 l 1,12,-1
 614 0 l 1,13,-1
 533 0 l 1,14,-1
 533 250 l 1,15,-1
 332 250 l 1,16,-1
 332 213 l 2,17,18
 332 180 332 180 317.5 165.5 c 128,-1,19
 303 151 303 151 283 151 c 0,20,21
 264 151 264 151 243 163.5 c 128,-1,22
 222 176 222 176 204 195.5 c 128,-1,23
 186 215 186 215 175 237 c 128,-1,24
 164 259 164 259 164 278 c 0,25,26
 164 290 164 290 170 300 c 128,-1,27
 176 310 176 310 189 315.5 c 128,-1,28
 202 321 202 321 224 321 c 2,29,-1
 253 321 l 1,30,-1
 253 453 l 2,31,32
 253 509 253 509 236.5 538 c 128,-1,33
 220 567 220 567 180 567 c 0,34,35
 152 567 152 567 137 552.5 c 128,-1,36
 122 538 122 538 122 515 c 0,37,38
 122 487 122 487 143.5 471.5 c 128,-1,39
 165 456 165 456 209 451 c 1,40,-1
 201 386 l 1,41,42
 134 391 134 391 90 424.5 c 128,-1,43
 46 458 46 458 46 517 c 0,44,45
 46 574 46 574 83 603 c 128,-1,46
 120 632 120 632 177 632 c 0,0,1
EndSplineSet
EndChar

StartChar: uni092E
Encoding: 2350 2350 80
Width: 598
GlyphClass: 2
Flags: W
AnchorPoint: "Anchor-10" 152 21 basechar 0
AnchorPoint: "Anchor-9" 428 -40 basechar 0
AnchorPoint: "Anchor-8" 428 0 basechar 0
AnchorPoint: "Anchor-3" 428 622 basechar 0
AnchorPoint: "Anchor-1" 428 -20 basechar 0
AnchorPoint: "Anchor-0" 468 622 basechar 0
LayerCount: 2
Fore
SplineSet
509 551 m 1,0,-1
 509 0 l 1,1,-1
 428 0 l 1,2,-1
 428 250 l 1,3,-1
 207 250 l 1,4,-1
 207 213 l 2,5,6
 207 180 207 180 192.5 165.5 c 128,-1,7
 178 151 178 151 159 151 c 256,8,9
 140 151 140 151 119 163.5 c 128,-1,10
 98 176 98 176 80 195.5 c 128,-1,11
 62 215 62 215 50.5 237 c 128,-1,12
 39 259 39 259 39 278 c 0,13,14
 39 296 39 296 52.5 308.5 c 128,-1,15
 66 321 66 321 100 321 c 2,16,-1
 126 321 l 1,17,-1
 126 551 l 1,18,-1
 0 551 l 1,19,-1
 0 622 l 1,20,-1
 612 622 l 1,21,-1
 612 551 l 1,22,-1
 509 551 l 1,0,-1
428 551 m 1,23,-1
 207 551 l 1,24,-1
 207 321 l 1,25,-1
 428 321 l 1,26,-1
 428 551 l 1,23,-1
EndSplineSet
EndChar

StartChar: uni092F
Encoding: 2351 2351 81
Width: 580
GlyphClass: 2
Flags: W
AnchorPoint: "Anchor-10" 132 21 basechar 0
AnchorPoint: "Anchor-9" 410 -40 basechar 0
AnchorPoint: "Anchor-8" 410 0 basechar 0
AnchorPoint: "Anchor-3" 410 622 basechar 0
AnchorPoint: "Anchor-1" 410 -20 basechar 0
AnchorPoint: "Anchor-0" 450 622 basechar 0
LayerCount: 2
Fore
SplineSet
594 622 m 1,0,-1
 594 551 l 1,1,-1
 491 551 l 1,2,-1
 491 0 l 1,3,-1
 410 0 l 1,4,-1
 410 216 l 1,5,-1
 433 191 l 1,6,7
 404 166 404 166 365.5 149 c 128,-1,8
 327 132 327 132 270 132 c 0,9,10
 173 132 173 132 116 188 c 128,-1,11
 59 244 59 244 33 358 c 1,12,13
 110 372 110 372 144 395.5 c 128,-1,14
 178 419 178 419 178 459 c 0,15,16
 178 491 178 491 161 519 c 128,-1,17
 144 547 144 547 116 566 c 1,18,-1
 159 551 l 1,19,-1
 0 551 l 1,20,-1
 0 622 l 1,21,-1
 594 622 l 1,0,-1
175 551 m 1,22,-1
 203 572 l 1,23,24
 231 544 231 544 244.5 513 c 128,-1,25
 258 482 258 482 258 450 c 0,26,27
 258 397 258 397 228 362.5 c 128,-1,28
 198 328 198 328 133 307 c 1,29,30
 151 255 151 255 182.5 229 c 128,-1,31
 214 203 214 203 269 203 c 0,32,33
 322 203 322 203 360 229.5 c 128,-1,34
 398 256 398 256 425 290 c 1,35,-1
 410 239 l 1,36,-1
 410 551 l 1,37,-1
 175 551 l 1,22,-1
EndSplineSet
EndChar

StartChar: uni0930
Encoding: 2352 2352 82
Width: 409
GlyphClass: 2
Flags: W
AnchorPoint: "Anchor-10" 122 21 basechar 0
AnchorPoint: "Anchor-9" 309 -40 basechar 0
AnchorPoint: "Anchor-3" 229 622 basechar 0
AnchorPoint: "Anchor-0" 264 622 basechar 0
LayerCount: 2
Fore
SplineSet
284 551 m 1,0,-1
 316 566 l 1,1,2
 327 541 327 541 331.5 515.5 c 128,-1,3
 336 490 336 490 336 458 c 0,4,5
 336 403 336 403 313.5 363.5 c 128,-1,6
 291 324 291 324 250.5 295.5 c 128,-1,7
 210 267 210 267 156 245 c 1,8,-1
 158 255 l 1,9,10
 186 222 186 222 221.5 185.5 c 128,-1,11
 257 149 257 149 296.5 113 c 128,-1,12
 336 77 336 77 377 42 c 1,13,-1
 319 -12 l 1,14,15
 240 59 240 59 183.5 119 c 128,-1,16
 127 179 127 179 88 234 c 0,17,18
 63 269 63 269 52.5 295 c 128,-1,19
 42 321 42 321 42 343 c 0,20,21
 42 366 42 366 56 380 c 128,-1,22
 70 394 70 394 95 394 c 0,23,24
 122 394 122 394 147 375 c 128,-1,25
 172 356 172 356 197 323 c 1,26,-1
 147 335 l 1,27,28
 204 354 204 354 230 387.5 c 128,-1,29
 256 421 256 421 256 468 c 0,30,31
 256 497 256 497 248.5 525.5 c 128,-1,32
 241 554 241 554 230 565 c 1,33,-1
 275 551 l 1,34,-1
 0 551 l 1,35,-1
 0 622 l 1,36,-1
 424 622 l 1,37,-1
 424 551 l 1,38,-1
 284 551 l 1,0,-1
EndSplineSet
Substitution2: "Single Substitution lookup 175 subtable" uni0961
Substitution2: "Single Substitution lookup 174 subtable" uni090C
Substitution2: "Single Substitution lookup 173 subtable" uni0960
Substitution2: "Single Substitution lookup 172 subtable" uni090B
EndChar

StartChar: uni0932
Encoding: 2354 2354 83
Width: 678
GlyphClass: 2
Flags: W
AnchorPoint: "Anchor-10" 198 -119 basechar 0
AnchorPoint: "Anchor-9" 508 -40 basechar 0
AnchorPoint: "Anchor-8" 508 0 basechar 0
AnchorPoint: "Anchor-3" 508 622 basechar 0
AnchorPoint: "Anchor-1" 508 -20 basechar 0
AnchorPoint: "Anchor-0" 548 622 basechar 0
LayerCount: 2
Fore
SplineSet
0 551 m 1,0,-1
 0 622 l 1,1,-1
 692 622 l 1,2,-1
 692 551 l 1,3,-1
 589 551 l 1,4,-1
 589 0 l 1,5,-1
 508 0 l 1,6,-1
 508 379 l 1,7,-1
 552 347 l 1,8,9
 536 354 536 354 522 356 c 128,-1,10
 508 358 508 358 496 358 c 0,11,12
 462 358 462 358 435 342.5 c 128,-1,13
 408 327 408 327 389.5 291 c 128,-1,14
 371 255 371 255 360 193 c 1,15,-1
 280 217 l 1,16,17
 294 322 294 322 349.5 375 c 128,-1,18
 405 428 405 428 496 428 c 0,19,20
 516 428 516 428 533 425 c 128,-1,21
 550 422 550 422 562 418 c 1,22,-1
 565 396 l 1,23,-1
 508 415 l 1,24,-1
 508 551 l 1,25,-1
 0 551 l 1,0,-1
332 304 m 1,26,27
 315 328 315 328 289 343 c 128,-1,28
 263 358 263 358 227 358 c 0,29,30
 180 358 180 358 153 329.5 c 128,-1,31
 126 301 126 301 126 254 c 0,32,33
 126 197 126 197 168 149 c 128,-1,34
 210 101 210 101 302 48 c 1,35,-1
 255 -14 l 1,36,37
 157 44 157 44 101 110.5 c 128,-1,38
 45 177 45 177 45 262 c 0,39,40
 45 345 45 345 94 387.5 c 128,-1,41
 143 430 143 430 219 430 c 0,42,43
 269 430 269 430 306 411.5 c 128,-1,44
 343 393 343 393 370 363 c 1,45,-1
 332 304 l 1,26,27
EndSplineSet
Substitution2: "'locl' Localized Forms lookup 97 subtable" uni0932.MAR
Substitution2: "'aalt' Access All Alternates lookup 0 subtable" uni0932.MAR
EndChar

StartChar: uni0935
Encoding: 2357 2357 84
Width: 556
GlyphClass: 2
Flags: W
AnchorPoint: "Anchor-10" 142 11 basechar 0
AnchorPoint: "Anchor-9" 387 -40 basechar 0
AnchorPoint: "Anchor-8" 387 0 basechar 0
AnchorPoint: "Anchor-3" 386 622 basechar 0
AnchorPoint: "Anchor-1" 387 -20 basechar 0
AnchorPoint: "Anchor-0" 426 622 basechar 0
LayerCount: 2
Fore
SplineSet
570 551 m 1,0,-1
 467 551 l 1,1,-1
 467 0 l 1,2,-1
 387 0 l 1,3,-1
 387 198 l 1,4,-1
 414 182 l 1,5,6
 384 149 384 149 340 132 c 128,-1,7
 296 115 296 115 241 115 c 256,8,9
 186 115 186 115 142 135.5 c 128,-1,10
 98 156 98 156 72 195 c 128,-1,11
 46 234 46 234 46 289 c 0,12,13
 46 378 46 378 104 421 c 128,-1,14
 162 464 162 464 253 464 c 0,15,16
 281 464 281 464 305.5 461 c 128,-1,17
 330 458 330 458 351 453 c 1,18,-1
 346 381 l 1,19,20
 325 386 325 386 303.5 388.5 c 128,-1,21
 282 391 282 391 256 391 c 0,22,23
 200 391 200 391 163.5 364.5 c 128,-1,24
 127 338 127 338 127 287 c 0,25,26
 127 242 127 242 156 214.5 c 128,-1,27
 185 187 185 187 241 187 c 0,28,29
 290 187 290 187 330.5 209.5 c 128,-1,30
 371 232 371 232 397 269 c 1,31,-1
 387 220 l 1,32,-1
 387 551 l 1,33,-1
 0 551 l 1,34,-1
 0 622 l 1,35,-1
 570 622 l 1,36,-1
 570 551 l 1,0,-1
EndSplineSet
EndChar

StartChar: uni0936
Encoding: 2358 2358 85
Width: 680
GlyphClass: 2
Flags: W
AnchorPoint: "Anchor-10" 112 21 basechar 0
AnchorPoint: "Anchor-9" 510 -40 basechar 0
AnchorPoint: "Anchor-8" 510 0 basechar 0
AnchorPoint: "Anchor-3" 510 622 basechar 0
AnchorPoint: "Anchor-1" 510 -20 basechar 0
AnchorPoint: "Anchor-0" 550 622 basechar 0
LayerCount: 2
Fore
SplineSet
591 551 m 1,0,-1
 591 0 l 1,1,-1
 510 0 l 1,2,-1
 510 551 l 1,3,-1
 421 551 l 1,4,-1
 421 622 l 1,5,-1
 694 622 l 1,6,-1
 694 551 l 1,7,-1
 591 551 l 1,0,-1
129 173 m 0,8,9
 84 173 84 173 56 194 c 128,-1,10
 28 215 28 215 28 249 c 0,11,12
 28 278 28 278 46.5 293.5 c 128,-1,13
 65 309 65 309 94 309 c 0,14,15
 122 309 122 309 144 295.5 c 128,-1,16
 166 282 166 282 191 251 c 1,17,-1
 202 230 l 1,18,19
 250 187 250 187 292.5 137.5 c 128,-1,20
 335 88 335 88 372 38 c 1,21,-1
 303 -6 l 1,22,23
 251 66 251 66 210.5 117 c 128,-1,24
 170 168 170 168 137 202 c 1,25,-1
 125 251 l 1,26,27
 180 257 180 257 222.5 281.5 c 128,-1,28
 265 306 265 306 290 349 c 128,-1,29
 315 392 315 392 315 451 c 0,30,31
 315 507 315 507 290.5 536.5 c 128,-1,32
 266 566 266 566 221 566 c 0,33,34
 187 566 187 566 168 548.5 c 128,-1,35
 149 531 149 531 149 505 c 0,36,37
 149 470 149 470 178.5 453.5 c 128,-1,38
 208 437 208 437 260 433 c 1,39,-1
 248 368 l 1,40,41
 169 374 169 374 122 409 c 128,-1,42
 75 444 75 444 75 509 c 0,43,44
 75 565 75 565 112.5 598.5 c 128,-1,45
 150 632 150 632 219 632 c 0,46,47
 273 632 273 632 312 609.5 c 128,-1,48
 351 587 351 587 372.5 545.5 c 128,-1,49
 394 504 394 504 394 445 c 0,50,51
 394 378 394 378 368.5 326.5 c 128,-1,52
 343 275 343 275 298 240.5 c 128,-1,53
 253 206 253 206 194 189 c 1,54,-1
 183 182 l 1,55,56
 166 178 166 178 154.5 175.5 c 128,-1,57
 143 173 143 173 129 173 c 0,8,9
EndSplineSet
Substitution2: "'locl' Localized Forms lookup 97 subtable" uni0936.MAR
Substitution2: "'aalt' Access All Alternates lookup 0 subtable" uni0936.MAR
EndChar

StartChar: uni0937
Encoding: 2359 2359 86
Width: 578
GlyphClass: 2
Flags: W
AnchorPoint: "Anchor-10" 166 22 basechar 0
AnchorPoint: "Anchor-9" 408 -40 basechar 0
AnchorPoint: "Anchor-8" 408 0 basechar 0
AnchorPoint: "Anchor-3" 408 622 basechar 0
AnchorPoint: "Anchor-1" 408 -20 basechar 0
AnchorPoint: "Anchor-0" 448 622 basechar 0
LayerCount: 2
Fore
SplineSet
138 534 m 1,0,-1
 184 578 l 1,1,-1
 428 273 l 1,2,-1
 379 232 l 1,3,-1
 138 534 l 1,0,-1
489 551 m 1,4,-1
 489 0 l 1,5,-1
 408 0 l 1,6,-1
 408 236 l 1,7,-1
 427 209 l 1,8,9
 402 184 402 184 359 168.5 c 128,-1,10
 316 153 316 153 266 153 c 0,11,12
 207 153 207 153 165 175 c 128,-1,13
 123 197 123 197 101 241.5 c 128,-1,14
 79 286 79 286 79 352 c 2,15,-1
 79 551 l 1,16,-1
 0 551 l 1,17,-1
 0 622 l 1,18,-1
 592 622 l 1,19,-1
 592 551 l 1,20,-1
 489 551 l 1,4,-1
408 551 m 1,21,-1
 160 551 l 1,22,-1
 160 349 l 2,23,24
 160 306 160 306 172 278.5 c 128,-1,25
 184 251 184 251 207.5 237.5 c 128,-1,26
 231 224 231 224 264 224 c 0,27,28
 300 224 300 224 329.5 235.5 c 128,-1,29
 359 247 359 247 382.5 266 c 128,-1,30
 406 285 406 285 424 307 c 1,31,-1
 408 255 l 1,32,-1
 408 551 l 1,21,-1
EndSplineSet
EndChar

StartChar: uni0938
Encoding: 2360 2360 87
Width: 676
GlyphClass: 2
Flags: W
AnchorPoint: "Anchor-10" 102 21 basechar 0
AnchorPoint: "Anchor-9" 506 -40 basechar 0
AnchorPoint: "Anchor-8" 506 0 basechar 0
AnchorPoint: "Anchor-3" 506 622 basechar 0
AnchorPoint: "Anchor-1" 506 -20 basechar 0
AnchorPoint: "Anchor-0" 546 622 basechar 0
LayerCount: 2
Fore
SplineSet
287 -14 m 1,0,1
 212 60 212 60 154.5 131 c 128,-1,2
 97 202 97 202 70 251 c 0,3,4
 56 277 56 277 49 299 c 128,-1,5
 42 321 42 321 42 340 c 0,6,7
 42 366 42 366 56.5 380 c 128,-1,8
 71 394 71 394 96 394 c 0,9,10
 122 394 122 394 146.5 375.5 c 128,-1,11
 171 357 171 357 195 326 c 1,12,-1
 148 331 l 1,13,14
 193 345 193 345 209.5 382 c 128,-1,15
 226 419 226 419 226 460 c 0,16,17
 226 495 226 495 218.5 522 c 128,-1,18
 211 549 211 549 202 564 c 1,19,-1
 243 551 l 1,20,-1
 0 551 l 1,21,-1
 0 622 l 1,22,-1
 417 622 l 1,23,-1
 417 551 l 1,24,-1
 251 551 l 1,25,-1
 285 566 l 1,26,27
 296 542 296 542 301.5 513.5 c 128,-1,28
 307 485 307 485 307 450 c 0,29,30
 307 410 307 410 295.5 376.5 c 128,-1,31
 284 343 284 343 261 317 c 1,32,-1
 257 310 l 1,33,34
 239 289 239 289 213 273 c 128,-1,35
 187 257 187 257 147 243 c 1,36,-1
 145 254 l 1,37,38
 170 220 170 220 201 185.5 c 128,-1,39
 232 151 232 151 269 115 c 128,-1,40
 306 79 306 79 348 40 c 1,41,-1
 287 -14 l 1,0,1
400 244 m 256,42,43
 359 244 359 244 312 253.5 c 128,-1,44
 265 263 265 263 221 287 c 1,45,-1
 248 347 l 1,46,47
 289 330 289 330 323.5 323 c 128,-1,48
 358 316 358 316 399 316 c 256,49,50
 440 316 440 316 477.5 323.5 c 128,-1,51
 515 331 515 331 553 348 c 1,52,-1
 553 272 l 1,53,54
 518 257 518 257 479.5 250.5 c 128,-1,55
 441 244 441 244 400 244 c 256,42,43
506 0 m 1,56,-1
 506 551 l 1,57,-1
 396 551 l 1,58,-1
 396 622 l 1,59,-1
 690 622 l 1,60,-1
 690 551 l 1,61,-1
 587 551 l 1,62,-1
 587 0 l 1,63,-1
 506 0 l 1,56,-1
EndSplineSet
EndChar

StartChar: uni0939
Encoding: 2361 2361 88
Width: 531
GlyphClass: 2
Flags: W
AnchorPoint: "Anchor-10" 162 -166 basechar 0
AnchorPoint: "Anchor-9" 369 -172 basechar 0
AnchorPoint: "Anchor-8" 299 -92 basechar 0
AnchorPoint: "Anchor-3" 361 622 basechar 0
AnchorPoint: "Anchor-1" 228 -150 basechar 0
AnchorPoint: "Anchor-0" 401 622 basechar 0
LayerCount: 2
Fore
SplineSet
147 229 m 1,0,1
 112 256 112 256 90.5 286.5 c 128,-1,2
 69 317 69 317 69 354 c 0,3,4
 69 408 69 408 107 436.5 c 128,-1,5
 145 465 145 465 223 465 c 2,6,-1
 361 465 l 1,7,-1
 361 551 l 1,8,-1
 0 551 l 1,9,-1
 0 622 l 1,10,-1
 545 622 l 1,11,-1
 545 551 l 1,12,-1
 442 551 l 1,13,-1
 442 394 l 1,14,-1
 234 394 l 2,15,16
 190 394 190 394 169.5 381 c 128,-1,17
 149 368 149 368 149 341 c 0,18,19
 149 322 149 322 161.5 304.5 c 128,-1,20
 174 287 174 287 193 274 c 1,21,-1
 147 229 l 1,0,1
333 64 m 1,22,23
 368 79 368 79 386.5 100.5 c 128,-1,24
 405 122 405 122 405 146 c 0,25,26
 405 179 405 179 378.5 200.5 c 128,-1,27
 352 222 352 222 291 222 c 0,28,29
 222 222 222 222 185.5 193 c 128,-1,30
 149 164 149 164 149 114 c 0,31,32
 149 74 149 74 176.5 42.5 c 128,-1,33
 204 11 204 11 256.5 -16.5 c 128,-1,34
 309 -44 309 -44 383 -74 c 1,35,-1
 343 -142 l 1,36,37
 265 -110 265 -110 203 -74.5 c 128,-1,38
 141 -39 141 -39 105 7.5 c 128,-1,39
 69 54 69 54 69 117 c 0,40,41
 69 177 69 177 99 216 c 128,-1,42
 129 255 129 255 179.5 274 c 128,-1,43
 230 293 230 293 293 293 c 0,44,45
 361 293 361 293 403 272.5 c 128,-1,46
 445 252 445 252 464.5 218.5 c 128,-1,47
 484 185 484 185 484 145 c 0,48,49
 484 103 484 103 463.5 68.5 c 128,-1,50
 443 34 443 34 390 6 c 1,51,-1
 333 64 l 1,22,23
EndSplineSet
Substitution2: "Single Substitution lookup 74 subtable" uni0939.alt
EndChar

StartChar: uni0933
Encoding: 2355 2355 89
Width: 760
GlyphClass: 2
Flags: W
AnchorPoint: "Anchor-10" 370 -81 basechar 0
AnchorPoint: "Anchor-9" 490 -40 basechar 0
AnchorPoint: "Anchor-8" 535 34 basechar 0
AnchorPoint: "Anchor-3" 513 622 basechar 0
AnchorPoint: "Anchor-1" 513 0 basechar 0
AnchorPoint: "Anchor-0" 553 622 basechar 0
LayerCount: 2
Fore
SplineSet
0 551 m 1,0,-1
 0 622 l 1,1,-1
 774 622 l 1,2,-1
 774 551 l 1,3,-1
 594 551 l 1,4,-1
 594 385 l 1,5,-1
 513 385 l 1,6,-1
 513 551 l 1,7,-1
 0 551 l 1,0,-1
386 258 m 1,8,9
 344 307 344 307 309 330.5 c 128,-1,10
 274 354 274 354 232 354 c 256,11,12
 190 354 190 354 158.5 325.5 c 128,-1,13
 127 297 127 297 127 232 c 0,14,15
 127 186 127 186 139.5 158.5 c 128,-1,16
 152 131 152 131 173 119 c 128,-1,17
 194 107 194 107 218 107 c 0,18,19
 244 107 244 107 264.5 118 c 128,-1,20
 285 129 285 129 302 152.5 c 128,-1,21
 319 176 319 176 332 212 c 2,22,-1
 354 275 l 2,23,24
 375 335 375 335 403 367.5 c 128,-1,25
 431 400 431 400 466.5 412.5 c 128,-1,26
 502 425 502 425 545 425 c 0,27,28
 594 425 594 425 632 402.5 c 128,-1,29
 670 380 670 380 692 337 c 128,-1,30
 714 294 714 294 714 232 c 0,31,32
 714 175 714 175 692.5 130.5 c 128,-1,33
 671 86 671 86 631.5 61 c 128,-1,34
 592 36 592 36 538 36 c 0,35,36
 475 36 475 36 430 63 c 128,-1,37
 385 90 385 90 340 139 c 1,38,-1
 374 202 l 1,39,40
 415 156 415 156 451.5 131.5 c 128,-1,41
 488 107 488 107 528 107 c 0,42,43
 570 107 570 107 601.5 136 c 128,-1,44
 633 165 633 165 633 234 c 0,45,46
 633 300 633 300 605.5 327 c 128,-1,47
 578 354 578 354 541 354 c 0,48,49
 516 354 516 354 494.5 343.5 c 128,-1,50
 473 333 473 333 456 309.5 c 128,-1,51
 439 286 439 286 425 248 c 2,52,-1
 403 186 l 2,53,54
 383 129 383 129 356.5 96 c 128,-1,55
 330 63 330 63 295.5 49.5 c 128,-1,56
 261 36 261 36 216 36 c 0,57,58
 169 36 169 36 130.5 58 c 128,-1,59
 92 80 92 80 69 124 c 128,-1,60
 46 168 46 168 46 234 c 0,61,62
 46 291 46 291 68.5 334 c 128,-1,63
 91 377 91 377 131.5 401 c 128,-1,64
 172 425 172 425 224 425 c 0,65,66
 267 425 267 425 299.5 413 c 128,-1,67
 332 401 332 401 361 378 c 128,-1,68
 390 355 390 355 420 321 c 1,69,-1
 386 258 l 1,8,9
EndSplineSet
Substitution2: "Single Substitution lookup 74 subtable" uni0933.alt
EndChar

StartChar: uni0915094D0937
Encoding: 1114114 -1 90
Width: 717
GlyphClass: 2
Flags: W
AnchorPoint: "Anchor-10" 162 -69 basechar 0
AnchorPoint: "Anchor-9" 547 -110 basechar 0
AnchorPoint: "Anchor-8" 547 0 basechar 0
AnchorPoint: "Anchor-3" 547 622 basechar 0
AnchorPoint: "Anchor-1" 547 -20 basechar 0
AnchorPoint: "Anchor-0" 587 622 basechar 0
LayerCount: 2
Fore
SplineSet
628 551 m 1,0,-1
 628 0 l 1,1,-1
 547 0 l 1,2,-1
 547 361 l 1,3,-1
 565 327 l 1,4,5
 534 312 534 312 498 303.5 c 128,-1,6
 462 295 462 295 409 295 c 0,7,8
 363 295 363 295 318 305.5 c 128,-1,9
 273 316 273 316 234 336 c 2,10,-1
 213 347 l 2,11,12
 153 381 153 381 121.5 418 c 128,-1,13
 90 455 90 455 90 507 c 0,14,15
 90 560 90 560 129.5 596 c 128,-1,16
 169 632 169 632 245 632 c 0,17,18
 313 632 313 632 355 600 c 128,-1,19
 397 568 397 568 397 505 c 0,20,21
 397 472 397 472 384 445.5 c 128,-1,22
 371 419 371 419 347 398 c 128,-1,23
 323 377 323 377 290 357 c 1,24,-1
 272 343 l 1,25,26
 221 315 221 315 190.5 294.5 c 128,-1,27
 160 274 160 274 146.5 252 c 128,-1,28
 133 230 133 230 133 197 c 0,29,30
 133 151 133 151 165 127 c 128,-1,31
 197 103 197 103 252 103 c 0,32,33
 275 103 275 103 291 108 c 128,-1,34
 307 113 307 113 325 120 c 1,35,-1
 366 78 l 1,36,37
 383 43 383 43 399.5 15 c 128,-1,38
 416 -13 416 -13 440 -50 c 1,39,-1
 367 -85 l 1,40,41
 346 -45 346 -45 329 -7.5 c 128,-1,42
 312 30 312 30 303 62 c 2,43,-1
 295 90 l 2,44,45
 288 100 288 100 284.5 114.5 c 128,-1,46
 281 129 281 129 281 144 c 0,47,48
 281 173 281 173 299 188.5 c 128,-1,49
 317 204 317 204 345 204 c 0,50,51
 384 204 384 204 406.5 179.5 c 128,-1,52
 429 155 429 155 429 126 c 0,53,54
 429 101 429 101 408.5 81 c 128,-1,55
 388 61 388 61 355 50 c 2,56,-1
 342 44 l 2,57,58
 329 40 329 40 306 36.5 c 128,-1,59
 283 33 283 33 258 33 c 0,60,61
 203 33 203 33 156 51.5 c 128,-1,62
 109 70 109 70 80 106.5 c 128,-1,63
 51 143 51 143 51 196 c 0,64,65
 51 235 51 235 65.5 264 c 128,-1,66
 80 293 80 293 112.5 319 c 128,-1,67
 145 345 145 345 200 374 c 1,68,-1
 210 381 l 1,69,70
 266 410 266 410 293 439.5 c 128,-1,71
 320 469 320 469 320 503 c 0,72,73
 320 531 320 531 303 549 c 128,-1,74
 286 567 286 567 243 567 c 0,75,76
 209 567 209 567 188 550 c 128,-1,77
 167 533 167 533 167 502 c 0,78,79
 167 476 167 476 181.5 455.5 c 128,-1,80
 196 435 196 435 220.5 418.5 c 128,-1,81
 245 402 245 402 274 388 c 2,82,-1
 296 379 l 2,83,84
 324 371 324 371 347.5 367.5 c 128,-1,85
 371 364 371 364 401 364 c 0,86,87
 447 364 447 364 489 376.5 c 128,-1,88
 531 389 531 389 565 414 c 1,89,-1
 547 395 l 1,90,-1
 547 551 l 1,91,-1
 465 551 l 1,92,-1
 465 622 l 1,93,-1
 731 622 l 1,94,-1
 731 551 l 1,95,-1
 628 551 l 1,0,-1
EndSplineSet
Ligature2: "'akhn' Akhand lookup 102 subtable" uni0915 uni094D uni0937
EndChar

StartChar: uni091C094D091E
Encoding: 1114115 -1 91
Width: 641
GlyphClass: 2
Flags: W
AnchorPoint: "Anchor-10" 83 -39 basechar 0
AnchorPoint: "Anchor-9" 471 -110 basechar 0
AnchorPoint: "Anchor-8" 471 0 basechar 0
AnchorPoint: "Anchor-3" 471 622 basechar 0
AnchorPoint: "Anchor-1" 471 -20 basechar 0
AnchorPoint: "Anchor-0" 511 622 basechar 0
LayerCount: 2
Fore
SplineSet
552 551 m 1,0,-1
 552 0 l 1,1,-1
 471 0 l 1,2,-1
 471 551 l 1,3,-1
 0 551 l 1,4,-1
 0 622 l 1,5,-1
 655 622 l 1,6,-1
 655 551 l 1,7,-1
 552 551 l 1,0,-1
282 227 m 0,8,9
 282 260 282 260 262 287.5 c 128,-1,10
 242 315 242 315 199 337 c 128,-1,11
 156 359 156 359 87 374 c 1,12,-1
 111 441 l 1,13,-1
 502 441 l 1,14,-1
 487 370 l 1,15,-1
 357 370 l 2,16,17
 321 370 321 370 285.5 372 c 128,-1,18
 250 374 250 374 227 378 c 1,19,-1
 222 389 l 1,20,21
 293 359 293 359 327 316 c 128,-1,22
 361 273 361 273 361 222 c 0,23,24
 361 156 361 156 316 117.5 c 128,-1,25
 271 79 271 79 195 74 c 0,26,27
 191 74 191 74 193.5 70 c 128,-1,28
 196 66 196 66 182 66 c 0,29,30
 120 66 120 66 78.5 88 c 128,-1,31
 37 110 37 110 37 148 c 0,32,33
 37 170 37 170 52 184.5 c 128,-1,34
 67 199 67 199 94 199 c 0,35,36
 129 199 129 199 152.5 174 c 128,-1,37
 176 149 176 149 203 98 c 1,38,39
 226 67 226 67 256.5 35.5 c 128,-1,40
 287 4 287 4 320 -26 c 1,41,-1
 257 -74 l 1,42,43
 219 -32 219 -32 188.5 10 c 128,-1,44
 158 52 158 52 132 95 c 1,45,-1
 78 159 l 1,46,47
 104 148 104 148 123 139.5 c 128,-1,48
 142 131 142 131 166 136 c 1,49,50
 226 137 226 137 254 162 c 128,-1,51
 282 187 282 187 282 227 c 0,8,9
EndSplineSet
Ligature2: "'akhn' Akhand lookup 102 subtable" uni091C uni094D uni091E
EndChar

StartChar: uni097B
Encoding: 2427 2427 92
Width: 564
GlyphClass: 2
Flags: W
AnchorPoint: "Anchor-9" 393 -40 basechar 0
AnchorPoint: "Anchor-8" 393 0 basechar 0
AnchorPoint: "Anchor-3" 393 622 basechar 0
AnchorPoint: "Anchor-1" 393 -20 basechar 0
AnchorPoint: "Anchor-0" 433 622 basechar 0
LayerCount: 2
Fore
SplineSet
208 551 m 1,0,-1
 208 253 l 2,1,2
 208 228 208 228 195.5 213 c 128,-1,3
 183 198 183 198 160 198 c 0,4,5
 141 198 141 198 120 210 c 128,-1,6
 99 222 99 222 81 241.5 c 128,-1,7
 63 261 63 261 52 283.5 c 128,-1,8
 41 306 41 306 41 327 c 0,9,10
 41 350 41 350 54.5 364 c 128,-1,11
 68 378 68 378 102 378 c 2,12,-1
 128 378 l 1,13,-1
 128 551 l 1,14,-1
 0 551 l 1,15,-1
 0 622 l 1,16,-1
 578 622 l 1,17,-1
 578 551 l 1,18,-1
 474 551 l 1,19,-1
 474 0 l 1,20,-1
 394 0 l 1,21,-1
 394 551 l 1,22,-1
 208 551 l 1,0,-1
82 71 m 1,23,-1
 437 71 l 1,24,-1
 437 0 l 1,25,-1
 82 0 l 1,26,-1
 82 71 l 1,23,-1
EndSplineSet
EndChar

StartChar: uni097C
Encoding: 2428 2428 93
Width: 743
GlyphClass: 2
Flags: W
AnchorPoint: "Anchor-9" 572 -40 basechar 0
AnchorPoint: "Anchor-8" 572 0 basechar 0
AnchorPoint: "Anchor-3" 553 622 basechar 0
AnchorPoint: "Anchor-1" 572 -20 basechar 0
AnchorPoint: "Anchor-0" 593 622 basechar 0
LayerCount: 2
Fore
SplineSet
82 71 m 1,0,-1
 585 71 l 1,1,-1
 585 0 l 1,2,-1
 82 0 l 1,3,-1
 82 71 l 1,0,-1
653 551 m 1,4,-1
 653 0 l 1,5,-1
 572 0 l 1,6,-1
 572 391 l 1,7,-1
 435 391 l 2,8,9
 409 391 409 391 393.5 392 c 128,-1,10
 378 393 378 393 369 396 c 1,11,-1
 362 406 l 1,12,13
 405 384 405 384 431.5 346.5 c 128,-1,14
 458 309 458 309 458 267 c 0,15,16
 458 210 458 210 421 179.5 c 128,-1,17
 384 149 384 149 321 149 c 0,18,19
 263 149 263 149 212.5 175 c 128,-1,20
 162 201 162 201 117.5 261 c 128,-1,21
 73 321 73 321 31 422 c 1,22,-1
 102 447 l 1,23,24
 148 336 148 336 198 279 c 128,-1,25
 248 222 248 222 307 222 c 0,26,27
 346 222 346 222 362.5 237 c 128,-1,28
 379 252 379 252 379 277 c 0,29,30
 379 313 379 313 348.5 344.5 c 128,-1,31
 318 376 318 376 273 398 c 1,32,-1
 302 462 l 1,33,-1
 572 462 l 1,34,-1
 572 551 l 1,35,-1
 0 551 l 1,36,-1
 0 622 l 1,37,-1
 757 622 l 1,38,-1
 757 551 l 1,39,-1
 653 551 l 1,4,-1
EndSplineSet
EndChar

StartChar: uni097E
Encoding: 2430 2430 94
Width: 541
GlyphClass: 2
Flags: W
AnchorPoint: "Anchor-10" 275 -134 basechar 0
AnchorPoint: "Anchor-9" 373 -40 basechar 0
AnchorPoint: "Anchor-8" 283 0 basechar 0
AnchorPoint: "Anchor-3" 365 622 basechar 0
AnchorPoint: "Anchor-1" 241 -30 basechar 0
AnchorPoint: "Anchor-0" 405 622 basechar 0
LayerCount: 2
Fore
SplineSet
41 70 m 1,0,-1
 510 70 l 1,1,-1
 510 -1 l 1,2,-1
 41 -1 l 1,3,-1
 41 70 l 1,0,-1
321 266 m 0,4,5
 287 266 287 266 252 260.5 c 128,-1,6
 217 255 217 255 189 246 c 1,7,8
 154 271 154 271 126 303.5 c 128,-1,9
 98 336 98 336 98 381 c 0,10,11
 98 431 98 431 133.5 455.5 c 128,-1,12
 169 480 169 480 242 480 c 2,13,-1
 371 480 l 1,14,-1
 371 551 l 1,15,-1
 -10 551 l 1,16,-1
 -10 622 l 1,17,-1
 551 622 l 1,18,-1
 551 551 l 1,19,-1
 452 551 l 1,20,-1
 452 410 l 1,21,-1
 244 410 l 2,22,23
 209 410 209 410 193.5 399 c 128,-1,24
 178 388 178 388 178 366 c 0,25,26
 178 353 178 353 185 340.5 c 128,-1,27
 192 328 192 328 202 319 c 1,28,29
 231 327 231 327 263 330.5 c 128,-1,30
 295 334 295 334 329 334 c 0,31,32
 413 334 413 334 454 301 c 128,-1,33
 495 268 495 268 495 211 c 0,34,35
 495 174 495 174 475 145 c 128,-1,36
 455 116 455 116 412.5 99.5 c 128,-1,37
 370 83 370 83 300 83 c 0,38,39
 215 83 215 83 145 112 c 128,-1,40
 75 141 75 141 20 186 c 1,41,-1
 69 252 l 1,42,43
 123 204 123 204 179.5 180 c 128,-1,44
 236 156 236 156 298 156 c 0,45,46
 357 156 357 156 385.5 170.5 c 128,-1,47
 414 185 414 185 414 213 c 0,48,49
 414 238 414 238 392.5 252 c 128,-1,50
 371 266 371 266 321 266 c 0,4,5
EndSplineSet
EndChar

StartChar: uni097F
Encoding: 2431 2431 95
Width: 571
GlyphClass: 2
Flags: W
AnchorPoint: "Anchor-9" 401 -40 basechar 0
AnchorPoint: "Anchor-8" 401 0 basechar 0
AnchorPoint: "Anchor-3" 401 622 basechar 0
AnchorPoint: "Anchor-1" 401 -20 basechar 0
AnchorPoint: "Anchor-0" 441 622 basechar 0
LayerCount: 2
Fore
SplineSet
82 71 m 1,0,-1
 437 71 l 1,1,-1
 437 0 l 1,2,-1
 82 0 l 1,3,-1
 82 71 l 1,0,-1
585 551 m 1,4,-1
 482 551 l 1,5,-1
 482 0 l 1,6,-1
 401 0 l 1,7,-1
 401 222 l 1,8,-1
 426 197 l 1,9,10
 392 168 392 168 350 153 c 128,-1,11
 308 138 308 138 250 138 c 0,12,13
 156 138 156 138 101 185.5 c 128,-1,14
 46 233 46 233 46 311 c 0,15,16
 46 397 46 397 107 440 c 128,-1,17
 168 483 168 483 264 483 c 0,18,19
 294 483 294 483 319 480.5 c 128,-1,20
 344 478 344 478 366 473 c 1,21,-1
 360 404 l 1,22,23
 338 409 338 409 315.5 411.5 c 128,-1,24
 293 414 293 414 270 414 c 0,25,26
 203 414 203 414 165 388 c 128,-1,27
 127 362 127 362 127 311 c 0,28,29
 127 259 127 259 162 232.5 c 128,-1,30
 197 206 197 206 253 206 c 0,31,32
 288 206 288 206 318.5 217 c 128,-1,33
 349 228 349 228 373.5 246.5 c 128,-1,34
 398 265 398 265 414 285 c 1,35,-1
 401 241 l 1,36,-1
 401 551 l 1,37,-1
 0 551 l 1,38,-1
 0 622 l 1,39,-1
 585 622 l 1,40,-1
 585 551 l 1,4,-1
205 439 m 1,41,-1
 377 230 l 1,42,-1
 331 188 l 1,43,-1
 143 416 l 1,44,-1
 205 439 l 1,41,-1
EndSplineSet
EndChar

StartChar: uni0979
Encoding: 2425 2425 96
Width: 743
GlyphClass: 2
Flags: W
AnchorPoint: "Anchor-9" 572 -40 basechar 0
AnchorPoint: "Anchor-8" 572 0 basechar 0
AnchorPoint: "Anchor-3" 572 622 basechar 0
AnchorPoint: "Anchor-1" 572 -20 basechar 0
AnchorPoint: "Anchor-0" 603 622 basechar 0
LayerCount: 2
Fore
SplineSet
256 -35 m 256,0,1
 256 -13 256 -13 270.5 2 c 128,-1,2
 285 17 285 17 306 17 c 0,3,4
 326 17 326 17 340.5 2 c 128,-1,5
 355 -13 355 -13 355 -35 c 256,6,7
 355 -57 355 -57 340.5 -72 c 128,-1,8
 326 -87 326 -87 306 -87 c 0,9,10
 285 -87 285 -87 270.5 -72 c 128,-1,11
 256 -57 256 -57 256 -35 c 256,0,1
349 55 m 0,12,13
 349 76 349 76 363.5 91.5 c 128,-1,14
 378 107 378 107 398 107 c 0,15,16
 419 107 419 107 433.5 91.5 c 128,-1,17
 448 76 448 76 448 55 c 0,18,19
 448 33 448 33 433.5 17.5 c 128,-1,20
 419 2 419 2 398 2 c 0,21,22
 378 2 378 2 363.5 17.5 c 128,-1,23
 349 33 349 33 349 55 c 0,12,13
163 55 m 0,24,25
 163 76 163 76 178 91.5 c 128,-1,26
 193 107 193 107 213 107 c 256,27,28
 233 107 233 107 248 91.5 c 128,-1,29
 263 76 263 76 263 55 c 0,30,31
 263 33 263 33 248 17.5 c 128,-1,32
 233 2 233 2 213 2 c 256,33,34
 193 2 193 2 178 17.5 c 128,-1,35
 163 33 163 33 163 55 c 0,24,25
653 551 m 1,36,-1
 653 0 l 1,37,-1
 572 0 l 1,38,-1
 572 393 l 1,39,-1
 435 393 l 2,40,41
 409 393 409 393 393.5 394 c 128,-1,42
 378 395 378 395 369 398 c 1,43,-1
 362 408 l 1,44,45
 404 382 404 382 431 341.5 c 128,-1,46
 458 301 458 301 458 252 c 0,47,48
 458 188 458 188 418 155.5 c 128,-1,49
 378 123 378 123 313 123 c 0,50,51
 259 123 259 123 210.5 152 c 128,-1,52
 162 181 162 181 117.5 247 c 128,-1,53
 73 313 73 313 31 424 c 1,54,-1
 102 449 l 1,55,56
 148 325 148 325 198 260.5 c 128,-1,57
 248 196 248 196 306 196 c 0,58,59
 341 196 341 196 360 213.5 c 128,-1,60
 379 231 379 231 379 264 c 0,61,62
 379 305 379 305 349 340 c 128,-1,63
 319 375 319 375 273 400 c 1,64,-1
 302 464 l 1,65,-1
 572 464 l 1,66,-1
 572 551 l 1,67,-1
 0 551 l 1,68,-1
 0 622 l 1,69,-1
 757 622 l 1,70,-1
 757 551 l 1,71,-1
 653 551 l 1,36,-1
EndSplineSet
EndChar

StartChar: yaheavydeva
Encoding: 2426 2426 97
Width: 581
GlyphClass: 2
Flags: W
AnchorPoint: "Anchor-10" 132 21 basechar 0
AnchorPoint: "Anchor-9" 410 -40 basechar 0
AnchorPoint: "Anchor-8" 410 0 basechar 0
AnchorPoint: "Anchor-3" 410 622 basechar 0
AnchorPoint: "Anchor-1" 410 -20 basechar 0
AnchorPoint: "Anchor-0" 450 622 basechar 0
LayerCount: 2
Fore
SplineSet
410 0 m 1,0,-1
 410 216 l 1,1,-1
 433 191 l 1,2,3
 404 166 404 166 365.5 149 c 128,-1,4
 327 132 327 132 270 132 c 0,5,6
 173 132 173 132 116 188 c 128,-1,7
 59 244 59 244 33 358 c 1,8,9
 110 372 110 372 144 395.5 c 128,-1,10
 178 419 178 419 178 459 c 0,11,12
 178 491 178 491 161 519 c 128,-1,13
 144 547 144 547 116 566 c 1,14,-1
 159 551 l 1,15,-1
 0 551 l 1,16,-1
 0 622 l 1,17,-1
 595 622 l 1,18,-1
 595 551 l 1,19,-1
 491 551 l 1,20,-1
 491 0 l 1,21,-1
 410 0 l 1,0,-1
269 203 m 0,22,23
 322 203 322 203 360 229.5 c 128,-1,24
 398 256 398 256 425 290 c 1,25,-1
 410 239 l 1,26,-1
 410 551 l 1,27,-1
 175 551 l 1,28,-1
 203 572 l 1,29,30
 231 544 231 544 244.5 513 c 128,-1,31
 258 482 258 482 258 450 c 0,32,33
 258 397 258 397 228 362.5 c 128,-1,34
 198 328 198 328 133 307 c 1,35,36
 151 255 151 255 182.5 229 c 128,-1,37
 214 203 214 203 269 203 c 0,22,23
392 230 m 1,38,-1
 293 350 l 2,39,40
 276 372 276 372 257 397 c 128,-1,41
 238 422 238 422 220.5 447 c 128,-1,42
 203 472 203 472 190 491 c 1,43,-1
 230 535 l 1,44,-1
 439 270 l 1,45,-1
 392 230 l 1,38,-1
EndSplineSet
EndChar

StartChar: marwariddadeva
Encoding: 2424 2424 98
Width: 555
GlyphClass: 2
Flags: W
AnchorPoint: "Anchor-10" 164 37 basechar 0
AnchorPoint: "Anchor-9" 373 -70 basechar 0
AnchorPoint: "Anchor-8" 373 20 basechar 0
AnchorPoint: "Anchor-3" 373 622 basechar 0
AnchorPoint: "Anchor-1" 333 -40 basechar 0
AnchorPoint: "Anchor-0" 413 622 basechar 0
LayerCount: 2
Fore
SplineSet
208 551 m 1,0,-1
 208 226 l 2,1,2
 208 199 208 199 195 185.5 c 128,-1,3
 182 172 182 172 158 172 c 0,4,5
 138 172 138 172 117.5 183 c 128,-1,6
 97 194 97 194 79.5 212 c 128,-1,7
 62 230 62 230 51.5 251.5 c 128,-1,8
 41 273 41 273 41 293 c 0,9,10
 41 325 41 325 66.5 343 c 128,-1,11
 92 361 92 361 156 375 c 1,12,-1
 177 377 l 2,13,14
 205 383 205 383 233 386 c 128,-1,15
 261 389 261 389 291 389 c 0,16,17
 366 389 366 389 414.5 365 c 128,-1,18
 463 341 463 341 486 298 c 128,-1,19
 509 255 509 255 509 196 c 0,20,21
 509 141 509 141 487.5 87.5 c 128,-1,22
 466 34 466 34 421 -17 c 1,23,-1
 350 25 l 1,24,25
 386 67 386 67 407 107.5 c 128,-1,26
 428 148 428 148 428 194 c 0,27,28
 428 231 428 231 414 258.5 c 128,-1,29
 400 286 400 286 370.5 301.5 c 128,-1,30
 341 317 341 317 293 317 c 0,31,32
 250 317 250 317 211 309 c 128,-1,33
 172 301 172 301 140 286 c 1,34,-1
 127 336 l 1,35,-1
 127 551 l 1,36,-1
 0 551 l 1,37,-1
 0 622 l 1,38,-1
 569 622 l 1,39,-1
 569 551 l 1,40,-1
 208 551 l 1,0,-1
EndSplineSet
EndChar

StartChar: uni091D.NEP
Encoding: 1114116 -1 99
Width: 924
GlyphClass: 2
Flags: W
AnchorPoint: "Anchor-10" 272 21 basechar 0
AnchorPoint: "Anchor-9" 663 -40 basechar 0
AnchorPoint: "Anchor-8" 533 0 basechar 0
AnchorPoint: "Anchor-3" 533 622 basechar 0
AnchorPoint: "Anchor-1" 533 -20 basechar 0
AnchorPoint: "Anchor-0" 573 622 basechar 0
LayerCount: 2
Fore
SplineSet
177 632 m 0,0,1
 235 632 235 632 269 610 c 128,-1,2
 303 588 303 588 317.5 549.5 c 128,-1,3
 332 511 332 511 332 463 c 2,4,-1
 332 321 l 1,5,-1
 533 321 l 1,6,-1
 533 551 l 1,7,-1
 402 551 l 1,8,-1
 402 622 l 1,9,-1
 939 622 l 1,10,-1
 939 551 l 1,11,-1
 614 551 l 1,12,-1
 614 0 l 1,13,-1
 533 0 l 1,14,-1
 533 250 l 1,15,-1
 332 250 l 1,16,-1
 332 213 l 2,17,18
 332 180 332 180 317.5 165.5 c 128,-1,19
 303 151 303 151 283 151 c 0,20,21
 264 151 264 151 243 163.5 c 128,-1,22
 222 176 222 176 204 195.5 c 128,-1,23
 186 215 186 215 175 237 c 128,-1,24
 164 259 164 259 164 278 c 0,25,26
 164 290 164 290 170 300 c 128,-1,27
 176 310 176 310 189 315.5 c 128,-1,28
 202 321 202 321 224 321 c 2,29,-1
 253 321 l 1,30,-1
 253 453 l 2,31,32
 253 509 253 509 236.5 538 c 128,-1,33
 220 567 220 567 180 567 c 0,34,35
 152 567 152 567 137 552.5 c 128,-1,36
 122 538 122 538 122 515 c 0,37,38
 122 487 122 487 143.5 471.5 c 128,-1,39
 165 456 165 456 209 451 c 1,40,-1
 201 386 l 1,41,42
 134 391 134 391 90 424.5 c 128,-1,43
 46 458 46 458 46 517 c 0,44,45
 46 574 46 574 83 603 c 128,-1,46
 120 632 120 632 177 632 c 0,0,1
598 343 m 1,47,48
 618 368 618 368 652 384 c 128,-1,49
 686 400 686 400 729 400 c 0,50,51
 800 400 800 400 840 357 c 128,-1,52
 880 314 880 314 880 240 c 0,53,54
 880 188 880 188 860 139.5 c 128,-1,55
 840 91 840 91 796 42 c 1,56,-1
 726 86 l 1,57,58
 759 120 759 120 779.5 157.5 c 128,-1,59
 800 195 800 195 800 241 c 0,60,61
 800 285 800 285 779 307.5 c 128,-1,62
 758 330 758 330 720 330 c 0,63,64
 687 330 687 330 657.5 308.5 c 128,-1,65
 628 287 628 287 609 250 c 1,66,-1
 598 343 l 1,47,48
EndSplineSet
EndChar

StartChar: uni0902
Encoding: 2306 2306 100
Width: 0
GlyphClass: 4
Flags: W
AnchorPoint: "Anchor-21" -170 622 mark 0
AnchorPoint: "Anchor-18" -170 622 mark 0
AnchorPoint: "Anchor-7" -18 622 basemark 0
AnchorPoint: "Anchor-3" -170 622 mark 0
LayerCount: 2
Fore
SplineSet
-185 772 m 256,0,1
 -185 796 -185 796 -168.5 813 c 128,-1,2
 -152 830 -152 830 -130 830 c 0,3,4
 -107 830 -107 830 -91 813 c 128,-1,5
 -75 796 -75 796 -75 772 c 256,6,7
 -75 748 -75 748 -91 731 c 128,-1,8
 -107 714 -107 714 -130 714 c 0,9,10
 -152 714 -152 714 -168.5 731 c 128,-1,11
 -185 748 -185 748 -185 772 c 256,0,1
EndSplineSet
Substitution2: "Single Substitution lookup 184 subtable" uni0902.alt
Substitution2: "Single Substitution lookup 62 subtable" NullMark
Substitution2: "Single Substitution lookup 37 subtable" uni0930094D0902
Substitution2: "Single Substitution lookup 12 subtable" ayMatra_anusvaradeva
Substitution2: "Single Substitution lookup 11 subtable" uni093A0902
Substitution2: "Single Substitution lookup 10 subtable" uni09450902
Substitution2: "Single Substitution lookup 9 subtable" uni09480902
Substitution2: "Single Substitution lookup 8 subtable" uni09460902
Substitution2: "Single Substitution lookup 7 subtable" uni09470902
EndChar

StartChar: uni0901
Encoding: 2305 2305 101
Width: 0
GlyphClass: 4
Flags: W
AnchorPoint: "Anchor-14" -143 622 mark 0
AnchorPoint: "Anchor-7" 97 622 basemark 0
AnchorPoint: "Anchor-5" -143 622 mark 0
AnchorPoint: "Anchor-0" -143 622 mark 0
LayerCount: 2
Fore
SplineSet
-192 847 m 256,0,1
 -192 868 -192 868 -177.5 882 c 128,-1,2
 -163 896 -163 896 -143 896 c 256,3,4
 -123 896 -123 896 -108.5 882 c 128,-1,5
 -94 868 -94 868 -94 847 c 256,6,7
 -94 826 -94 826 -108.5 811.5 c 128,-1,8
 -123 797 -123 797 -143 797 c 256,9,10
 -163 797 -163 797 -177.5 811.5 c 128,-1,11
 -192 826 -192 826 -192 847 c 256,0,1
45 848 m 1,12,13
 27 754 27 754 -21.5 716 c 128,-1,14
 -70 678 -70 678 -143 678 c 256,15,16
 -216 678 -216 678 -264.5 716 c 128,-1,17
 -313 754 -313 754 -331 848 c 1,18,-1
 -262 870 l 1,19,20
 -251 797 -251 797 -220.5 769.5 c 128,-1,21
 -190 742 -190 742 -143 742 c 256,22,23
 -96 742 -96 742 -65 769.5 c 128,-1,24
 -34 797 -34 797 -24 870 c 1,25,-1
 45 848 l 1,12,13
EndSplineSet
Substitution2: "Single Substitution lookup 62 subtable" NullMark
Substitution2: "Single Substitution lookup 38 subtable" uni0930094D0901
Substitution2: "Single Substitution lookup 18 subtable" ayMatra_candraBindudeva
Substitution2: "Single Substitution lookup 17 subtable" uni093A0901
Substitution2: "Single Substitution lookup 16 subtable" uni09450901
Substitution2: "Single Substitution lookup 15 subtable" uni09480901
Substitution2: "Single Substitution lookup 14 subtable" uni09460901
Substitution2: "Single Substitution lookup 13 subtable" uni09470901
EndChar

StartChar: uni0903
Encoding: 2307 2307 102
Width: 202
Flags: W
LayerCount: 2
Fore
SplineSet
40 134 m 256,0,1
 40 160 40 160 58 179 c 128,-1,2
 76 198 76 198 101 198 c 256,3,4
 126 198 126 198 144 179 c 128,-1,5
 162 160 162 160 162 134 c 256,6,7
 162 108 162 108 144 89 c 128,-1,8
 126 70 126 70 101 70 c 256,9,10
 76 70 76 70 58 89 c 128,-1,11
 40 108 40 108 40 134 c 256,0,1
40 384 m 256,12,13
 40 410 40 410 58 429 c 128,-1,14
 76 448 76 448 101 448 c 256,15,16
 126 448 126 448 144 429 c 128,-1,17
 162 410 162 410 162 384 c 256,18,19
 162 358 162 358 144 339 c 128,-1,20
 126 320 126 320 101 320 c 256,21,22
 76 320 76 320 58 339 c 128,-1,23
 40 358 40 358 40 384 c 256,12,13
0 622 m 1,24,-1
 217 622 l 1,25,-1
 217 551 l 1,26,-1
 0 551 l 1,27,-1
 0 622 l 1,24,-1
EndSplineSet
Substitution2: "Single Substitution lookup 211 subtable" uni0903.alt
Substitution2: "Single Substitution lookup 71 subtable" NullMark
EndChar

StartChar: uni094D
Encoding: 2381 2381 103
Width: 0
GlyphClass: 4
Flags: W
AnchorPoint: "Anchor-15" -170 -20 mark 0
AnchorPoint: "Anchor-6" -170 -20 mark 0
AnchorPoint: "Anchor-1" -170 -20 mark 0
LayerCount: 2
Fore
SplineSet
-179 -44 m 1,0,1
 -166 -42 -166 -42 -151.5 -40.5 c 128,-1,2
 -137 -39 -137 -39 -122 -39 c 0,3,4
 -68 -39 -68 -39 -28 -55.5 c 128,-1,5
 12 -72 12 -72 49.5 -110 c 128,-1,6
 87 -148 87 -148 132 -212 c 1,7,-1
 74 -252 l 1,8,9
 32 -193 32 -193 3.5 -163.5 c 128,-1,10
 -25 -134 -25 -134 -52 -123.5 c 128,-1,11
 -79 -113 -79 -113 -117 -113 c 0,12,13
 -131 -113 -131 -113 -143.5 -114.5 c 128,-1,14
 -156 -116 -156 -116 -167 -118 c 1,15,-1
 -179 -44 l 1,0,1
EndSplineSet
Substitution2: "Single Substitution lookup 77 subtable" uni093C094D
EndChar

StartChar: uni093C
Encoding: 2364 2364 104
Width: 0
GlyphClass: 4
Flags: W
AnchorPoint: "Anchor-16" -283 -134 mark 0
AnchorPoint: "Anchor-10" -283 -134 mark 0
LayerCount: 2
Fore
SplineSet
-338 -134 m 0,0,1
 -338 -110 -338 -110 -321.5 -93 c 128,-1,2
 -305 -76 -305 -76 -283 -76 c 0,3,4
 -260 -76 -260 -76 -244 -93 c 128,-1,5
 -228 -110 -228 -110 -228 -134 c 0,6,7
 -228 -159 -228 -159 -244 -175.5 c 128,-1,8
 -260 -192 -260 -192 -283 -192 c 0,9,10
 -305 -192 -305 -192 -321.5 -175.5 c 128,-1,11
 -338 -159 -338 -159 -338 -134 c 0,0,1
EndSplineSet
Substitution2: "Single Substitution lookup 100 subtable" uni093C.sat
Substitution2: "Single Substitution lookup 83 subtable" uni0944
Substitution2: "Single Substitution lookup 82 subtable" uni0943
Substitution2: "Single Substitution lookup 81 subtable" uni0942
Substitution2: "Single Substitution lookup 80 subtable" uni0941
Substitution2: "Single Substitution lookup 78 subtable" uni093C.alt
Substitution2: "'aalt' Access All Alternates lookup 0 subtable" uni093C.sat
EndChar

StartChar: uni093D
Encoding: 2365 2365 105
Width: 467
Flags: W
LayerCount: 2
Fore
SplineSet
427 186 m 0,0,1
 427 141 427 141 407.5 107 c 128,-1,2
 388 73 388 73 352.5 54 c 128,-1,3
 317 35 317 35 268 35 c 0,4,5
 222 35 222 35 181.5 52 c 128,-1,6
 141 69 141 69 105 109 c 128,-1,7
 69 149 69 149 35 217 c 1,8,-1
 102 259 l 1,9,10
 135 189 135 189 174.5 148.5 c 128,-1,11
 214 108 214 108 264 108 c 0,12,13
 300 108 300 108 322.5 128 c 128,-1,14
 345 148 345 148 345 188 c 0,15,16
 345 215 345 215 333.5 237 c 128,-1,17
 322 259 322 259 294.5 284.5 c 128,-1,18
 267 310 267 310 218 345 c 0,19,20
 171 380 171 380 145 406 c 128,-1,21
 119 432 119 432 109 456.5 c 128,-1,22
 99 481 99 481 99 509 c 0,23,24
 99 562 99 562 136.5 592 c 128,-1,25
 174 622 174 622 252 622 c 2,26,-1
 392 622 l 1,27,-1
 392 551 l 1,28,-1
 260 551 l 2,29,30
 214 551 214 551 196.5 538 c 128,-1,31
 179 525 179 525 179 502 c 0,32,33
 179 487 179 487 188.5 473 c 128,-1,34
 198 459 198 459 222 439.5 c 128,-1,35
 246 420 246 420 288 389 c 0,36,37
 340 352 340 352 370 320 c 128,-1,38
 400 288 400 288 413.5 256.5 c 128,-1,39
 427 225 427 225 427 186 c 0,0,1
EndSplineSet
EndChar

StartChar: uni097D
Encoding: 2429 2429 106
Width: 469
Flags: W
LayerCount: 2
Fore
SplineSet
223 632 m 0,0,1
 289 632 289 632 333.5 609.5 c 128,-1,2
 378 587 378 587 400.5 546 c 128,-1,3
 423 505 423 505 423 451 c 0,4,5
 423 398 423 398 401.5 359.5 c 128,-1,6
 380 321 380 321 340 297 c 128,-1,7
 300 273 300 273 245 262 c 1,8,-1
 245 0 l 1,9,-1
 165 0 l 1,10,-1
 165 327 l 1,11,12
 225 328 225 328 263.5 342.5 c 128,-1,13
 302 357 302 357 320.5 385 c 128,-1,14
 339 413 339 413 339 454 c 0,15,16
 339 504 339 504 305.5 532.5 c 128,-1,17
 272 561 272 561 220 561 c 0,18,19
 181 561 181 561 150 552.5 c 128,-1,20
 119 544 119 544 87 529 c 1,21,-1
 64 597 l 1,22,23
 96 613 96 613 136 622.5 c 128,-1,24
 176 632 176 632 223 632 c 0,0,1
EndSplineSet
EndChar

StartChar: uni0971
Encoding: 2417 2417 107
Width: 317
Flags: W
LayerCount: 2
Fore
SplineSet
105 590 m 0,0,1
 105 616 105 616 122 633.5 c 128,-1,2
 139 651 139 651 164 651 c 0,3,4
 188 651 188 651 205 633.5 c 128,-1,5
 222 616 222 616 222 590 c 0,6,7
 222 565 222 565 205 546.5 c 128,-1,8
 188 528 188 528 164 528 c 0,9,10
 139 528 139 528 122 546.5 c 128,-1,11
 105 565 105 565 105 590 c 0,0,1
EndSplineSet
EndChar

StartChar: uni0951
Encoding: 2385 2385 108
Width: 0
GlyphClass: 4
Flags: W
AnchorPoint: "Anchor-21" -170 622 mark 0
AnchorPoint: "Anchor-19" -150 622 mark 0
AnchorPoint: "Anchor-18" -170 622 mark 0
AnchorPoint: "Anchor-7" -150 622 mark 0
AnchorPoint: "Anchor-4" -150 622 mark 0
AnchorPoint: "Anchor-3" -170 622 mark 0
LayerCount: 2
Fore
SplineSet
-94 671 m 1,0,-1
 -165 671 l 1,1,-1
 -165 872 l 1,2,-1
 -94 872 l 1,3,-1
 -94 671 l 1,0,-1
EndSplineSet
Substitution2: "Single Substitution lookup 204 subtable" uni0951.alt05
Substitution2: "Single Substitution lookup 203 subtable" uni0951.alt04
Substitution2: "Single Substitution lookup 202 subtable" uni0951.alt03
Substitution2: "Single Substitution lookup 201 subtable" uni0951.alt02
Substitution2: "Single Substitution lookup 200 subtable" uni0951.alt01
MultipleSubs2: "Multiple Substitution lookup 70 subtable" uni0951 uni0903
EndChar

StartChar: uni0952
Encoding: 2386 2386 109
Width: 0
GlyphClass: 4
Flags: W
AnchorPoint: "Anchor-13" -169 -40 mark 0
AnchorPoint: "Anchor-9" -169 -40 mark 0
LayerCount: 2
Fore
SplineSet
-443 -77 m 1,0,-1
 -84 -77 l 1,1,-1
 -84 -148 l 1,2,-1
 -443 -148 l 1,3,-1
 -443 -77 l 1,0,-1
EndSplineSet
Substitution2: "Single Substitution lookup 78 subtable" uni0952.alt01
MultipleSubs2: "Multiple Substitution lookup 70 subtable" uni0952 uni0903
EndChar

StartChar: uni0953
Encoding: 2387 2387 110
Width: 0
GlyphClass: 4
Flags: W
LayerCount: 2
Fore
SplineSet
-152 683 m 1,0,-1
 -266 873 l 1,1,-1
 -158 873 l 1,2,-1
 -87 683 l 1,3,-1
 -152 683 l 1,0,-1
EndSplineSet
EndChar

StartChar: uni0954
Encoding: 2388 2388 111
Width: 0
GlyphClass: 4
Flags: W
LayerCount: 2
Fore
SplineSet
0 873 m 1,0,-1
 -113 683 l 1,1,-1
 -178 683 l 1,2,-1
 -107 873 l 1,3,-1
 0 873 l 1,0,-1
EndSplineSet
EndChar

StartChar: invertedCandrabindudeva
Encoding: 2304 2304 112
Width: 0
GlyphClass: 4
Flags: W
AnchorPoint: "Anchor-14" -143 622 mark 0
AnchorPoint: "Anchor-5" -143 622 mark 0
AnchorPoint: "Anchor-0" -143 622 mark 0
LayerCount: 2
Fore
SplineSet
-192 727 m 256,0,1
 -192 748 -192 748 -177.5 762.5 c 128,-1,2
 -163 777 -163 777 -143 777 c 256,3,4
 -123 777 -123 777 -108.5 762.5 c 128,-1,5
 -94 748 -94 748 -94 727 c 256,6,7
 -94 706 -94 706 -108.5 692 c 128,-1,8
 -123 678 -123 678 -143 678 c 256,9,10
 -163 678 -163 678 -177.5 692 c 128,-1,11
 -192 706 -192 706 -192 727 c 256,0,1
45 726 m 1,12,-1
 -24 704 l 1,13,14
 -34 778 -34 778 -65 805 c 128,-1,15
 -96 832 -96 832 -143 832 c 256,16,17
 -190 832 -190 832 -220.5 805 c 128,-1,18
 -251 778 -251 778 -262 704 c 1,19,-1
 -331 726 l 1,20,21
 -313 821 -313 821 -264.5 858.5 c 128,-1,22
 -216 896 -216 896 -143 896 c 256,23,24
 -70 896 -70 896 -21.5 858.5 c 128,-1,25
 27 821 27 821 45 726 c 1,12,-1
EndSplineSet
EndChar

StartChar: uni0966
Encoding: 2406 2406 113
Width: 520
GlyphClass: 2
Flags: W
AnchorPoint: "Anchor-9" 350 -40 basechar 0
AnchorPoint: "Anchor-3" 230 622 basechar 0
LayerCount: 2
Fore
SplineSet
263 123 m 0,0,1
 203 123 203 123 157 147.5 c 128,-1,2
 111 172 111 172 85.5 218 c 128,-1,3
 60 264 60 264 60 326 c 0,4,5
 60 387 60 387 84 431.5 c 128,-1,6
 108 476 108 476 153 500.5 c 128,-1,7
 198 525 198 525 260 525 c 0,8,9
 321 525 321 525 366 500 c 128,-1,10
 411 475 411 475 435.5 429.5 c 128,-1,11
 460 384 460 384 460 321 c 0,12,13
 460 261 460 261 436.5 216.5 c 128,-1,14
 413 172 413 172 369 147.5 c 128,-1,15
 325 123 325 123 263 123 c 0,0,1
261 193 m 0,16,17
 316 193 316 193 347 228.5 c 128,-1,18
 378 264 378 264 378 324 c 0,19,20
 378 387 378 387 347 421 c 128,-1,21
 316 455 316 455 260 455 c 0,22,23
 205 455 205 455 173.5 419.5 c 128,-1,24
 142 384 142 384 142 322 c 256,25,26
 142 260 142 260 175 226.5 c 128,-1,27
 208 193 208 193 261 193 c 0,16,17
EndSplineSet
EndChar

StartChar: uni0967
Encoding: 2407 2407 114
Width: 520
GlyphClass: 2
Flags: W
AnchorPoint: "Anchor-9" 350 -40 basechar 0
AnchorPoint: "Anchor-3" 230 622 basechar 0
LayerCount: 2
Fore
SplineSet
263 632 m 0,0,1
 313 632 313 632 348.5 614 c 128,-1,2
 384 596 384 596 403 562.5 c 128,-1,3
 422 529 422 529 422 482 c 0,4,5
 422 424 422 424 391 381.5 c 128,-1,6
 360 339 360 339 298 295 c 2,7,-1
 187 216 l 1,8,-1
 186 268 l 1,9,10
 256 232 256 232 297.5 205.5 c 128,-1,11
 339 179 339 179 360 157 c 128,-1,12
 381 135 381 135 388 114.5 c 128,-1,13
 395 94 395 94 395 71 c 0,14,15
 395 46 395 46 385.5 22 c 128,-1,16
 376 -2 376 -2 358 -26 c 1,17,-1
 280 10 l 1,18,19
 294 26 294 26 301.5 42 c 128,-1,20
 309 58 309 58 309 77 c 0,21,22
 309 91 309 91 303.5 102.5 c 128,-1,23
 298 114 298 114 279 129.5 c 128,-1,24
 260 145 260 145 219 169 c 128,-1,25
 178 193 178 193 107 231 c 1,26,-1
 107 260 l 1,27,-1
 246 353 l 2,28,29
 276 373 276 373 297.5 392.5 c 128,-1,30
 319 412 319 412 330 434 c 128,-1,31
 341 456 341 456 341 485 c 0,32,33
 341 526 341 526 319 545.5 c 128,-1,34
 297 565 297 565 262 565 c 0,35,36
 225 565 225 565 203.5 545 c 128,-1,37
 182 525 182 525 182 488 c 0,38,39
 182 454 182 454 210 423 c 128,-1,40
 238 392 238 392 309 371 c 1,41,-1
 264 324 l 1,42,43
 182 350 182 350 143 389.5 c 128,-1,44
 104 429 104 429 104 488 c 0,45,46
 104 527 104 527 121 560 c 128,-1,47
 138 593 138 593 173 612.5 c 128,-1,48
 208 632 208 632 263 632 c 0,0,1
EndSplineSet
EndChar

StartChar: uni0968
Encoding: 2408 2408 115
Width: 520
GlyphClass: 2
Flags: W
AnchorPoint: "Anchor-9" 350 -40 basechar 0
AnchorPoint: "Anchor-3" 230 622 basechar 0
LayerCount: 2
Fore
SplineSet
164 287 m 1,0,1
 231 286 231 286 275 305.5 c 128,-1,2
 319 325 319 325 341 359.5 c 128,-1,3
 363 394 363 394 363 438 c 0,4,5
 363 498 363 498 330.5 529.5 c 128,-1,6
 298 561 298 561 243 561 c 0,7,8
 211 561 211 561 181 552.5 c 128,-1,9
 151 544 151 544 116 525 c 1,10,-1
 95 594 l 1,11,12
 129 613 129 613 167.5 622.5 c 128,-1,13
 206 632 206 632 251 632 c 0,14,15
 309 632 309 632 352.5 610 c 128,-1,16
 396 588 396 588 421 545 c 128,-1,17
 446 502 446 502 446 438 c 0,18,19
 446 369 446 369 410.5 318.5 c 128,-1,20
 375 268 375 268 316.5 240 c 128,-1,21
 258 212 258 212 187 212 c 0,22,23
 155 212 155 212 128 221.5 c 128,-1,24
 101 231 101 231 84.5 249.5 c 128,-1,25
 68 268 68 268 68 295 c 256,26,27
 68 322 68 322 85.5 339 c 128,-1,28
 103 356 103 356 135 356 c 0,29,30
 170 356 170 356 193 334 c 128,-1,31
 216 312 216 312 234 279 c 2,32,-1
 254 250 l 2,33,34
 294 195 294 195 327.5 137.5 c 128,-1,35
 361 80 361 80 390 22 c 1,36,-1
 310 -15 l 1,37,38
 281 49 281 49 249 114.5 c 128,-1,39
 217 180 217 180 179 241 c 1,40,-1
 164 287 l 1,0,1
EndSplineSet
EndChar

StartChar: uni0969
Encoding: 2409 2409 116
Width: 520
GlyphClass: 2
Flags: W
AnchorPoint: "Anchor-9" 350 -120 basechar 0
AnchorPoint: "Anchor-3" 230 622 basechar 0
LayerCount: 2
Fore
SplineSet
92 596 m 1,0,1
 123 612 123 612 164 622 c 128,-1,2
 205 632 205 632 253 632 c 0,3,4
 310 632 310 632 347.5 612.5 c 128,-1,5
 385 593 385 593 403.5 560.5 c 128,-1,6
 422 528 422 528 422 487 c 0,7,8
 422 444 422 444 403.5 412 c 128,-1,9
 385 380 385 380 350 359 c 128,-1,10
 315 338 315 338 265 328 c 128,-1,11
 215 318 215 318 152 318 c 1,12,-1
 143 390 l 1,13,14
 219 392 219 392 262.5 403 c 128,-1,15
 306 414 306 414 324.5 435 c 128,-1,16
 343 456 343 456 343 486 c 0,17,18
 343 519 343 519 320 540.5 c 128,-1,19
 297 562 297 562 248 562 c 0,20,21
 212 562 212 562 178 552.5 c 128,-1,22
 144 543 144 543 112 527 c 1,23,-1
 92 596 l 1,0,1
161 135 m 1,24,25
 267 125 267 125 313 152 c 128,-1,26
 359 179 359 179 359 231 c 0,27,28
 359 268 359 268 335 296.5 c 128,-1,29
 311 325 311 325 263 342 c 1,30,-1
 321 384 l 1,31,32
 383 357 383 357 412.5 317 c 128,-1,33
 442 277 442 277 442 223 c 0,34,35
 442 167 442 167 412 130 c 128,-1,36
 382 93 382 93 329 75 c 128,-1,37
 276 57 276 57 207 57 c 256,38,39
 138 57 138 57 101.5 80.5 c 128,-1,40
 65 104 65 104 65 145 c 0,41,42
 65 171 65 171 82.5 187.5 c 128,-1,43
 100 204 100 204 128 204 c 0,44,45
 157 204 157 204 179.5 186.5 c 128,-1,46
 202 169 202 169 222 128 c 1,47,-1
 223 113 l 1,48,49
 255 74 255 74 287.5 29 c 128,-1,50
 320 -16 320 -16 348 -63 c 1,51,-1
 275 -102 l 1,52,53
 250 -53 250 -53 221.5 -5.5 c 128,-1,54
 193 42 193 42 161 86 c 1,55,-1
 161 135 l 1,24,25
EndSplineSet
EndChar

StartChar: uni096A
Encoding: 2410 2410 117
Width: 520
GlyphClass: 2
Flags: W
AnchorPoint: "Anchor-9" 350 -40 basechar 0
AnchorPoint: "Anchor-3" 224 622 basechar 0
LayerCount: 2
Fore
SplineSet
216 325 m 1,0,1
 150 361 150 361 114 396 c 128,-1,2
 78 431 78 431 64 465.5 c 128,-1,3
 50 500 50 500 50 534 c 0,4,5
 50 556 50 556 56 578 c 128,-1,6
 62 600 62 600 72 622 c 1,7,-1
 155 607 l 1,8,9
 146 589 146 589 140.5 569 c 128,-1,10
 135 549 135 549 135 529 c 0,11,12
 135 504 135 504 147 477.5 c 128,-1,13
 159 451 159 451 188 423.5 c 128,-1,14
 217 396 217 396 267 369 c 2,15,-1
 295 354 l 2,16,17
 354 324 354 324 383.5 292.5 c 128,-1,18
 413 261 413 261 423 231 c 128,-1,19
 433 201 433 201 433 174 c 0,20,21
 433 105 433 105 387.5 63 c 128,-1,22
 342 21 342 21 264 21 c 0,23,24
 217 21 217 21 177 38.5 c 128,-1,25
 137 56 137 56 113.5 91 c 128,-1,26
 90 126 90 126 90 176 c 0,27,28
 90 210 90 210 103 239.5 c 128,-1,29
 116 269 116 269 145 296.5 c 128,-1,30
 174 324 174 324 222 353 c 1,31,-1
 247 365 l 2,32,33
 305 394 305 394 335 422.5 c 128,-1,34
 365 451 365 451 375.5 479 c 128,-1,35
 386 507 386 507 386 534 c 0,36,37
 386 573 386 573 366 607 c 1,38,-1
 450 622 l 1,39,40
 461 600 461 600 465.5 579.5 c 128,-1,41
 470 559 470 559 470 535 c 0,42,43
 470 495 470 495 455.5 460.5 c 128,-1,44
 441 426 441 426 404.5 391.5 c 128,-1,45
 368 357 368 357 302 317 c 2,46,-1
 262 294 l 2,47,48
 208 264 208 264 189 236 c 128,-1,49
 170 208 170 208 170 175 c 0,50,51
 170 144 170 144 191 118 c 128,-1,52
 212 92 212 92 261 92 c 0,53,54
 303 92 303 92 328 115 c 128,-1,55
 353 138 353 138 353 173 c 256,56,57
 353 208 353 208 332 239.5 c 128,-1,58
 311 271 311 271 251 297 c 1,59,-1
 216 325 l 1,0,1
EndSplineSet
EndChar

StartChar: uni096B
Encoding: 2411 2411 118
Width: 520
GlyphClass: 2
Flags: W
AnchorPoint: "Anchor-9" 350 -40 basechar 0
AnchorPoint: "Anchor-3" 230 622 basechar 0
LayerCount: 2
Fore
SplineSet
385 -6 m 1,0,1
 372 65 372 65 363 128.5 c 128,-1,2
 354 192 354 192 346 247 c 1,3,-1
 339 275 l 1,4,5
 329 294 329 294 323 311.5 c 128,-1,6
 317 329 317 329 317 348 c 0,7,8
 317 380 317 380 336 399 c 128,-1,9
 355 418 355 418 389 418 c 0,10,11
 427 418 427 418 444.5 395.5 c 128,-1,12
 462 373 462 373 462 337 c 0,13,14
 462 309 462 309 446 283 c 128,-1,15
 430 257 430 257 400 238 c 2,16,-1
 380 227 l 2,17,18
 358 217 358 217 331.5 211 c 128,-1,19
 305 205 305 205 273 205 c 0,20,21
 209 205 209 205 159.5 230.5 c 128,-1,22
 110 256 110 256 82 304 c 128,-1,23
 54 352 54 352 54 417 c 256,24,25
 54 482 54 482 86 536 c 128,-1,26
 118 590 118 590 183 630 c 1,27,-1
 238 578 l 1,28,29
 185 538 185 538 159.5 499.5 c 128,-1,30
 134 461 134 461 134 410 c 0,31,32
 134 370 134 370 151 339.5 c 128,-1,33
 168 309 168 309 199.5 292.5 c 128,-1,34
 231 276 231 276 273 276 c 0,35,36
 322 276 322 276 353 295.5 c 128,-1,37
 384 315 384 315 397 348 c 1,38,-1
 410 276 l 1,39,40
 424 221 424 221 439.5 152 c 128,-1,41
 455 83 455 83 470 11 c 1,42,-1
 385 -6 l 1,0,1
EndSplineSet
Substitution2: "'locl' Localized Forms lookup 98 subtable" uni096B.NEP
Substitution2: "'aalt' Access All Alternates lookup 0 subtable" uni096B.NEP
EndChar

StartChar: uni096C
Encoding: 2412 2412 119
Width: 520
GlyphClass: 2
Flags: W
AnchorPoint: "Anchor-9" 350 -120 basechar 0
AnchorPoint: "Anchor-3" 230 622 basechar 0
LayerCount: 2
Fore
SplineSet
214 328 m 1,0,1
 175 344 175 344 145 366 c 128,-1,2
 115 388 115 388 98 418.5 c 128,-1,3
 81 449 81 449 81 488 c 0,4,5
 81 557 81 557 134 594.5 c 128,-1,6
 187 632 187 632 281 632 c 0,7,8
 322 632 322 632 352.5 626.5 c 128,-1,9
 383 621 383 621 405 613 c 1,10,-1
 390 546 l 1,11,12
 364 554 364 554 339.5 558.5 c 128,-1,13
 315 563 315 563 287 563 c 0,14,15
 229 563 229 563 195.5 540.5 c 128,-1,16
 162 518 162 518 162 476 c 0,17,18
 162 439 162 439 189.5 414 c 128,-1,19
 217 389 217 389 260 379 c 1,20,-1
 214 328 l 1,0,1
397 -91 m 1,21,22
 377 -49 377 -49 362 -7 c 128,-1,23
 347 35 347 35 337 76 c 2,24,-1
 327 108 l 2,25,26
 322 124 322 124 319 137.5 c 128,-1,27
 316 151 316 151 316 165 c 0,28,29
 316 191 316 191 332 206.5 c 128,-1,30
 348 222 348 222 376 222 c 0,31,32
 412 222 412 222 432 200 c 128,-1,33
 452 178 452 178 452 149 c 0,34,35
 452 116 452 116 428.5 94 c 128,-1,36
 405 72 405 72 369 61 c 128,-1,37
 333 50 333 50 294 50 c 0,38,39
 227 50 227 50 178.5 73 c 128,-1,40
 130 96 130 96 104 137 c 128,-1,41
 78 178 78 178 78 232 c 0,42,43
 78 269 78 269 91.5 300.5 c 128,-1,44
 105 332 105 332 131.5 355 c 128,-1,45
 158 378 158 378 199.5 391 c 128,-1,46
 241 404 241 404 296 404 c 0,47,48
 320 404 320 404 343 402 c 128,-1,49
 366 400 366 400 387 395 c 1,50,-1
 378 324 l 1,51,52
 362 328 362 328 342.5 329.5 c 128,-1,53
 323 331 323 331 300 331 c 0,54,55
 228 331 228 331 193 303.5 c 128,-1,56
 158 276 158 276 158 226 c 0,57,58
 158 188 158 188 176.5 164.5 c 128,-1,59
 195 141 195 141 224.5 130.5 c 128,-1,60
 254 120 254 120 287 120 c 0,61,62
 310 120 310 120 329 124 c 128,-1,63
 348 128 348 128 370 138 c 1,64,-1
 406 93 l 1,65,66
 417 55 417 55 434.5 17 c 128,-1,67
 452 -21 452 -21 474 -59 c 1,68,-1
 397 -91 l 1,21,22
EndSplineSet
EndChar

StartChar: uni096D
Encoding: 2413 2413 120
Width: 520
GlyphClass: 2
Flags: W
AnchorPoint: "Anchor-9" 350 -40 basechar 0
AnchorPoint: "Anchor-3" 230 622 basechar 0
LayerCount: 2
Fore
SplineSet
480 297 m 0,0,1
 480 207 480 207 453 149 c 128,-1,2
 426 91 426 91 377.5 63 c 128,-1,3
 329 35 329 35 266 35 c 256,4,5
 203 35 203 35 151 62 c 128,-1,6
 99 89 99 89 69 151 c 128,-1,7
 39 213 39 213 40 316 c 0,8,9
 41 393 41 393 54 469 c 128,-1,10
 67 545 67 545 88 621 c 1,11,-1
 167 605 l 1,12,13
 148 532 148 532 135.5 455 c 128,-1,14
 123 378 123 378 123 313 c 0,15,16
 123 211 123 211 161.5 160 c 128,-1,17
 200 109 200 109 267 109 c 0,18,19
 317 109 317 109 346 133 c 128,-1,20
 375 157 375 157 387.5 200.5 c 128,-1,21
 400 244 400 244 400 302 c 0,22,23
 400 350 400 350 392 380.5 c 128,-1,24
 384 411 384 411 368.5 425.5 c 128,-1,25
 353 440 353 440 330 440 c 0,26,27
 308 440 308 440 295 423.5 c 128,-1,28
 282 407 282 407 282 381 c 0,29,30
 282 342 282 342 299 315.5 c 128,-1,31
 316 289 316 289 348 276.5 c 128,-1,32
 380 264 380 264 425 265 c 1,33,-1
 408 197 l 1,34,35
 346 199 346 199 300.5 222.5 c 128,-1,36
 255 246 255 246 230.5 286.5 c 128,-1,37
 206 327 206 327 206 379 c 0,38,39
 206 437 206 437 238.5 473 c 128,-1,40
 271 509 271 509 327 509 c 0,41,42
 374 509 374 509 408.5 486 c 128,-1,43
 443 463 443 463 461.5 416 c 128,-1,44
 480 369 480 369 480 297 c 0,0,1
EndSplineSet
EndChar

StartChar: uni096E
Encoding: 2414 2414 121
Width: 520
GlyphClass: 2
Flags: W
AnchorPoint: "Anchor-9" 350 -40 basechar 0
AnchorPoint: "Anchor-3" 230 622 basechar 0
LayerCount: 2
Fore
SplineSet
276 30 m 0,0,1
 220 30 220 30 174.5 52 c 128,-1,2
 129 74 129 74 102.5 115 c 128,-1,3
 76 156 76 156 76 214 c 0,4,5
 76 258 76 258 91 297.5 c 128,-1,6
 106 337 106 337 137 381 c 128,-1,7
 168 425 168 425 217 481 c 2,8,-1
 341 624 l 1,9,-1
 405 574 l 1,10,-1
 279 430 l 2,11,12
 238 383 238 383 211 347 c 128,-1,13
 184 311 184 311 171 279.5 c 128,-1,14
 158 248 158 248 158 213 c 0,15,16
 158 180 158 180 173 156 c 128,-1,17
 188 132 188 132 214.5 118.5 c 128,-1,18
 241 105 241 105 274 105 c 0,19,20
 318 105 318 105 352 122.5 c 128,-1,21
 386 140 386 140 417 170 c 1,22,-1
 464 112 l 1,23,24
 433 78 433 78 388.5 54 c 128,-1,25
 344 30 344 30 276 30 c 0,0,1
EndSplineSet
Substitution2: "'locl' Localized Forms lookup 98 subtable" uni096E.NEP
Substitution2: "'aalt' Access All Alternates lookup 0 subtable" uni096E.NEP
EndChar

StartChar: uni096F
Encoding: 2415 2415 122
Width: 520
GlyphClass: 2
Flags: W
AnchorPoint: "Anchor-9" 350 -40 basechar 0
AnchorPoint: "Anchor-3" 230 622 basechar 0
LayerCount: 2
Fore
SplineSet
195 375 m 1,0,1
 243 380 243 380 273.5 395 c 128,-1,2
 304 410 304 410 318.5 432 c 128,-1,3
 333 454 333 454 333 481 c 0,4,5
 333 517 333 517 313 539 c 128,-1,6
 293 561 293 561 255 561 c 0,7,8
 215 561 215 561 192 538 c 128,-1,9
 169 515 169 515 169 476 c 0,10,11
 169 438 169 438 188 406.5 c 128,-1,12
 207 375 207 375 250 339 c 2,13,-1
 346 256 l 2,14,15
 375 232 375 232 394.5 204 c 128,-1,16
 414 176 414 176 424 148 c 128,-1,17
 434 120 434 120 434 95 c 0,18,19
 434 61 434 61 422 33 c 128,-1,20
 410 5 410 5 384 -25 c 1,21,-1
 305 14 l 1,22,23
 325 32 325 32 336.5 52.5 c 128,-1,24
 348 73 348 73 348 96 c 0,25,26
 348 118 348 118 339 140 c 128,-1,27
 330 162 330 162 291 197 c 2,28,-1
 185 297 l 2,29,30
 151 328 151 328 129.5 356 c 128,-1,31
 108 384 108 384 97.5 414.5 c 128,-1,32
 87 445 87 445 87 481 c 0,33,34
 87 545 87 545 130 588.5 c 128,-1,35
 173 632 173 632 255 632 c 0,36,37
 304 632 304 632 339.5 613 c 128,-1,38
 375 594 375 594 394.5 559.5 c 128,-1,39
 414 525 414 525 414 479 c 0,40,41
 414 431 414 431 391 397.5 c 128,-1,42
 368 364 368 364 329 344 c 128,-1,43
 290 324 290 324 242 316 c 1,44,-1
 195 375 l 1,0,1
EndSplineSet
Substitution2: "'locl' Localized Forms lookup 98 subtable" uni096F.NEP
Substitution2: "'aalt' Access All Alternates lookup 0 subtable" uni096F.NEP
EndChar

StartChar: uni096B.NEP
Encoding: 1114117 -1 123
Width: 520
GlyphClass: 2
Flags: W
AnchorPoint: "Anchor-9" 350 -120 basechar 0
AnchorPoint: "Anchor-3" 230 622 basechar 0
LayerCount: 2
Fore
SplineSet
295 -108 m 1,0,1
 268 -58 268 -58 238 -9 c 128,-1,2
 208 40 208 40 172 87 c 1,3,-1
 183 124 l 1,4,5
 284 120 284 120 325 162.5 c 128,-1,6
 366 205 366 205 366 287 c 2,7,-1
 366 616 l 1,8,-1
 447 616 l 1,9,-1
 447 281 l 2,10,11
 447 201 447 201 417.5 149.5 c 128,-1,12
 388 98 388 98 334.5 74 c 128,-1,13
 281 50 281 50 207 50 c 0,14,15
 149 50 149 50 114 73.5 c 128,-1,16
 79 97 79 97 79 137 c 0,17,18
 79 164 79 164 96 180 c 128,-1,19
 113 196 113 196 141 196 c 0,20,21
 175 196 175 196 197.5 173 c 128,-1,22
 220 150 220 150 239 112 c 1,23,-1
 239 106 l 1,24,25
 277 65 277 65 308 23 c 128,-1,26
 339 -19 339 -19 367 -65 c 1,27,-1
 295 -108 l 1,0,1
243 280 m 0,28,29
 189 280 189 280 150.5 299 c 128,-1,30
 112 318 112 318 92 357.5 c 128,-1,31
 72 397 72 397 72 458 c 2,32,-1
 72 616 l 1,33,-1
 153 616 l 1,34,-1
 153 466 l 2,35,36
 153 406 153 406 175 378 c 128,-1,37
 197 350 197 350 249 350 c 0,38,39
 283 350 283 350 318 366.5 c 128,-1,40
 353 383 353 383 378 415 c 1,41,-1
 383 329 l 1,42,43
 358 305 358 305 323.5 292.5 c 128,-1,44
 289 280 289 280 243 280 c 0,28,29
EndSplineSet
EndChar

StartChar: uni096E.NEP
Encoding: 1114118 -1 124
Width: 520
GlyphClass: 2
Flags: W
AnchorPoint: "Anchor-9" 350 -40 basechar 0
AnchorPoint: "Anchor-3" 230 622 basechar 0
LayerCount: 2
Fore
SplineSet
363 37 m 1,0,1
 374 56 374 56 380 74 c 128,-1,2
 386 92 386 92 386 110 c 0,3,4
 386 133 386 133 373.5 144 c 128,-1,5
 361 155 361 155 333 155 c 2,6,-1
 305 155 l 2,7,8
 237 155 237 155 189 174.5 c 128,-1,9
 141 194 141 194 116 234.5 c 128,-1,10
 91 275 91 275 91 339 c 0,11,12
 91 383 91 383 105.5 419 c 128,-1,13
 120 455 120 455 146.5 478 c 128,-1,14
 173 501 173 501 210 504 c 1,15,-1
 246 493 l 1,16,-1
 53 493 l 1,17,-1
 53 567 l 1,18,-1
 478 567 l 1,19,-1
 478 495 l 1,20,-1
 287 495 l 1,21,-1
 323 497 l 1,22,23
 244 490 244 490 208 446 c 128,-1,24
 172 402 172 402 172 346 c 0,25,26
 172 282 172 282 205.5 254.5 c 128,-1,27
 239 227 239 227 312 227 c 2,28,-1
 334 227 l 2,29,30
 403 227 403 227 435.5 199 c 128,-1,31
 468 171 468 171 468 115 c 0,32,33
 468 90 468 90 461 63 c 128,-1,34
 454 36 454 36 439 9 c 1,35,-1
 363 37 l 1,0,1
EndSplineSet
EndChar

StartChar: uni096F.NEP
Encoding: 1114119 -1 125
Width: 520
GlyphClass: 2
Flags: W
AnchorPoint: "Anchor-9" 350 -40 basechar 0
AnchorPoint: "Anchor-3" 230 622 basechar 0
LayerCount: 2
Fore
SplineSet
176 499 m 1,0,-1
 178 583 l 1,1,2
 233 543 233 543 270 526 c 128,-1,3
 307 509 307 509 344 509 c 0,4,5
 378 509 378 509 391.5 522.5 c 128,-1,6
 405 536 405 536 405 558 c 0,7,8
 405 569 405 569 403 580.5 c 128,-1,9
 401 592 401 592 396 604 c 1,10,-1
 474 622 l 1,11,12
 480 606 480 606 483 589 c 128,-1,13
 486 572 486 572 486 554 c 0,14,15
 486 505 486 505 454.5 471 c 128,-1,16
 423 437 423 437 351 437 c 0,17,18
 305 437 305 437 261.5 452.5 c 128,-1,19
 218 468 218 468 176 499 c 1,0,-1
229 510 m 1,20,21
 198 480 198 480 178.5 438.5 c 128,-1,22
 159 397 159 397 159 351 c 0,23,24
 159 286 159 286 193.5 256.5 c 128,-1,25
 228 227 228 227 304 227 c 2,26,-1
 346 227 l 2,27,28
 415 227 415 227 447.5 199 c 128,-1,29
 480 171 480 171 480 115 c 0,30,31
 480 90 480 90 473 63 c 128,-1,32
 466 36 466 36 451 9 c 1,33,-1
 375 37 l 1,34,35
 386 56 386 56 392 74 c 128,-1,36
 398 92 398 92 398 110 c 0,37,38
 398 133 398 133 385.5 144 c 128,-1,39
 373 155 373 155 345 155 c 2,40,-1
 297 155 l 2,41,42
 227 155 227 155 178 175.5 c 128,-1,43
 129 196 129 196 103.5 239.5 c 128,-1,44
 78 283 78 283 78 351 c 0,45,46
 78 414 78 414 104.5 472 c 128,-1,47
 131 530 131 530 178 583 c 1,48,-1
 229 510 l 1,20,21
EndSplineSet
EndChar

StartChar: uni0950
Encoding: 2384 2384 126
Width: 912
Flags: W
LayerCount: 2
Fore
SplineSet
364 394 m 1,0,1
 390 366 390 366 407.5 355 c 128,-1,2
 425 344 425 344 446 344 c 0,3,4
 466 344 466 344 482.5 355.5 c 128,-1,5
 499 367 499 367 516 396 c 2,6,-1
 544 443 l 2,7,8
 577 498 577 498 615.5 522.5 c 128,-1,9
 654 547 654 547 713 547 c 0,10,11
 759 547 759 547 793.5 526 c 128,-1,12
 828 505 828 505 848 463 c 128,-1,13
 868 421 868 421 868 358 c 0,14,15
 868 298 868 298 847.5 255 c 128,-1,16
 827 212 827 212 789.5 189 c 128,-1,17
 752 166 752 166 699 166 c 0,18,19
 650 166 650 166 613.5 183.5 c 128,-1,20
 577 201 577 201 548 229 c 1,21,-1
 595 285 l 1,22,23
 617 264 617 264 641 250.5 c 128,-1,24
 665 237 665 237 696 237 c 0,25,26
 731 237 731 237 759.5 266 c 128,-1,27
 788 295 788 295 788 359 c 0,28,29
 788 413 788 413 768 444.5 c 128,-1,30
 748 476 748 476 707 476 c 0,31,32
 675 476 675 476 653 459 c 128,-1,33
 631 442 631 442 608 401 c 2,34,-1
 583 357 l 2,35,36
 562 320 562 320 533 297 c 128,-1,37
 504 274 504 274 457 274 c 0,38,39
 426 274 426 274 403.5 283 c 128,-1,40
 381 292 381 292 364.5 308 c 128,-1,41
 348 324 348 324 333 346 c 1,42,-1
 364 394 l 1,0,1
299 632 m 0,43,44
 356 632 356 632 391.5 612 c 128,-1,45
 427 592 427 592 443 559.5 c 128,-1,46
 459 527 459 527 459 488 c 0,47,48
 459 418 459 418 407.5 374 c 128,-1,49
 356 330 356 330 237 320 c 1,50,-1
 221 391 l 1,51,52
 284 399 284 399 318 411.5 c 128,-1,53
 352 424 352 424 365.5 443 c 128,-1,54
 379 462 379 462 379 489 c 0,55,56
 379 522 379 522 358 541.5 c 128,-1,57
 337 561 337 561 296 561 c 0,58,59
 262 561 262 561 229.5 551 c 128,-1,60
 197 541 197 541 165 521 c 1,61,-1
 139 591 l 1,62,63
 174 611 174 611 213.5 621.5 c 128,-1,64
 253 632 253 632 299 632 c 0,43,44
475 216 m 0,65,66
 475 167 475 167 453 132.5 c 128,-1,67
 431 98 431 98 392.5 80 c 128,-1,68
 354 62 354 62 305 62 c 0,69,70
 245 62 245 62 197.5 88.5 c 128,-1,71
 150 115 150 115 109 176.5 c 128,-1,72
 68 238 68 238 29 344 c 1,73,-1
 100 373 l 1,74,75
 141 256 141 256 187 195.5 c 128,-1,76
 233 135 233 135 298 135 c 0,77,78
 342 135 342 135 369 158.5 c 128,-1,79
 396 182 396 182 396 225 c 0,80,81
 396 269 396 269 364 301.5 c 128,-1,82
 332 334 332 334 293 356 c 1,83,-1
 337 369 l 1,84,-1
 362 378 l 1,85,86
 376 367 376 367 393 351 c 128,-1,87
 410 335 410 335 420 320 c 1,88,-1
 441 301 l 2,89,90
 458 282 458 282 466.5 260.5 c 128,-1,91
 475 239 475 239 475 216 c 0,65,66
545 793 m 256,92,93
 545 814 545 814 559.5 828 c 128,-1,94
 574 842 574 842 594 842 c 256,95,96
 614 842 614 842 628.5 828 c 128,-1,97
 643 814 643 814 643 793 c 256,98,99
 643 772 643 772 628.5 757.5 c 128,-1,100
 614 743 614 743 594 743 c 256,101,102
 574 743 574 743 559.5 757.5 c 128,-1,103
 545 772 545 772 545 793 c 256,92,93
782 794 m 1,104,105
 764 700 764 700 715.5 662 c 128,-1,106
 667 624 667 624 594 624 c 256,107,108
 521 624 521 624 472.5 662 c 128,-1,109
 424 700 424 700 406 794 c 1,110,-1
 475 816 l 1,111,112
 486 743 486 743 516.5 715.5 c 128,-1,113
 547 688 547 688 594 688 c 256,114,115
 641 688 641 688 672 715.5 c 128,-1,116
 703 743 703 743 713 816 c 1,117,-1
 782 794 l 1,104,105
EndSplineSet
EndChar

StartChar: uni0970
Encoding: 2416 2416 127
Width: 426
Flags: W
LayerCount: 2
Fore
SplineSet
213 279 m 0,0,1
 172 279 172 279 138 297 c 128,-1,2
 104 315 104 315 84 346.5 c 128,-1,3
 64 378 64 378 64 419 c 0,4,5
 64 457 64 457 82.5 488.5 c 128,-1,6
 101 520 101 520 135 539 c 128,-1,7
 169 558 169 558 213 558 c 0,8,9
 256 558 256 558 289 539.5 c 128,-1,10
 322 521 322 521 341.5 490 c 128,-1,11
 361 459 361 459 361 419 c 0,12,13
 361 380 361 380 341.5 348 c 128,-1,14
 322 316 322 316 289 297.5 c 128,-1,15
 256 279 256 279 213 279 c 0,0,1
213 345 m 0,16,17
 248 345 248 345 269.5 365.5 c 128,-1,18
 291 386 291 386 291 419 c 0,19,20
 291 451 291 451 269.5 471.5 c 128,-1,21
 248 492 248 492 213 492 c 0,22,23
 176 492 176 492 155 470.5 c 128,-1,24
 134 449 134 449 134 419 c 0,25,26
 134 386 134 386 156.5 365.5 c 128,-1,27
 179 345 179 345 213 345 c 0,16,17
EndSplineSet
EndChar

StartChar: uni0964
Encoding: 2404 2404 128
Width: 379
Flags: W
LayerCount: 2
Fore
SplineSet
194 622 m 1,0,-1
 275 622 l 1,1,-1
 275 0 l 1,2,-1
 194 0 l 1,3,-1
 194 622 l 1,0,-1
EndSplineSet
EndChar

StartChar: uni0965
Encoding: 2405 2405 129
Width: 599
Flags: W
LayerCount: 2
Fore
SplineSet
414 622 m 1,0,-1
 495 622 l 1,1,-1
 495 0 l 1,2,-1
 414 0 l 1,3,-1
 414 622 l 1,0,-1
194 622 m 1,4,-1
 275 622 l 1,5,-1
 275 0 l 1,6,-1
 194 0 l 1,7,-1
 194 622 l 1,4,-1
EndSplineSet
EndChar

StartChar: karshanavedic
Encoding: 7376 7376 130
Width: 0
GlyphClass: 4
Flags: W
LayerCount: 2
Fore
SplineSet
-357 973 m 1,0,-1
 -219 1222 l 1,1,-1
 -158 1222 l 1,2,-1
 -4 975 l 1,3,-1
 -58 948 l 1,4,-1
 -185 1161 l 1,5,-1
 -298 948 l 1,6,-1
 -357 973 l 1,0,-1
EndSplineSet
MultipleSubs2: "Multiple Substitution lookup 70 subtable" karshanavedic uni0903
Position2: "Single Positioning lookup 8 subtable" dx=60 dy=0 dh=0 dv=0
Position2: "Single Positioning lookup 7 subtable" dx=-120 dy=0 dh=0 dv=0
Position2: "Single Positioning lookup 1 subtable" dx=-200 dy=0 dh=0 dv=0
Position2: "Single Positioning lookup 0 per glyph data 0" dx=0 dy=-347 dh=0 dv=0
EndChar

StartChar: sharavedic
Encoding: 7377 7377 131
Width: 0
GlyphClass: 4
Flags: W
LayerCount: 2
Fore
SplineSet
-357 989 m 1,0,-1
 -219 1239 l 1,1,-1
 -158 1239 l 1,2,-1
 -4 991 l 1,3,-1
 -58 965 l 1,4,-1
 -185 1178 l 1,5,-1
 -298 965 l 1,6,-1
 -357 989 l 1,0,-1
-211 1098 m 1,7,-1
 -150 1098 l 1,8,-1
 -150 909 l 1,9,-1
 -211 909 l 1,10,-1
 -211 1098 l 1,7,-1
EndSplineSet
MultipleSubs2: "Multiple Substitution lookup 70 subtable" sharavedic uni0903
Position2: "Single Positioning lookup 8 subtable" dx=60 dy=0 dh=0 dv=0
Position2: "Single Positioning lookup 7 subtable" dx=-120 dy=0 dh=0 dv=0
Position2: "Single Positioning lookup 1 subtable" dx=-200 dy=0 dh=0 dv=0
Position2: "Single Positioning lookup 0 per glyph data 0" dx=0 dy=-347 dh=0 dv=0
EndChar

StartChar: prenkhavedic
Encoding: 7378 7378 132
Width: 0
GlyphClass: 4
Flags: W
LayerCount: 2
Fore
SplineSet
-344 1057 m 1,0,-1
 -16 1057 l 1,1,-1
 -16 990 l 1,2,-1
 -344 990 l 1,3,-1
 -344 1057 l 1,0,-1
EndSplineSet
MultipleSubs2: "Multiple Substitution lookup 70 subtable" prenkhavedic uni0903
Position2: "Single Positioning lookup 8 subtable" dx=60 dy=0 dh=0 dv=0
Position2: "Single Positioning lookup 7 subtable" dx=-120 dy=0 dh=0 dv=0
Position2: "Single Positioning lookup 1 subtable" dx=-200 dy=0 dh=0 dv=0
Position2: "Single Positioning lookup 0 per glyph data 0" dx=0 dy=-347 dh=0 dv=0
EndChar

StartChar: nihshvasavedic
Encoding: 7379 7379 133
Width: 274
Flags: W
LayerCount: 2
Fore
SplineSet
189 896 m 1,0,-1
 243 896 l 1,1,-1
 213 659 l 1,2,-1
 160 659 l 1,3,-1
 189 896 l 1,0,-1
79 896 m 1,4,-1
 133 896 l 1,5,-1
 104 659 l 1,6,-1
 50 659 l 1,7,-1
 79 896 l 1,4,-1
EndSplineSet
MultipleSubs2: "Multiple Substitution lookup 70 subtable" nihshvasavedic uni0903
EndChar

StartChar: yajurvedicSvaritavedic
Encoding: 7380 7380 134
Width: 0
GlyphClass: 4
Flags: W
LayerCount: 2
Fore
SplineSet
-271 333 m 1,0,-1
 14 333 l 1,1,-1
 14 262 l 1,2,-1
 -271 262 l 1,3,-1
 -271 333 l 1,0,-1
EndSplineSet
MultipleSubs2: "Multiple Substitution lookup 70 subtable" yajurvedicSvaritavedic uni0903
EndChar

StartChar: yajurvedicAggravatedIndependentSvaritavedic
Encoding: 7381 7381 135
Width: 0
GlyphClass: 4
Flags: W
AnchorPoint: "Anchor-13" -169 -40 mark 0
AnchorPoint: "Anchor-9" -169 -40 mark 0
LayerCount: 2
Fore
SplineSet
-216 -65 m 1,0,1
 -226 -123 -226 -123 -241.5 -159 c 128,-1,2
 -257 -195 -257 -195 -280.5 -212 c 128,-1,3
 -304 -229 -304 -229 -341 -229 c 0,4,5
 -377 -229 -377 -229 -403.5 -214 c 128,-1,6
 -430 -199 -430 -199 -445 -163.5 c 128,-1,7
 -460 -128 -460 -128 -463 -67 c 1,8,-1
 -389 -63 l 1,9,10
 -387 -123 -387 -123 -373 -142.5 c 128,-1,11
 -359 -162 -359 -162 -334 -162 c 0,12,13
 -307 -162 -307 -162 -294 -139.5 c 128,-1,14
 -281 -117 -281 -117 -280 -65 c 1,15,-1
 -216 -65 l 1,0,1
-212 -65 m 1,16,17
 -210 -117 -210 -117 -197.5 -139.5 c 128,-1,18
 -185 -162 -185 -162 -158 -162 c 0,19,20
 -133 -162 -133 -162 -119 -142.5 c 128,-1,21
 -105 -123 -105 -123 -104 -63 c 1,22,-1
 -29 -67 l 1,23,24
 -31 -128 -31 -128 -46.5 -163.5 c 128,-1,25
 -62 -199 -62 -199 -88.5 -214 c 128,-1,26
 -115 -229 -115 -229 -151 -229 c 256,27,28
 -187 -229 -187 -229 -211 -212 c 128,-1,29
 -235 -195 -235 -195 -250 -159 c 128,-1,30
 -265 -123 -265 -123 -276 -65 c 1,31,-1
 -212 -65 l 1,16,17
EndSplineSet
Substitution2: "Single Substitution lookup 78 subtable" yajurvedicAggravatedIndependentSvaritavedic.alt01
MultipleSubs2: "Multiple Substitution lookup 70 subtable" yajurvedicAggravatedIndependentSvaritavedic uni0903
EndChar

StartChar: yajurvedicIndependentSvaritavedic
Encoding: 7382 7382 136
Width: 0
GlyphClass: 4
Flags: W
AnchorPoint: "Anchor-13" -169 -40 mark 0
AnchorPoint: "Anchor-9" -169 -40 mark 0
LayerCount: 2
Fore
SplineSet
-432 -55 m 1,0,-1
 -354 -55 l 1,1,-1
 -354 -163 l 1,2,-1
 -84 -163 l 1,3,-1
 -84 -232 l 1,4,-1
 -432 -232 l 1,5,-1
 -432 -55 l 1,0,-1
EndSplineSet
Substitution2: "Single Substitution lookup 78 subtable" yajurvedicIndependentSvaritavedic.alt01
MultipleSubs2: "Multiple Substitution lookup 70 subtable" yajurvedicIndependentSvaritavedic uni0903
EndChar

StartChar: yajurvedicKathakaSvaritavedic
Encoding: 7383 7383 137
Width: 0
GlyphClass: 4
Flags: W
AnchorPoint: "Anchor-13" -169 -40 mark 0
AnchorPoint: "Anchor-9" -169 -40 mark 0
LayerCount: 2
Fore
SplineSet
-443 -145 m 0,0,1
 -443 -109 -443 -109 -425.5 -84.5 c 128,-1,2
 -408 -60 -408 -60 -377 -47 c 128,-1,3
 -346 -34 -346 -34 -306 -34 c 1,4,-1
 -301 -105 l 1,5,-1
 -314 -105 l 2,6,7
 -336 -105 -336 -105 -351.5 -114.5 c 128,-1,8
 -367 -124 -367 -124 -367 -148 c 0,9,10
 -367 -156 -367 -156 -364.5 -164 c 128,-1,11
 -362 -172 -362 -172 -355 -177 c 0,12,13
 -349 -183 -349 -183 -336.5 -186 c 128,-1,14
 -324 -189 -324 -189 -296 -189 c 2,15,-1
 -85 -189 l 1,16,-1
 -85 -258 l 1,17,-1
 -300 -258 l 2,18,19
 -346 -258 -346 -258 -368 -250 c 128,-1,20
 -390 -242 -390 -242 -407 -229 c 0,21,22
 -426 -214 -426 -214 -434.5 -192 c 128,-1,23
 -443 -170 -443 -170 -443 -145 c 0,0,1
EndSplineSet
Substitution2: "Single Substitution lookup 78 subtable" yajurvedicKathakaSvaritavedic.alt01
MultipleSubs2: "Multiple Substitution lookup 70 subtable" yajurvedicKathakaSvaritavedic uni0903
EndChar

StartChar: candraBelowvedic
Encoding: 7384 7384 138
Width: 0
GlyphClass: 4
Flags: W
AnchorPoint: "Anchor-13" -169 -40 mark 0
AnchorPoint: "Anchor-9" -169 -40 mark 0
LayerCount: 2
Fore
SplineSet
-81 -90 m 1,0,1
 -99 -184 -99 -184 -147.5 -221 c 128,-1,2
 -196 -258 -196 -258 -269 -258 c 256,3,4
 -342 -258 -342 -258 -390.5 -221 c 128,-1,5
 -439 -184 -439 -184 -457 -90 c 1,6,-1
 -384 -68 l 1,7,8
 -371 -138 -371 -138 -343 -163.5 c 128,-1,9
 -315 -189 -315 -189 -269 -189 c 256,10,11
 -223 -189 -223 -189 -195 -163.5 c 128,-1,12
 -167 -138 -167 -138 -154 -68 c 1,13,-1
 -81 -90 l 1,0,1
EndSplineSet
Substitution2: "Single Substitution lookup 78 subtable" candraBelowvedic.alt01
MultipleSubs2: "Multiple Substitution lookup 70 subtable" candraBelowvedic uni0903
EndChar

StartChar: yajurvedicKathakaSvaritaSchroedervedic
Encoding: 7385 7385 139
Width: 0
GlyphClass: 4
Flags: W
AnchorPoint: "Anchor-13" -169 -40 mark 0
AnchorPoint: "Anchor-9" -169 -40 mark 0
LayerCount: 2
Fore
SplineSet
-481 -186 m 1,0,-1
 -290 -28 l 1,1,-1
 -250 -28 l 1,2,-1
 -66 -186 l 1,3,-1
 -123 -241 l 1,4,-1
 -272 -101 l 1,5,-1
 -424 -241 l 1,6,-1
 -481 -186 l 1,0,-1
EndSplineSet
Substitution2: "Single Substitution lookup 78 subtable" yajurvedicKathakaSvaritaSchroedervedic.alt01
MultipleSubs2: "Multiple Substitution lookup 70 subtable" yajurvedicKathakaSvaritaSchroedervedic uni0903
EndChar

StartChar: doubleSvaritavedic
Encoding: 7386 7386 140
Width: 0
GlyphClass: 4
Flags: W
AnchorPoint: "Anchor-21" -170 622 mark 0
AnchorPoint: "Anchor-19" -210 622 mark 0
AnchorPoint: "Anchor-18" -170 622 mark 0
AnchorPoint: "Anchor-7" -210 622 mark 0
AnchorPoint: "Anchor-4" -210 622 mark 0
AnchorPoint: "Anchor-3" -170 622 mark 0
LayerCount: 2
Fore
SplineSet
-104 872 m 1,0,-1
 -36 872 l 1,1,-1
 -36 671 l 1,2,-1
 -104 671 l 1,3,-1
 -104 872 l 1,0,-1
-224 872 m 1,4,-1
 -156 872 l 1,5,-1
 -156 671 l 1,6,-1
 -224 671 l 1,7,-1
 -224 872 l 1,4,-1
EndSplineSet
Substitution2: "Single Substitution lookup 204 subtable" doubleSvaritavedic.alt05
Substitution2: "Single Substitution lookup 203 subtable" doubleSvaritavedic.alt04
Substitution2: "Single Substitution lookup 202 subtable" doubleSvaritavedic.alt03
Substitution2: "Single Substitution lookup 201 subtable" doubleSvaritavedic.alt02
Substitution2: "Single Substitution lookup 200 subtable" doubleSvaritavedic.alt01
MultipleSubs2: "Multiple Substitution lookup 70 subtable" doubleSvaritavedic uni0903
EndChar

StartChar: tripleSvaritavedic
Encoding: 7387 7387 141
Width: 0
GlyphClass: 4
Flags: W
AnchorPoint: "Anchor-21" -170 622 mark 0
AnchorPoint: "Anchor-18" -170 622 mark 0
AnchorPoint: "Anchor-3" -170 622 mark 0
LayerCount: 2
Fore
SplineSet
-271 872 m 1,0,-1
 -207 872 l 1,1,-1
 -207 671 l 1,2,-1
 -271 671 l 1,3,-1
 -271 872 l 1,0,-1
-162 872 m 1,4,-1
 -98 872 l 1,5,-1
 -98 671 l 1,6,-1
 -162 671 l 1,7,-1
 -162 872 l 1,4,-1
-53 872 m 1,8,-1
 11 872 l 1,9,-1
 11 671 l 1,10,-1
 -53 671 l 1,11,-1
 -53 872 l 1,8,-1
EndSplineSet
MultipleSubs2: "Multiple Substitution lookup 70 subtable" tripleSvaritavedic uni0903
EndChar

StartChar: kathakaAnudattavedic
Encoding: 7388 7388 142
Width: 0
GlyphClass: 4
Flags: W
AnchorPoint: "Anchor-13" -169 -40 mark 0
AnchorPoint: "Anchor-9" -169 -40 mark 0
LayerCount: 2
Fore
SplineSet
-233 -250 m 1,0,-1
 -304 -250 l 1,1,-1
 -304 -49 l 1,2,-1
 -233 -49 l 1,3,-1
 -233 -250 l 1,0,-1
EndSplineSet
Substitution2: "Single Substitution lookup 78 subtable" kathakaAnudattavedic.alt01
MultipleSubs2: "Multiple Substitution lookup 70 subtable" kathakaAnudattavedic uni0903
EndChar

StartChar: dotBelowvedic
Encoding: 7389 7389 143
Width: 0
GlyphClass: 4
Flags: W
AnchorPoint: "Anchor-13" -169 -40 mark 0
AnchorPoint: "Anchor-9" -169 -40 mark 0
LayerCount: 2
Fore
SplineSet
-186 -174 m 1,0,-1
 -264 -256 l 1,1,-1
 -343 -174 l 1,2,-1
 -264 -91 l 1,3,-1
 -186 -174 l 1,0,-1
EndSplineSet
Substitution2: "Single Substitution lookup 78 subtable" dotBelowvedic.alt01
MultipleSubs2: "Multiple Substitution lookup 70 subtable" dotBelowvedic uni0903
EndChar

StartChar: twoDotsBelowvedic
Encoding: 7390 7390 144
Width: 0
GlyphClass: 4
Flags: W
AnchorPoint: "Anchor-13" -169 -40 mark 0
AnchorPoint: "Anchor-9" -169 -40 mark 0
LayerCount: 2
Fore
SplineSet
-216 -125 m 0,0,1
 -216 -102 -216 -102 -200.5 -85.5 c 128,-1,2
 -185 -69 -185 -69 -163 -69 c 0,3,4
 -142 -69 -142 -69 -126.5 -85.5 c 128,-1,5
 -111 -102 -111 -102 -111 -125 c 0,6,7
 -111 -147 -111 -147 -126.5 -163.5 c 128,-1,8
 -142 -180 -142 -180 -163 -180 c 0,9,10
 -185 -180 -185 -180 -200.5 -163.5 c 128,-1,11
 -216 -147 -216 -147 -216 -125 c 0,0,1
-357 -125 m 0,12,13
 -357 -102 -357 -102 -342 -85.5 c 128,-1,14
 -327 -69 -327 -69 -305 -69 c 256,15,16
 -283 -69 -283 -69 -268 -85.5 c 128,-1,17
 -253 -102 -253 -102 -253 -125 c 0,18,19
 -253 -147 -253 -147 -268 -163.5 c 128,-1,20
 -283 -180 -283 -180 -305 -180 c 256,21,22
 -327 -180 -327 -180 -342 -163.5 c 128,-1,23
 -357 -147 -357 -147 -357 -125 c 0,12,13
EndSplineSet
Substitution2: "Single Substitution lookup 78 subtable" twoDotsBelowvedic.alt01
MultipleSubs2: "Multiple Substitution lookup 70 subtable" twoDotsBelowvedic uni0903
EndChar

StartChar: threeDotsBelowvedic
Encoding: 7391 7391 145
Width: 0
GlyphClass: 4
Flags: W
AnchorPoint: "Anchor-13" -169 -40 mark 0
AnchorPoint: "Anchor-9" -169 -40 mark 0
LayerCount: 2
Fore
SplineSet
-179 -125 m 0,0,1
 -179 -102 -179 -102 -163.5 -85.5 c 128,-1,2
 -148 -69 -148 -69 -126 -69 c 0,3,4
 -105 -69 -105 -69 -89.5 -85.5 c 128,-1,5
 -74 -102 -74 -102 -74 -125 c 0,6,7
 -74 -147 -74 -147 -89.5 -163.5 c 128,-1,8
 -105 -180 -105 -180 -126 -180 c 0,9,10
 -148 -180 -148 -180 -163.5 -163.5 c 128,-1,11
 -179 -147 -179 -147 -179 -125 c 0,0,1
-320 -125 m 0,12,13
 -320 -102 -320 -102 -305 -85.5 c 128,-1,14
 -290 -69 -290 -69 -268 -69 c 256,15,16
 -246 -69 -246 -69 -231 -85.5 c 128,-1,17
 -216 -102 -216 -102 -216 -125 c 0,18,19
 -216 -147 -216 -147 -231 -163.5 c 128,-1,20
 -246 -180 -246 -180 -268 -180 c 256,21,22
 -290 -180 -290 -180 -305 -163.5 c 128,-1,23
 -320 -147 -320 -147 -320 -125 c 0,12,13
-462 -125 m 0,24,25
 -462 -102 -462 -102 -446.5 -85.5 c 128,-1,26
 -431 -69 -431 -69 -410 -69 c 0,27,28
 -388 -69 -388 -69 -372.5 -85.5 c 128,-1,29
 -357 -102 -357 -102 -357 -125 c 0,30,31
 -357 -147 -357 -147 -372.5 -163.5 c 128,-1,32
 -388 -180 -388 -180 -410 -180 c 0,33,34
 -431 -180 -431 -180 -446.5 -163.5 c 128,-1,35
 -462 -147 -462 -147 -462 -125 c 0,24,25
EndSplineSet
Substitution2: "Single Substitution lookup 78 subtable" threeDotsBelowvedic.alt01
MultipleSubs2: "Multiple Substitution lookup 70 subtable" threeDotsBelowvedic uni0903
EndChar

StartChar: rigvedicKashmiriIndependentSvaritavedic
Encoding: 7392 7392 146
Width: 442
Flags: W
LayerCount: 2
Fore
SplineSet
41 673 m 0,0,1
 41 707 41 707 51.5 730.5 c 128,-1,2
 62 754 62 754 82 768 c 0,3,4
 103 783 103 783 130.5 790 c 128,-1,5
 158 797 158 797 209 797 c 2,6,-1
 432 797 l 1,7,-1
 432 726 l 1,8,-1
 213 726 l 2,9,10
 185 726 185 726 169.5 723.5 c 128,-1,11
 154 721 154 721 143 715 c 0,12,13
 133 710 133 710 127 699.5 c 128,-1,14
 121 689 121 689 121 672 c 0,15,16
 121 644 121 644 138.5 633 c 128,-1,17
 156 622 156 622 183 622 c 2,18,-1
 197 622 l 1,19,-1
 197 553 l 1,20,-1
 182 553 l 2,21,22
 141 553 141 553 109 567 c 128,-1,23
 77 581 77 581 59 608 c 128,-1,24
 41 635 41 635 41 673 c 0,0,1
EndSplineSet
MultipleSubs2: "Multiple Substitution lookup 70 subtable" rigvedicKashmiriIndependentSvaritavedic uni0903
EndChar

StartChar: atharvavedicIndependentSvaritavedic
Encoding: 7393 7393 147
Width: 396
Flags: W
LayerCount: 2
Fore
SplineSet
382 743 m 1,0,1
 363 763 363 763 344 772.5 c 128,-1,2
 325 782 325 782 301 782 c 0,3,4
 264 782 264 782 243 757.5 c 128,-1,5
 222 733 222 733 222 680 c 0,6,7
 222 620 222 620 228.5 554.5 c 128,-1,8
 235 489 235 489 243 416 c 128,-1,9
 251 343 251 343 257.5 261.5 c 128,-1,10
 264 180 264 180 264 87 c 0,11,12
 264 36 264 36 253.5 -9.5 c 128,-1,13
 243 -55 243 -55 217 -89.5 c 128,-1,14
 191 -124 191 -124 143 -144 c 128,-1,15
 95 -164 95 -164 20 -164 c 0,16,17
 6 -164 6 -164 -11 -163 c 128,-1,18
 -28 -162 -28 -162 -37 -161 c 1,19,-1
 -35 -86 l 1,20,21
 -25 -87 -25 -87 -11.5 -88 c 128,-1,22
 2 -89 2 -89 16 -89 c 0,23,24
 85 -89 85 -89 121 -67 c 128,-1,25
 157 -45 157 -45 170 -4 c 128,-1,26
 183 37 183 37 183 93 c 0,27,28
 183 198 183 198 172.5 299 c 128,-1,29
 162 400 162 400 151.5 497.5 c 128,-1,30
 141 595 141 595 141 686 c 0,31,32
 141 740 141 740 159.5 778 c 128,-1,33
 178 816 178 816 212.5 835.5 c 128,-1,34
 247 855 247 855 295 855 c 0,35,36
 339 855 339 855 373.5 839.5 c 128,-1,37
 408 824 408 824 438 792 c 1,38,-1
 382 743 l 1,0,1
EndSplineSet
Substitution2: "Single Substitution lookup 208 subtable" atharvavedicIndependentSvaritavedic.alt
EndChar

StartChar: visargaSvaritavedic
Encoding: 7394 7394 148
Width: 0
GlyphClass: 4
Flags: W
LayerCount: 2
Fore
SplineSet
-270 312 m 1,0,-1
 13 312 l 1,1,-1
 13 240 l 1,2,-1
 -270 240 l 1,3,-1
 -270 312 l 1,0,-1
EndSplineSet
EndChar

StartChar: visargaUdattavedic
Encoding: 7395 7395 149
Width: 184
GlyphClass: 4
Flags: W
LayerCount: 2
Fore
SplineSet
-31 585 m 1,0,1
 -7 567 -7 567 14.5 549 c 128,-1,2
 36 531 36 531 58 511 c 0,3,4
 96 477 96 477 115.5 451.5 c 128,-1,5
 135 426 135 426 142 403 c 128,-1,6
 149 380 149 380 149 354 c 0,7,8
 149 324 149 324 136.5 302.5 c 128,-1,9
 124 281 124 281 101 267 c 0,10,11
 88 259 88 259 72 253 c 128,-1,12
 56 247 56 247 30 244 c 128,-1,13
 4 241 4 241 -38 241 c 2,14,-1
 -150 241 l 1,15,-1
 -150 312 l 1,16,-1
 -28 312 l 2,17,18
 10 312 10 312 24.5 314.5 c 128,-1,19
 39 317 39 317 48 322 c 0,20,21
 58 328 58 328 64 338 c 128,-1,22
 70 348 70 348 70 362 c 0,23,24
 70 386 70 386 53 410 c 128,-1,25
 36 434 36 434 -9 472 c 0,26,27
 -25 486 -25 486 -43 500.5 c 128,-1,28
 -61 515 -61 515 -78 527 c 1,29,-1
 -31 585 l 1,0,1
EndSplineSet
EndChar

StartChar: reversedVisargaUdattavedic
Encoding: 7396 7396 150
Width: 185
GlyphClass: 4
Flags: W
LayerCount: 2
Fore
SplineSet
263 527 m 1,0,1
 247 515 247 515 229 500.5 c 128,-1,2
 211 486 211 486 194 472 c 0,3,4
 149 434 149 434 132 410 c 128,-1,5
 115 386 115 386 115 362 c 0,6,7
 115 348 115 348 121 338 c 128,-1,8
 127 328 127 328 137 322 c 0,9,10
 146 317 146 317 160.5 314.5 c 128,-1,11
 175 312 175 312 213 312 c 2,12,-1
 335 312 l 1,13,-1
 335 241 l 1,14,-1
 223 241 l 2,15,16
 181 241 181 241 155 244 c 128,-1,17
 129 247 129 247 113 253 c 128,-1,18
 97 259 97 259 83 267 c 0,19,20
 61 281 61 281 48.5 302.5 c 128,-1,21
 36 324 36 324 36 354 c 0,22,23
 36 380 36 380 43 403 c 128,-1,24
 50 426 50 426 69.5 451.5 c 128,-1,25
 89 477 89 477 127 511 c 0,26,27
 150 531 150 531 171 549 c 128,-1,28
 192 567 192 567 216 585 c 1,29,-1
 263 527 l 1,0,1
EndSplineSet
MultipleSubs2: "Multiple Substitution lookup 70 subtable" reversedVisargaUdattavedic uni0903.alt
EndChar

StartChar: visargaAnudattavedic
Encoding: 7397 7397 151
Width: 185
GlyphClass: 4
Flags: W
LayerCount: 2
Fore
SplineSet
216 -33 m 1,0,1
 192 -14 192 -14 171 4 c 128,-1,2
 150 22 150 22 127 42 c 0,3,4
 89 76 89 76 69.5 101.5 c 128,-1,5
 50 127 50 127 43 150 c 128,-1,6
 36 173 36 173 36 199 c 0,7,8
 36 228 36 228 48.5 250 c 128,-1,9
 61 272 61 272 83 286 c 0,10,11
 97 295 97 295 113 300.5 c 128,-1,12
 129 306 129 306 155 309 c 128,-1,13
 181 312 181 312 223 312 c 2,14,-1
 335 312 l 1,15,-1
 335 241 l 1,16,-1
 213 241 l 2,17,18
 175 241 175 241 160.5 238 c 128,-1,19
 146 235 146 235 137 230 c 0,20,21
 127 225 127 225 121 215 c 128,-1,22
 115 205 115 205 115 191 c 0,23,24
 115 167 115 167 132 143 c 128,-1,25
 149 119 149 119 194 81 c 0,26,27
 211 67 211 67 229 52.5 c 128,-1,28
 247 38 247 38 263 26 c 1,29,-1
 216 -33 l 1,0,1
EndSplineSet
MultipleSubs2: "Multiple Substitution lookup 70 subtable" visargaAnudattavedic uni0903.alt
EndChar

StartChar: reversedVisargaAnudattavedic
Encoding: 7398 7398 152
Width: 184
GlyphClass: 4
Flags: W
LayerCount: 2
Fore
SplineSet
-78 26 m 1,0,1
 -61 38 -61 38 -43 52.5 c 128,-1,2
 -25 67 -25 67 -9 81 c 0,3,4
 36 119 36 119 53 143 c 128,-1,5
 70 167 70 167 70 191 c 0,6,7
 70 205 70 205 64 215 c 128,-1,8
 58 225 58 225 48 230 c 0,9,10
 39 235 39 235 24.5 238 c 128,-1,11
 10 241 10 241 -28 241 c 2,12,-1
 -150 241 l 1,13,-1
 -150 312 l 1,14,-1
 -38 312 l 2,15,16
 4 312 4 312 30 309 c 128,-1,17
 56 306 56 306 72 300.5 c 128,-1,18
 88 295 88 295 101 286 c 0,19,20
 124 272 124 272 136.5 250 c 128,-1,21
 149 228 149 228 149 199 c 0,22,23
 149 173 149 173 142 150 c 128,-1,24
 135 127 135 127 115.5 101.5 c 128,-1,25
 96 76 96 76 58 42 c 0,26,27
 36 22 36 22 14.5 4 c 128,-1,28
 -7 -14 -7 -14 -31 -33 c 1,29,-1
 -78 26 l 1,0,1
EndSplineSet
EndChar

StartChar: visargaUdattaTailvedic
Encoding: 7399 7399 153
Width: 263
GlyphClass: 4
Flags: W
LayerCount: 2
Fore
SplineSet
-135 312 m 1,0,-1
 -13 312 l 2,1,2
 25 312 25 312 39.5 314.5 c 128,-1,3
 54 317 54 317 63 322 c 0,4,5
 73 328 73 328 79 338 c 128,-1,6
 85 348 85 348 85 362 c 0,7,8
 85 378 85 378 78.5 391.5 c 128,-1,9
 72 405 72 405 56.5 420.5 c 128,-1,10
 41 436 41 436 14 458 c 0,11,12
 -29 494 -29 494 -54 522 c 128,-1,13
 -79 550 -79 550 -90 577 c 128,-1,14
 -101 604 -101 604 -101 637 c 0,15,16
 -101 674 -101 674 -83.5 702.5 c 128,-1,17
 -66 731 -66 731 -34 748 c 128,-1,18
 -2 765 -2 765 40 765 c 0,19,20
 80 765 80 765 113.5 751.5 c 128,-1,21
 147 738 147 738 177.5 707 c 128,-1,22
 208 676 208 676 239 623 c 1,23,-1
 173 590 l 1,24,25
 142 640 142 640 112.5 667 c 128,-1,26
 83 694 83 694 43 694 c 0,27,28
 10 694 10 694 -6 677 c 128,-1,29
 -22 660 -22 660 -22 635 c 0,30,31
 -22 615 -22 615 -14 597 c 128,-1,32
 -6 579 -6 579 12.5 559.5 c 128,-1,33
 31 540 31 540 64 513 c 0,34,35
 105 479 105 479 126.5 453.5 c 128,-1,36
 148 428 148 428 156 404.5 c 128,-1,37
 164 381 164 381 164 354 c 0,38,39
 164 324 164 324 151.5 302.5 c 128,-1,40
 139 281 139 281 116 267 c 0,41,42
 103 259 103 259 87 253 c 128,-1,43
 71 247 71 247 45 244 c 128,-1,44
 19 241 19 241 -23 241 c 2,45,-1
 -135 241 l 1,46,-1
 -135 312 l 1,0,-1
EndSplineSet
EndChar

StartChar: visargaAnudattaTailvedic
Encoding: 7400 7400 154
Width: 205
GlyphClass: 4
Flags: W
LayerCount: 2
Fore
SplineSet
340 241 m 1,0,-1
 218 241 l 2,1,2
 180 241 180 241 165.5 238 c 128,-1,3
 151 235 151 235 142 230 c 0,4,5
 132 225 132 225 126 215 c 128,-1,6
 120 205 120 205 120 191 c 0,7,8
 120 175 120 175 126.5 161.5 c 128,-1,9
 133 148 133 148 148.5 132.5 c 128,-1,10
 164 117 164 117 190 94 c 0,11,12
 234 58 234 58 259 30.5 c 128,-1,13
 284 3 284 3 295 -24 c 128,-1,14
 306 -51 306 -51 306 -84 c 0,15,16
 306 -120 306 -120 288.5 -149 c 128,-1,17
 271 -178 271 -178 239.5 -195 c 128,-1,18
 208 -212 208 -212 165 -212 c 0,19,20
 125 -212 125 -212 91.5 -198.5 c 128,-1,21
 58 -185 58 -185 28 -153.5 c 128,-1,22
 -2 -122 -2 -122 -34 -70 c 1,23,-1
 32 -37 l 1,24,25
 63 -87 63 -87 92.5 -114 c 128,-1,26
 122 -141 122 -141 162 -141 c 0,27,28
 195 -141 195 -141 211 -124 c 128,-1,29
 227 -107 227 -107 227 -83 c 0,30,31
 227 -62 227 -62 219 -44.5 c 128,-1,32
 211 -27 211 -27 192.5 -7 c 128,-1,33
 174 13 174 13 141 40 c 0,34,35
 100 74 100 74 78.5 99.5 c 128,-1,36
 57 125 57 125 49 148.5 c 128,-1,37
 41 172 41 172 41 199 c 0,38,39
 41 228 41 228 53.5 250 c 128,-1,40
 66 272 66 272 88 286 c 0,41,42
 102 295 102 295 118 300.5 c 128,-1,43
 134 306 134 306 160 309 c 128,-1,44
 186 312 186 312 228 312 c 2,45,-1
 340 312 l 1,46,-1
 340 241 l 1,0,-1
EndSplineSet
MultipleSubs2: "Multiple Substitution lookup 70 subtable" visargaAnudattaTailvedic uni0903.alt
EndChar

StartChar: anusvaraAntargomukhavedic
Encoding: 7401 7401 155
Width: 798
GlyphClass: 2
Flags: W
AnchorPoint: "Anchor-9" 490 -40 basechar 0
AnchorPoint: "Anchor-3" 361 622 basechar 0
LayerCount: 2
Fore
SplineSet
405 0 m 0,0,1
 286 0 286 0 207 45 c 128,-1,2
 128 90 128 90 89.5 169 c 128,-1,3
 51 248 51 248 51 350 c 0,4,5
 51 442 51 442 76 505 c 128,-1,6
 101 568 101 568 145.5 600 c 128,-1,7
 190 632 190 632 247 632 c 0,8,9
 287 632 287 632 315.5 615.5 c 128,-1,10
 344 599 344 599 359.5 570 c 128,-1,11
 375 541 375 541 375 504 c 0,12,13
 375 446 375 446 336.5 406.5 c 128,-1,14
 298 367 298 367 217 367 c 0,15,16
 196 367 196 367 180.5 370 c 128,-1,17
 165 373 165 373 159 376 c 1,18,-1
 172 441 l 1,19,20
 181 439 181 439 191 437.5 c 128,-1,21
 201 436 201 436 212 436 c 0,22,23
 259 436 259 436 282 454.5 c 128,-1,24
 305 473 305 473 305 503 c 0,25,26
 305 532 305 532 287 548 c 128,-1,27
 269 564 269 564 243 564 c 0,28,29
 209 564 209 564 184 538.5 c 128,-1,30
 159 513 159 513 145.5 464.5 c 128,-1,31
 132 416 132 416 132 347 c 2,32,-1
 132 340 l 2,33,34
 132 286 132 286 147 238 c 128,-1,35
 162 190 162 190 193.5 153 c 128,-1,36
 225 116 225 116 275.5 95 c 128,-1,37
 326 74 326 74 396 74 c 0,38,39
 474 74 474 74 527 97 c 128,-1,40
 580 120 580 120 611.5 159 c 128,-1,41
 643 198 643 198 657 247.5 c 128,-1,42
 671 297 671 297 671 351 c 2,43,-1
 671 355 l 2,44,45
 671 420 671 420 658 466.5 c 128,-1,46
 645 513 645 513 621 538.5 c 128,-1,47
 597 564 597 564 563 564 c 0,48,49
 533 564 533 564 515.5 548 c 128,-1,50
 498 532 498 532 498 503 c 0,51,52
 498 475 498 475 521 455.5 c 128,-1,53
 544 436 544 436 596 436 c 0,54,55
 607 436 607 436 615.5 437.5 c 128,-1,56
 624 439 624 439 633 441 c 1,57,-1
 643 373 l 1,58,59
 630 369 630 369 615 368 c 128,-1,60
 600 367 600 367 589 367 c 0,61,62
 549 367 549 367 519 377.5 c 128,-1,63
 489 388 489 388 468.5 406.5 c 128,-1,64
 448 425 448 425 437.5 450 c 128,-1,65
 427 475 427 475 427 504 c 0,66,67
 427 544 427 544 443 572.5 c 128,-1,68
 459 601 459 601 489.5 616.5 c 128,-1,69
 520 632 520 632 561 632 c 0,70,71
 617 632 617 632 659.5 599.5 c 128,-1,72
 702 567 702 567 726.5 503.5 c 128,-1,73
 751 440 751 440 751 347 c 0,74,75
 751 242 751 242 712.5 164 c 128,-1,76
 674 86 674 86 597 43 c 128,-1,77
 520 0 520 0 405 0 c 0,0,1
EndSplineSet
EndChar

StartChar: anusvaraBahirgomukhavedic
Encoding: 7402 7402 156
Width: 748
GlyphClass: 2
Flags: W
AnchorPoint: "Anchor-9" 464 -40 basechar 0
AnchorPoint: "Anchor-3" 338 622 basechar 0
LayerCount: 2
Fore
SplineSet
374 0 m 0,0,1
 279 0 279 0 218.5 26 c 128,-1,2
 158 52 158 52 129 97.5 c 128,-1,3
 100 143 100 143 100 199 c 0,4,5
 100 238 100 238 111.5 267.5 c 128,-1,6
 123 297 123 297 144 322.5 c 128,-1,7
 165 348 165 348 193 375 c 0,8,9
 224 405 224 405 239.5 430.5 c 128,-1,10
 255 456 255 456 255 493 c 0,11,12
 255 527 255 527 232 547.5 c 128,-1,13
 209 568 209 568 177 568 c 0,14,15
 146 568 146 568 131.5 554.5 c 128,-1,16
 117 541 117 541 117 518 c 0,17,18
 117 493 117 493 137 477 c 128,-1,19
 157 461 157 461 201 458 c 1,20,-1
 191 389 l 1,21,22
 133 396 133 396 100.5 416 c 128,-1,23
 68 436 68 436 55 464 c 128,-1,24
 42 492 42 492 42 520 c 0,25,26
 42 570 42 570 78 601 c 128,-1,27
 114 632 114 632 175 632 c 0,28,29
 237 632 237 632 271 608.5 c 128,-1,30
 305 585 305 585 319 552 c 128,-1,31
 333 519 333 519 333 489 c 0,32,33
 333 457 333 457 324 429.5 c 128,-1,34
 315 402 315 402 295.5 375 c 128,-1,35
 276 348 276 348 243 317 c 0,36,37
 221 296 221 296 207 277.5 c 128,-1,38
 193 259 193 259 186.5 240 c 128,-1,39
 180 221 180 221 180 197 c 0,40,41
 180 176 180 176 189 154.5 c 128,-1,42
 198 133 198 133 220 114.5 c 128,-1,43
 242 96 242 96 279.5 85 c 128,-1,44
 317 74 317 74 374 74 c 0,45,46
 433 74 433 74 471.5 86.5 c 128,-1,47
 510 99 510 99 532.5 118 c 128,-1,48
 555 137 555 137 564 159 c 128,-1,49
 573 181 573 181 573 200 c 0,50,51
 573 224 573 224 566.5 243 c 128,-1,52
 560 262 560 262 545 281 c 128,-1,53
 530 300 530 300 504 324 c 0,54,55
 472 354 472 354 453.5 379.5 c 128,-1,56
 435 405 435 405 427.5 433 c 128,-1,57
 420 461 420 461 420 496 c 0,58,59
 420 519 420 519 428.5 543 c 128,-1,60
 437 567 437 567 456 587 c 128,-1,61
 475 607 475 607 505.5 619.5 c 128,-1,62
 536 632 536 632 580 632 c 0,63,64
 645 632 645 632 677.5 599 c 128,-1,65
 710 566 710 566 710 514 c 0,66,67
 710 488 710 488 697.5 461 c 128,-1,68
 685 434 685 434 653 414 c 128,-1,69
 621 394 621 394 562 388 c 1,70,-1
 552 458 l 1,71,72
 596 461 596 461 616 477 c 128,-1,73
 636 493 636 493 636 518 c 0,74,75
 636 541 636 541 624 554.5 c 128,-1,76
 612 568 612 568 583 568 c 0,77,78
 547 568 547 568 522.5 546.5 c 128,-1,79
 498 525 498 525 498 487 c 0,80,81
 498 455 498 455 513 429 c 128,-1,82
 528 403 528 403 562 371 c 0,83,84
 595 340 595 340 624 297 c 128,-1,85
 653 254 653 254 653 197 c 0,86,87
 653 142 653 142 624.5 97 c 128,-1,88
 596 52 596 52 535 26 c 128,-1,89
 474 0 474 0 374 0 c 0,0,1
EndSplineSet
EndChar

StartChar: anusvaraVamagomukhavedic
Encoding: 7403 7403 157
Width: 751
GlyphClass: 2
Flags: W
AnchorPoint: "Anchor-9" 464 -40 basechar 0
AnchorPoint: "Anchor-3" 338 622 basechar 0
LayerCount: 2
Fore
SplineSet
373 0 m 0,0,1
 279 0 279 0 218.5 26 c 128,-1,2
 158 52 158 52 129 97.5 c 128,-1,3
 100 143 100 143 100 199 c 0,4,5
 100 238 100 238 111.5 267.5 c 128,-1,6
 123 297 123 297 144 322.5 c 128,-1,7
 165 348 165 348 193 375 c 0,8,9
 224 405 224 405 239.5 430.5 c 128,-1,10
 255 456 255 456 255 493 c 0,11,12
 255 527 255 527 232 547.5 c 128,-1,13
 209 568 209 568 177 568 c 0,14,15
 146 568 146 568 131.5 554.5 c 128,-1,16
 117 541 117 541 117 518 c 0,17,18
 117 493 117 493 137 477 c 128,-1,19
 157 461 157 461 201 458 c 1,20,-1
 191 389 l 1,21,22
 133 396 133 396 100.5 416 c 128,-1,23
 68 436 68 436 55 464 c 128,-1,24
 42 492 42 492 42 520 c 0,25,26
 42 570 42 570 78 601 c 128,-1,27
 114 632 114 632 175 632 c 0,28,29
 237 632 237 632 271 608.5 c 128,-1,30
 305 585 305 585 319 552 c 128,-1,31
 333 519 333 519 333 489 c 0,32,33
 333 457 333 457 324 429.5 c 128,-1,34
 315 402 315 402 295.5 375 c 128,-1,35
 276 348 276 348 243 317 c 0,36,37
 221 296 221 296 207 277.5 c 128,-1,38
 193 259 193 259 186.5 240 c 128,-1,39
 180 221 180 221 180 197 c 0,40,41
 180 176 180 176 189 154.5 c 128,-1,42
 198 133 198 133 219 114.5 c 128,-1,43
 240 96 240 96 276.5 85 c 128,-1,44
 313 74 313 74 368 74 c 0,45,46
 459 74 459 74 516.5 105 c 128,-1,47
 574 136 574 136 601.5 193 c 128,-1,48
 629 250 629 250 629 328 c 0,49,50
 629 380 629 380 616 420 c 128,-1,51
 603 460 603 460 579 483 c 128,-1,52
 555 506 555 506 521 506 c 0,53,54
 491 506 491 506 473.5 490 c 128,-1,55
 456 474 456 474 456 445 c 0,56,57
 456 417 456 417 478.5 397.5 c 128,-1,58
 501 378 501 378 553 378 c 0,59,60
 564 378 564 378 573 379 c 128,-1,61
 582 380 582 380 589 382 c 1,62,-1
 601 315 l 1,63,64
 588 312 588 312 576 310.5 c 128,-1,65
 564 309 564 309 547 309 c 0,66,67
 507 309 507 309 477 319.5 c 128,-1,68
 447 330 447 330 426.5 348.5 c 128,-1,69
 406 367 406 367 395.5 392 c 128,-1,70
 385 417 385 417 385 446 c 0,71,72
 385 486 385 486 401 514.5 c 128,-1,73
 417 543 417 543 447.5 558.5 c 128,-1,74
 478 574 478 574 519 574 c 0,75,76
 575 574 575 574 617.5 544.5 c 128,-1,77
 660 515 660 515 684.5 459.5 c 128,-1,78
 709 404 709 404 709 324 c 0,79,80
 709 223 709 223 670.5 150.5 c 128,-1,81
 632 78 632 78 557.5 39 c 128,-1,82
 483 0 483 0 373 0 c 0,0,1
EndSplineSet
EndChar

StartChar: anusvaraVamagomukhaTailvedic
Encoding: 7404 7404 158
Width: 828
GlyphClass: 2
Flags: W
AnchorPoint: "Anchor-9" 464 -40 basechar 0
AnchorPoint: "Anchor-3" 338 622 basechar 0
LayerCount: 2
Fore
SplineSet
590 341 m 0,0,1
 590 421 590 421 569.5 463.5 c 128,-1,2
 549 506 549 506 506 506 c 0,3,4
 483 506 483 506 466.5 491.5 c 128,-1,5
 450 477 450 477 450 452 c 0,6,7
 450 437 450 437 456 421 c 128,-1,8
 462 405 462 405 481 389 c 128,-1,9
 500 373 500 373 538.5 359.5 c 128,-1,10
 577 346 577 346 641 337 c 0,11,12
 694 326 694 326 730 307 c 128,-1,13
 766 288 766 288 784.5 257 c 128,-1,14
 803 226 803 226 803 178 c 0,15,16
 803 139 803 139 789 95.5 c 128,-1,17
 775 52 775 52 740 11 c 1,18,-1
 668 52 l 1,19,20
 690 75 690 75 706.5 106.5 c 128,-1,21
 723 138 723 138 723 172 c 0,22,23
 723 202 723 202 713.5 220.5 c 128,-1,24
 704 239 704 239 683.5 250.5 c 128,-1,25
 663 262 663 262 630 270 c 0,26,27
 527 290 527 290 471.5 316.5 c 128,-1,28
 416 343 416 343 395 377.5 c 128,-1,29
 374 412 374 412 374 454 c 0,30,31
 374 490 374 490 390 517 c 128,-1,32
 406 544 406 544 435.5 559 c 128,-1,33
 465 574 465 574 504 574 c 0,34,35
 547 574 547 574 584 551.5 c 128,-1,36
 621 529 621 529 644 475.5 c 128,-1,37
 667 422 667 422 667 327 c 0,38,39
 667 225 667 225 631 152 c 128,-1,40
 595 79 595 79 526.5 39.5 c 128,-1,41
 458 0 458 0 360 0 c 0,42,43
 275 0 275 0 217 26 c 128,-1,44
 159 52 159 52 129.5 97.5 c 128,-1,45
 100 143 100 143 100 199 c 0,46,47
 100 238 100 238 111.5 267.5 c 128,-1,48
 123 297 123 297 144 322.5 c 128,-1,49
 165 348 165 348 193 375 c 0,50,51
 224 405 224 405 239.5 430.5 c 128,-1,52
 255 456 255 456 255 493 c 0,53,54
 255 527 255 527 232 547.5 c 128,-1,55
 209 568 209 568 177 568 c 0,56,57
 146 568 146 568 131.5 554.5 c 128,-1,58
 117 541 117 541 117 518 c 0,59,60
 117 493 117 493 137 477 c 128,-1,61
 157 461 157 461 201 458 c 1,62,-1
 191 389 l 1,63,64
 133 396 133 396 100.5 416 c 128,-1,65
 68 436 68 436 55 464 c 128,-1,66
 42 492 42 492 42 520 c 0,67,68
 42 570 42 570 78 601 c 128,-1,69
 114 632 114 632 175 632 c 0,70,71
 237 632 237 632 271 608.5 c 128,-1,72
 305 585 305 585 319 551.5 c 128,-1,73
 333 518 333 518 333 488 c 0,74,75
 333 457 333 457 324 429.5 c 128,-1,76
 315 402 315 402 295.5 375 c 128,-1,77
 276 348 276 348 243 317 c 0,78,79
 221 296 221 296 207 277.5 c 128,-1,80
 193 259 193 259 186.5 240 c 128,-1,81
 180 221 180 221 180 197 c 0,82,83
 180 169 180 169 197.5 140.5 c 128,-1,84
 215 112 215 112 253.5 93 c 128,-1,85
 292 74 292 74 354 74 c 0,86,87
 417 74 417 74 462 93.5 c 128,-1,88
 507 113 507 113 535 148.5 c 128,-1,89
 563 184 563 184 576.5 233 c 128,-1,90
 590 282 590 282 590 341 c 0,0,1
EndSplineSet
EndChar

StartChar: tiryakvedic
Encoding: 7405 7405 159
Width: 0
GlyphClass: 4
Flags: W
AnchorPoint: "Anchor-13" -169 -40 mark 0
AnchorPoint: "Anchor-9" -169 -40 mark 0
LayerCount: 2
Fore
SplineSet
-369 -93 m 1,0,-1
 -324 -33 l 1,1,-1
 -96 -198 l 1,2,-1
 -141 -258 l 1,3,-1
 -369 -93 l 1,0,-1
EndSplineSet
Substitution2: "Single Substitution lookup 78 subtable" tiryakvedic.alt01
MultipleSubs2: "Multiple Substitution lookup 70 subtable" tiryakvedic uni0903
EndChar

StartChar: hexiformLongAnusvaravedic
Encoding: 7406 7406 160
Width: 539
GlyphClass: 2
Flags: W
AnchorPoint: "Anchor-3" 230 622 basechar 0
LayerCount: 2
Fore
SplineSet
310 0 m 0,0,1
 244 0 244 0 197 24.5 c 128,-1,2
 150 49 150 49 125 92 c 128,-1,3
 100 135 100 135 100 190 c 0,4,5
 100 243 100 243 126.5 285.5 c 128,-1,6
 153 328 153 328 202 353.5 c 128,-1,7
 251 379 251 379 320 379 c 0,8,9
 330 379 330 379 340 378.5 c 128,-1,10
 350 378 350 378 358 377 c 1,11,-1
 345 306 l 1,12,13
 339 306 339 306 333.5 306.5 c 128,-1,14
 328 307 328 307 322 307 c 0,15,16
 285 307 285 307 252.5 295 c 128,-1,17
 220 283 220 283 200.5 257 c 128,-1,18
 181 231 181 231 181 190 c 0,19,20
 181 131 181 131 214.5 100.5 c 128,-1,21
 248 70 248 70 311 70 c 0,22,23
 331 70 331 70 346.5 72.5 c 128,-1,24
 362 75 362 75 375 80 c 1,25,-1
 376 76 l 1,26,27
 373 81 373 81 371.5 88 c 128,-1,28
 370 95 370 95 370 104 c 0,29,30
 370 130 370 130 386 144 c 128,-1,31
 402 158 402 158 427 158 c 0,32,33
 456 158 456 158 470.5 140.5 c 128,-1,34
 485 123 485 123 485 100 c 0,35,36
 485 66 485 66 460.5 43.5 c 128,-1,37
 436 21 436 21 396 10.5 c 128,-1,38
 356 0 356 0 310 0 c 0,0,1
178 309 m 1,39,40
 127 338 127 338 91.5 379 c 128,-1,41
 56 420 56 420 56 483 c 0,42,43
 56 522 56 522 75.5 556 c 128,-1,44
 95 590 95 590 137 611 c 128,-1,45
 179 632 179 632 246 632 c 0,46,47
 278 632 278 632 308 628 c 128,-1,48
 338 624 338 624 355 619 c 1,49,-1
 341 549 l 1,50,51
 325 554 325 554 302 557.5 c 128,-1,52
 279 561 279 561 256 561 c 0,53,54
 214 561 214 561 187.5 550 c 128,-1,55
 161 539 161 539 149 520.5 c 128,-1,56
 137 502 137 502 137 479 c 0,57,58
 137 445 137 445 158.5 416 c 128,-1,59
 180 387 180 387 232 361 c 1,60,-1
 178 309 l 1,39,40
459 284 m 0,61,62
 437 284 437 284 420.5 301 c 128,-1,63
 404 318 404 318 404 342 c 0,64,65
 404 367 404 367 420.5 383.5 c 128,-1,66
 437 400 437 400 459 400 c 0,67,68
 482 400 482 400 498 383.5 c 128,-1,69
 514 367 514 367 514 342 c 0,70,71
 514 318 514 318 498 301 c 128,-1,72
 482 284 482 284 459 284 c 0,61,62
EndSplineSet
EndChar

StartChar: longAnusvaravedic
Encoding: 7407 7407 161
Width: 460
GlyphClass: 2
Flags: W
AnchorPoint: "Anchor-3" 200 622 basechar 0
LayerCount: 2
Fore
SplineSet
422 287 m 1,0,1
 385 275 385 275 347.5 269.5 c 128,-1,2
 310 264 310 264 276 264 c 0,3,4
 264 264 264 264 253 266.5 c 128,-1,5
 242 269 242 269 230 270 c 0,6,7
 154 280 154 280 106 326.5 c 128,-1,8
 58 373 58 373 58 444 c 0,9,10
 58 535 58 535 124 583.5 c 128,-1,11
 190 632 190 632 300 632 c 0,12,13
 326 632 326 632 353 630 c 128,-1,14
 380 628 380 628 396 624 c 1,15,-1
 391 551 l 1,16,17
 368 556 368 556 344.5 558 c 128,-1,18
 321 560 321 560 300 560 c 0,19,20
 224 560 224 560 182 530.5 c 128,-1,21
 140 501 140 501 140 444 c 0,22,23
 140 384 140 384 179 357.5 c 128,-1,24
 218 331 218 331 278 331 c 0,25,26
 310 331 310 331 339 336 c 128,-1,27
 368 341 368 341 400 354 c 1,28,-1
 422 287 l 1,0,1
359 287 m 1,29,-1
 354 271 l 1,30,31
 292 263 292 263 250 245 c 128,-1,32
 208 227 208 227 187.5 198.5 c 128,-1,33
 167 170 167 170 167 132 c 0,34,35
 167 92 167 92 191.5 72 c 128,-1,36
 216 52 216 52 250 52 c 0,37,38
 281 52 281 52 296 63.5 c 128,-1,39
 311 75 311 75 311 94 c 0,40,41
 311 115 311 115 290.5 127 c 128,-1,42
 270 139 270 139 229 139 c 1,43,-1
 239 207 l 1,44,45
 307 205 307 205 342.5 175.5 c 128,-1,46
 378 146 378 146 378 91 c 0,47,48
 378 46 378 46 346 17 c 128,-1,49
 314 -12 314 -12 248 -12 c 0,50,51
 207 -12 207 -12 170.5 3 c 128,-1,52
 134 18 134 18 111.5 51.5 c 128,-1,53
 89 85 89 85 89 138 c 0,54,55
 89 181 89 181 110 215 c 128,-1,56
 131 249 131 249 170.5 273.5 c 128,-1,57
 210 298 210 298 265 312 c 1,58,-1
 359 287 l 1,29,-1
237 446 m 0,59,60
 237 469 237 469 252 485 c 128,-1,61
 267 501 267 501 289 501 c 256,62,63
 311 501 311 501 326 485 c 128,-1,64
 341 469 341 469 341 446 c 0,65,66
 341 424 341 424 326 407.5 c 128,-1,67
 311 391 311 391 289 391 c 256,68,69
 267 391 267 391 252 407.5 c 128,-1,70
 237 424 237 424 237 446 c 0,59,60
EndSplineSet
EndChar

StartChar: rthangLongAnusvaravedic
Encoding: 7408 7408 162
Width: 543
GlyphClass: 2
Flags: W
AnchorPoint: "Anchor-3" 240 622 basechar 0
LayerCount: 2
Fore
SplineSet
294 271 m 2,0,1
 215 271 215 271 168 246 c 128,-1,2
 121 221 121 221 121 170 c 0,3,4
 121 135 121 135 142 113 c 128,-1,5
 163 91 163 91 196.5 81 c 128,-1,6
 230 71 230 71 268 71 c 0,7,8
 332 71 332 71 373 93.5 c 128,-1,9
 414 116 414 116 414 164 c 0,10,11
 414 188 414 188 400.5 209.5 c 128,-1,12
 387 231 387 231 361.5 247.5 c 128,-1,13
 336 264 336 264 298 271 c 1,14,-1
 309 300 l 1,15,-1
 306 340 l 1,16,17
 367 327 367 327 409 300 c 128,-1,18
 451 273 451 273 472.5 238 c 128,-1,19
 494 203 494 203 494 164 c 0,20,21
 494 119 494 119 475.5 87.5 c 128,-1,22
 457 56 457 56 425.5 37 c 128,-1,23
 394 18 394 18 354 9 c 128,-1,24
 314 0 314 0 271 0 c 0,25,26
 207 0 207 0 154.5 19.5 c 128,-1,27
 102 39 102 39 71.5 78.5 c 128,-1,28
 41 118 41 118 41 178 c 0,29,30
 41 230 41 230 72.5 266.5 c 128,-1,31
 104 303 104 303 155 322 c 128,-1,32
 206 341 206 341 265 341 c 1,33,-1
 250 335 l 1,34,35
 251 337 251 337 251 339 c 128,-1,36
 251 341 251 341 251 343 c 0,37,38
 251 354 251 354 240.5 368 c 128,-1,39
 230 382 230 382 206 403 c 0,40,41
 175 430 175 430 155 458.5 c 128,-1,42
 135 487 135 487 135 530 c 0,43,44
 135 572 135 572 167 602 c 128,-1,45
 199 632 199 632 255 632 c 0,46,47
 294 632 294 632 322 618.5 c 128,-1,48
 350 605 350 605 371.5 581.5 c 128,-1,49
 393 558 393 558 413 528 c 1,50,-1
 349 495 l 1,51,52
 325 527 325 527 304.5 544.5 c 128,-1,53
 284 562 284 562 255 562 c 0,54,55
 234 562 234 562 223.5 551.5 c 128,-1,56
 213 541 213 541 213 525 c 0,57,58
 213 505 213 505 229 486 c 128,-1,59
 245 467 245 467 273 443 c 0,60,61
 293 426 293 426 306 409 c 128,-1,62
 319 392 319 392 325.5 375.5 c 128,-1,63
 332 359 332 359 332 340 c 256,64,65
 332 321 332 321 327.5 304.5 c 128,-1,66
 323 288 323 288 318 271 c 1,67,-1
 294 271 l 2,0,1
383 406 m 256,68,69
 383 430 383 430 399.5 447 c 128,-1,70
 416 464 416 464 438 464 c 0,71,72
 461 464 461 464 477.5 447 c 128,-1,73
 494 430 494 430 494 406 c 256,74,75
 494 382 494 382 477.5 365 c 128,-1,76
 461 348 461 348 438 348 c 0,77,78
 416 348 416 348 399.5 365 c 128,-1,79
 383 382 383 382 383 406 c 256,68,69
EndSplineSet
EndChar

StartChar: anusvaraUbhayatoMukhavedic
Encoding: 7409 7409 163
Width: 503
Flags: W
LayerCount: 2
Fore
SplineSet
243 26 m 1,0,1
 260 38 260 38 278 52.5 c 128,-1,2
 296 67 296 67 313 81 c 0,3,4
 358 119 358 119 374.5 143 c 128,-1,5
 391 167 391 167 391 191 c 0,6,7
 391 205 391 205 385.5 215 c 128,-1,8
 380 225 380 225 369 230 c 0,9,10
 360 235 360 235 346 238 c 128,-1,11
 332 241 332 241 293 241 c 2,12,-1
 232 241 l 1,13,-1
 232 312 l 1,14,-1
 284 312 l 2,15,16
 326 312 326 312 351.5 309 c 128,-1,17
 377 306 377 306 393.5 300.5 c 128,-1,18
 410 295 410 295 423 286 c 0,19,20
 445 272 445 272 457.5 250 c 128,-1,21
 470 228 470 228 470 199 c 0,22,23
 470 173 470 173 463 150 c 128,-1,24
 456 127 456 127 436.5 101.5 c 128,-1,25
 417 76 417 76 379 42 c 0,26,27
 357 22 357 22 335.5 4 c 128,-1,28
 314 -14 314 -14 290 -33 c 1,29,-1
 243 26 l 1,0,1
101 118 m 256,30,31
 101 144 101 144 119 163 c 128,-1,32
 137 182 137 182 162 182 c 256,33,34
 187 182 187 182 205 163 c 128,-1,35
 223 144 223 144 223 118 c 256,36,37
 223 92 223 92 205 73 c 128,-1,38
 187 54 187 54 162 54 c 256,39,40
 137 54 137 54 119 73 c 128,-1,41
 101 92 101 92 101 118 c 256,30,31
263 527 m 1,42,43
 247 515 247 515 229 500.5 c 128,-1,44
 211 486 211 486 194 472 c 0,45,46
 149 434 149 434 132 410 c 128,-1,47
 115 386 115 386 115 362 c 0,48,49
 115 348 115 348 121 338 c 128,-1,50
 127 328 127 328 137 322 c 0,51,52
 146 317 146 317 160.5 314.5 c 128,-1,53
 175 312 175 312 213 312 c 2,54,-1
 266 312 l 1,55,-1
 266 241 l 1,56,-1
 223 241 l 2,57,58
 181 241 181 241 155 244 c 128,-1,59
 129 247 129 247 113 253 c 128,-1,60
 97 259 97 259 83 267 c 0,61,62
 61 281 61 281 48.5 302.5 c 128,-1,63
 36 324 36 324 36 354 c 0,64,65
 36 380 36 380 43 403 c 128,-1,66
 50 426 50 426 69.5 451.5 c 128,-1,67
 89 477 89 477 127 511 c 0,68,69
 150 531 150 531 171 549 c 128,-1,70
 192 567 192 567 216 585 c 1,71,-1
 263 527 l 1,42,43
283 435 m 256,72,73
 283 461 283 461 301 480 c 128,-1,74
 319 499 319 499 344 499 c 256,75,76
 369 499 369 499 387 480 c 128,-1,77
 405 461 405 461 405 435 c 256,78,79
 405 409 405 409 387 390 c 128,-1,80
 369 371 369 371 344 371 c 256,81,82
 319 371 319 371 301 390 c 128,-1,83
 283 409 283 409 283 435 c 256,72,73
EndSplineSet
EndChar

StartChar: ardhavisargavedic
Encoding: 7410 7410 164
Width: 514
Flags: W
LayerCount: 2
Fore
SplineSet
263 292 m 0,0,1
 188 292 188 292 130 340.5 c 128,-1,2
 72 389 72 389 39 484 c 1,3,-1
 113 509 l 1,4,5
 141 436 141 436 177.5 400 c 128,-1,6
 214 364 214 364 266 364 c 0,7,8
 325 364 325 364 355 403 c 128,-1,9
 385 442 385 442 401 511 c 1,10,-1
 480 484 l 1,11,12
 454 381 454 381 398.5 336.5 c 128,-1,13
 343 292 343 292 263 292 c 0,0,1
256 261 m 0,14,15
 331 261 331 261 389 212.5 c 128,-1,16
 447 164 447 164 480 69 c 1,17,-1
 406 43 l 1,18,19
 378 117 378 117 342 152.5 c 128,-1,20
 306 188 306 188 253 188 c 0,21,22
 195 188 195 188 165 149 c 128,-1,23
 135 110 135 110 118 42 c 1,24,-1
 39 69 l 1,25,26
 65 173 65 173 120.5 217 c 128,-1,27
 176 261 176 261 256 261 c 0,14,15
EndSplineSet
EndChar

StartChar: rotatedArdhavisargavedic
Encoding: 7411 7411 165
Width: 542
Flags: W
LayerCount: 2
Fore
SplineSet
39 129 m 1,0,1
 104 147 104 147 142 178.5 c 128,-1,2
 180 210 180 210 180 270 c 0,3,4
 180 325 180 325 146 363 c 128,-1,5
 112 401 112 401 40 429 c 1,6,-1
 65 498 l 1,7,8
 164 462 164 462 210.5 404 c 128,-1,9
 257 346 257 346 257 270 c 0,10,11
 257 195 257 195 211.5 137.5 c 128,-1,12
 166 80 166 80 65 56 c 1,13,-1
 39 129 l 1,0,1
509 424 m 1,14,15
 443 406 443 406 405 374.5 c 128,-1,16
 367 343 367 343 367 284 c 0,17,18
 367 229 367 229 401.5 191 c 128,-1,19
 436 153 436 153 507 124 c 1,20,-1
 482 56 l 1,21,22
 384 92 384 92 337 150 c 128,-1,23
 290 208 290 208 290 283 c 256,24,25
 290 358 290 358 335 415.5 c 128,-1,26
 380 473 380 473 482 498 c 1,27,-1
 509 424 l 1,14,15
EndSplineSet
EndChar

StartChar: candraAbovevedic
Encoding: 7412 7412 166
Width: 0
GlyphClass: 4
Flags: W
LayerCount: 2
Fore
SplineSet
69 1135 m 1,0,1
 46 1035 46 1035 -7.5 993.5 c 128,-1,2
 -61 952 -61 952 -138 952 c 0,3,4
 -210 952 -210 952 -264 996.5 c 128,-1,5
 -318 1041 -318 1041 -352 1135 c 1,6,-1
 -281 1159 l 1,7,8
 -255 1089 -255 1089 -221.5 1055 c 128,-1,9
 -188 1021 -188 1021 -135 1021 c 0,10,11
 -78 1021 -78 1021 -50.5 1057.5 c 128,-1,12
 -23 1094 -23 1094 -7 1161 c 1,13,-1
 69 1135 l 1,0,1
EndSplineSet
MultipleSubs2: "Multiple Substitution lookup 70 subtable" candraAbovevedic uni0903
Position2: "Single Positioning lookup 8 subtable" dx=60 dy=0 dh=0 dv=0
Position2: "Single Positioning lookup 7 subtable" dx=-120 dy=0 dh=0 dv=0
Position2: "Single Positioning lookup 1 subtable" dx=-200 dy=0 dh=0 dv=0
Position2: "Single Positioning lookup 0 per glyph data 0" dx=0 dy=-347 dh=0 dv=0
EndChar

StartChar: jihvamuliyaSignvedic
Encoding: 7413 7413 167
Width: 522
Flags: W
LayerCount: 2
Fore
SplineSet
265 216 m 1,0,-1
 113 26 l 1,1,-1
 45 74 l 1,2,-1
 213 278 l 1,3,-1
 48 479 l 1,4,-1
 111 522 l 1,5,-1
 261 336 l 1,6,-1
 414 527 l 1,7,-1
 482 479 l 1,8,-1
 313 273 l 1,9,-1
 479 72 l 1,10,-1
 415 29 l 1,11,-1
 265 216 l 1,0,-1
EndSplineSet
EndChar

StartChar: upadhmaniyaSignvedic
Encoding: 7414 7414 168
Width: 628
Flags: W
LayerCount: 2
Fore
SplineSet
198 195 m 256,0,1
 153 195 153 195 120.5 214 c 128,-1,2
 88 233 88 233 69.5 282 c 128,-1,3
 51 331 51 331 47 422 c 1,4,-1
 126 427 l 1,5,6
 128 359 128 359 136.5 324.5 c 128,-1,7
 145 290 145 290 161.5 278 c 128,-1,8
 178 266 178 266 202 266 c 0,9,10
 245 266 245 266 259.5 300.5 c 128,-1,11
 274 335 274 335 277 423 c 1,12,-1
 347 423 l 1,13,14
 335 337 335 337 317.5 287 c 128,-1,15
 300 237 300 237 271.5 216 c 128,-1,16
 243 195 243 195 198 195 c 256,0,1
431 195 m 256,17,18
 386 195 386 195 357.5 216 c 128,-1,19
 329 237 329 237 312 287 c 128,-1,20
 295 337 295 337 283 423 c 1,21,-1
 351 423 l 1,22,23
 354 335 354 335 370 300.5 c 128,-1,24
 386 266 386 266 427 266 c 0,25,26
 449 266 449 266 465 278.5 c 128,-1,27
 481 291 481 291 490.5 325.5 c 128,-1,28
 500 360 500 360 502 427 c 1,29,-1
 581 422 l 1,30,31
 578 331 578 331 559.5 282 c 128,-1,32
 541 233 541 233 508.5 214 c 128,-1,33
 476 195 476 195 431 195 c 256,17,18
EndSplineSet
EndChar

StartChar: ringAbovevedic
Encoding: 7416 7416 169
Width: 0
GlyphClass: 4
Flags: W
AnchorPoint: "Anchor-21" -170 622 mark 0
AnchorPoint: "Anchor-19" -203 622 mark 0
AnchorPoint: "Anchor-18" -170 622 mark 0
AnchorPoint: "Anchor-7" -203 622 mark 0
AnchorPoint: "Anchor-4" -203 622 mark 0
AnchorPoint: "Anchor-3" -170 622 mark 0
LayerCount: 2
Fore
SplineSet
-222 776 m 256,0,1
 -222 818 -222 818 -194.5 843.5 c 128,-1,2
 -167 869 -167 869 -124 869 c 0,3,4
 -80 869 -80 869 -52.5 844 c 128,-1,5
 -25 819 -25 819 -25 776 c 0,6,7
 -25 734 -25 734 -52.5 708.5 c 128,-1,8
 -80 683 -80 683 -123 683 c 256,9,10
 -166 683 -166 683 -194 708.5 c 128,-1,11
 -222 734 -222 734 -222 776 c 256,0,1
-171 775 m 0,12,13
 -171 753 -171 753 -158 741 c 128,-1,14
 -145 729 -145 729 -124 729 c 0,15,16
 -102 729 -102 729 -89.5 741.5 c 128,-1,17
 -77 754 -77 754 -77 776 c 0,18,19
 -77 799 -77 799 -89 811 c 128,-1,20
 -101 823 -101 823 -124 823 c 0,21,22
 -143 823 -143 823 -157 810.5 c 128,-1,23
 -171 798 -171 798 -171 775 c 0,12,13
EndSplineSet
Substitution2: "Single Substitution lookup 204 subtable" ringAbovevedic.alt05
Substitution2: "Single Substitution lookup 203 subtable" ringAbovevedic.alt04
Substitution2: "Single Substitution lookup 202 subtable" ringAbovevedic.alt03
Substitution2: "Single Substitution lookup 201 subtable" ringAbovevedic.alt02
Substitution2: "Single Substitution lookup 200 subtable" ringAbovevedic.alt01
MultipleSubs2: "Multiple Substitution lookup 70 subtable" ringAbovevedic uni0903
EndChar

StartChar: fractionOneQuartercinf
Encoding: 43056 43056 171
Width: 237
Flags: W
LayerCount: 2
Fore
SplineSet
78 622 m 1,0,-1
 159 622 l 1,1,-1
 159 0 l 1,2,-1
 78 0 l 1,3,-1
 78 622 l 1,0,-1
EndSplineSet
EndChar

StartChar: fractionOneHalfcinf
Encoding: 43057 43057 172
Width: 437
Flags: W
LayerCount: 2
Fore
SplineSet
278 622 m 1,0,-1
 359 622 l 1,1,-1
 359 0 l 1,2,-1
 278 0 l 1,3,-1
 278 622 l 1,0,-1
78 622 m 1,4,-1
 159 622 l 1,5,-1
 159 0 l 1,6,-1
 78 0 l 1,7,-1
 78 622 l 1,4,-1
EndSplineSet
EndChar

StartChar: fractionThreeQuarterscinf
Encoding: 43058 43058 173
Width: 637
Flags: W
LayerCount: 2
Fore
SplineSet
278 622 m 1,0,-1
 359 622 l 1,1,-1
 359 0 l 1,2,-1
 278 0 l 1,3,-1
 278 622 l 1,0,-1
78 622 m 1,4,-1
 159 622 l 1,5,-1
 159 0 l 1,6,-1
 78 0 l 1,7,-1
 78 622 l 1,4,-1
478 622 m 1,8,-1
 559 622 l 1,9,-1
 559 0 l 1,10,-1
 478 0 l 1,11,-1
 478 622 l 1,8,-1
EndSplineSet
EndChar

StartChar: fractionOneSixteenthcinf
Encoding: 43059 43059 174
Width: 622
Flags: W
LayerCount: 2
Fore
SplineSet
563 622 m 1,0,-1
 583 542 l 1,1,-1
 60 412 l 1,2,-1
 40 491 l 1,3,-1
 563 622 l 1,0,-1
EndSplineSet
EndChar

StartChar: fractionOneEighthcinf
Encoding: 43060 43060 175
Width: 622
Flags: W
LayerCount: 2
Fore
SplineSet
563 425 m 1,0,-1
 583 345 l 1,1,-1
 60 215 l 1,2,-1
 40 294 l 1,3,-1
 563 425 l 1,0,-1
563 622 m 1,4,-1
 583 542 l 1,5,-1
 60 412 l 1,6,-1
 40 491 l 1,7,-1
 563 622 l 1,4,-1
EndSplineSet
EndChar

StartChar: fractionThreeSixteenthscinf
Encoding: 43061 43061 176
Width: 622
Flags: W
LayerCount: 2
Fore
SplineSet
563 425 m 1,0,-1
 583 345 l 1,1,-1
 60 215 l 1,2,-1
 40 294 l 1,3,-1
 563 425 l 1,0,-1
563 622 m 1,4,-1
 583 542 l 1,5,-1
 60 412 l 1,6,-1
 40 491 l 1,7,-1
 563 622 l 1,4,-1
563 228 m 1,8,-1
 583 148 l 1,9,-1
 60 18 l 1,10,-1
 40 97 l 1,11,-1
 563 228 l 1,8,-1
EndSplineSet
EndChar

StartChar: quarterMarkcinf
Encoding: 43062 43062 177
Width: 460
Flags: W
LayerCount: 2
Fore
SplineSet
230 167 m 0,0,1
 182 167 182 167 145.5 186.5 c 128,-1,2
 109 206 109 206 88 241 c 128,-1,3
 67 276 67 276 67 321 c 0,4,5
 67 362 67 362 86.5 396.5 c 128,-1,6
 106 431 106 431 142.5 452 c 128,-1,7
 179 473 179 473 230 473 c 0,8,9
 280 473 280 473 316.5 453 c 128,-1,10
 353 433 353 433 373 398.5 c 128,-1,11
 393 364 393 364 393 321 c 256,12,13
 393 278 393 278 373.5 243 c 128,-1,14
 354 208 354 208 317.5 187.5 c 128,-1,15
 281 167 281 167 230 167 c 0,0,1
230 237 m 0,16,17
 272 237 272 237 294.5 260.5 c 128,-1,18
 317 284 317 284 317 321 c 0,19,20
 317 357 317 357 293.5 380.5 c 128,-1,21
 270 404 270 404 230 404 c 0,22,23
 187 404 187 404 165 380 c 128,-1,24
 143 356 143 356 143 321 c 0,25,26
 143 284 143 284 166 260.5 c 128,-1,27
 189 237 189 237 230 237 c 0,16,17
EndSplineSet
EndChar

StartChar: placeholderMarkcinf
Encoding: 43063 43063 178
Width: 509
Flags: W
LayerCount: 2
Fore
SplineSet
221 86 m 0,0,1
 173 86 173 86 136 106 c 128,-1,2
 99 126 99 126 78 160.5 c 128,-1,3
 57 195 57 195 57 240 c 0,4,5
 57 268 57 268 64.5 290.5 c 128,-1,6
 72 313 72 313 92 336 c 128,-1,7
 112 359 112 359 147 386 c 2,8,-1
 453 623 l 1,9,-1
 499 565 l 1,10,-1
 407 492 l 2,11,12
 368 461 368 461 321.5 428 c 128,-1,13
 275 395 275 395 230.5 365.5 c 128,-1,14
 186 336 186 336 150 315 c 1,15,-1
 155 381 l 1,16,17
 172 386 172 386 189 388.5 c 128,-1,18
 206 391 206 391 222 391 c 0,19,20
 292 391 292 391 337.5 349.5 c 128,-1,21
 383 308 383 308 383 240 c 0,22,23
 383 197 383 197 363.5 162 c 128,-1,24
 344 127 344 127 307.5 106.5 c 128,-1,25
 271 86 271 86 221 86 c 0,0,1
220 156 m 0,26,27
 262 156 262 156 284.5 179.5 c 128,-1,28
 307 203 307 203 307 240 c 0,29,30
 307 276 307 276 283.5 299.5 c 128,-1,31
 260 323 260 323 220 323 c 0,32,33
 178 323 178 323 155.5 299 c 128,-1,34
 133 275 133 275 133 240 c 0,35,36
 133 203 133 203 156 179.5 c 128,-1,37
 179 156 179 156 220 156 c 0,26,27
EndSplineSet
EndChar

StartChar: rupeeMarkcinf
Encoding: 43064 43064 179
Width: 307
Flags: W
LayerCount: 2
Fore
SplineSet
-151 -104 m 1,0,1
 -127 -109 -127 -109 -104.5 -112 c 128,-1,2
 -82 -115 -82 -115 -63 -115 c 0,3,4
 26 -115 26 -115 75 -81 c 128,-1,5
 124 -47 124 -47 144 19 c 128,-1,6
 164 85 164 85 164 180 c 0,7,8
 164 258 164 258 154.5 337 c 128,-1,9
 145 416 145 416 130.5 488 c 128,-1,10
 116 560 116 560 101 615 c 1,11,-1
 182 633 l 1,12,13
 195 587 195 587 206.5 530.5 c 128,-1,14
 218 474 218 474 227 413 c 128,-1,15
 236 352 236 352 241 291.5 c 128,-1,16
 246 231 246 231 246 177 c 0,17,18
 246 105 246 105 234 39 c 128,-1,19
 222 -27 222 -27 190 -78 c 128,-1,20
 158 -129 158 -129 97.5 -158.5 c 128,-1,21
 37 -188 37 -188 -61 -188 c 0,22,23
 -83 -188 -83 -188 -110.5 -184.5 c 128,-1,24
 -138 -181 -138 -181 -157 -177 c 1,25,-1
 -151 -104 l 1,0,1
EndSplineSet
EndChar

StartChar: quantityMarkcinf
Encoding: 43065 43065 180
Width: 337
Flags: W
LayerCount: 2
Fore
SplineSet
-155 -162 m 1,0,1
 -145 -163 -145 -163 -131.5 -164 c 128,-1,2
 -118 -165 -118 -165 -104 -165 c 0,3,4
 -23 -165 -23 -165 31.5 -149 c 128,-1,5
 86 -133 86 -133 117.5 -106 c 128,-1,6
 149 -79 149 -79 162.5 -44 c 128,-1,7
 176 -9 176 -9 176 29 c 0,8,9
 176 86 176 86 159 135.5 c 128,-1,10
 142 185 142 185 120.5 231 c 128,-1,11
 99 277 99 277 82 323.5 c 128,-1,12
 65 370 65 370 65 421 c 0,13,14
 65 480 65 480 95.5 521.5 c 128,-1,15
 126 563 126 563 181.5 590.5 c 128,-1,16
 237 618 237 618 313 633 c 1,17,-1
 337 558 l 1,18,19
 278 547 278 547 235 529.5 c 128,-1,20
 192 512 192 512 169 486 c 128,-1,21
 146 460 146 460 146 421 c 0,22,23
 146 381 146 381 163 339 c 128,-1,24
 180 297 180 297 201.5 249.5 c 128,-1,25
 223 202 223 202 240 148 c 128,-1,26
 257 94 257 94 257 30 c 0,27,28
 257 -4 257 -4 248.5 -41.5 c 128,-1,29
 240 -79 240 -79 217.5 -114 c 128,-1,30
 195 -149 195 -149 155 -177.5 c 128,-1,31
 115 -206 115 -206 52.5 -223 c 128,-1,32
 -10 -240 -10 -240 -100 -240 c 0,33,34
 -114 -240 -114 -240 -131 -239 c 128,-1,35
 -148 -238 -148 -238 -157 -237 c 1,36,-1
 -155 -162 l 1,0,1
EndSplineSet
EndChar

StartChar: uniA8E0
Encoding: 43232 43232 181
Width: 0
GlyphClass: 4
Flags: W
LayerCount: 2
Fore
SplineSet
-134 999 m 256,0,1
 -181 999 -181 999 -210.5 1027.5 c 128,-1,2
 -240 1056 -240 1056 -240 1103 c 256,3,4
 -240 1150 -240 1150 -212 1178 c 128,-1,5
 -184 1206 -184 1206 -136 1206 c 0,6,7
 -89 1206 -89 1206 -60.5 1178 c 128,-1,8
 -32 1150 -32 1150 -32 1102 c 0,9,10
 -32 1055 -32 1055 -59.5 1027 c 128,-1,11
 -87 999 -87 999 -134 999 c 256,0,1
-135 1040 m 0,12,13
 -109 1040 -109 1040 -94.5 1057 c 128,-1,14
 -80 1074 -80 1074 -80 1103 c 0,15,16
 -80 1133 -80 1133 -95 1149 c 128,-1,17
 -110 1165 -110 1165 -136 1165 c 0,18,19
 -161 1165 -161 1165 -176 1148 c 128,-1,20
 -191 1131 -191 1131 -191 1102 c 256,21,22
 -191 1073 -191 1073 -175.5 1056.5 c 128,-1,23
 -160 1040 -160 1040 -135 1040 c 0,12,13
EndSplineSet
MultipleSubs2: "Multiple Substitution lookup 70 subtable" uniA8E0 uni0903
Position2: "Single Positioning lookup 8 subtable" dx=60 dy=0 dh=0 dv=0
Position2: "Single Positioning lookup 7 subtable" dx=-120 dy=0 dh=0 dv=0
Position2: "Single Positioning lookup 1 subtable" dx=-200 dy=0 dh=0 dv=0
Position2: "Single Positioning lookup 0 per glyph data 0" dx=0 dy=-347 dh=0 dv=0
EndChar

StartChar: uniA8E1
Encoding: 43233 43233 182
Width: 0
GlyphClass: 4
Flags: W
LayerCount: 2
Fore
SplineSet
-132 1244 m 0,0,1
 -92 1244 -92 1244 -70.5 1223 c 128,-1,2
 -49 1202 -49 1202 -49 1166 c 0,3,4
 -49 1138 -49 1138 -64 1117 c 128,-1,5
 -79 1096 -79 1096 -110 1074 c 2,6,-1
 -165 1035 l 1,7,-1
 -167 1062 l 1,8,9
 -121 1039 -121 1039 -98.5 1023 c 128,-1,10
 -76 1007 -76 1007 -69 993.5 c 128,-1,11
 -62 980 -62 980 -62 963 c 0,12,13
 -62 952 -62 952 -66.5 940 c 128,-1,14
 -71 928 -71 928 -81 914 c 1,15,-1
 -127 934 l 1,16,17
 -120 942 -120 942 -116.5 949.5 c 128,-1,18
 -113 957 -113 957 -113 966 c 256,19,20
 -113 975 -113 975 -118.5 982.5 c 128,-1,21
 -124 990 -124 990 -145 1003.5 c 128,-1,22
 -166 1017 -166 1017 -213 1042 c 1,23,-1
 -213 1059 l 1,24,-1
 -144 1105 l 2,25,26
 -121 1120 -121 1120 -109 1134 c 128,-1,27
 -97 1148 -97 1148 -97 1169 c 0,28,29
 -97 1187 -97 1187 -106.5 1196.5 c 128,-1,30
 -116 1206 -116 1206 -133 1206 c 256,31,32
 -150 1206 -150 1206 -159.5 1196.5 c 128,-1,33
 -169 1187 -169 1187 -169 1170 c 0,34,35
 -169 1154 -169 1154 -157 1140.5 c 128,-1,36
 -145 1127 -145 1127 -111 1116 c 1,37,-1
 -138 1090 l 1,38,39
 -178 1102 -178 1102 -196.5 1122.5 c 128,-1,40
 -215 1143 -215 1143 -215 1171 c 0,41,42
 -215 1201 -215 1201 -194.5 1222.5 c 128,-1,43
 -174 1244 -174 1244 -132 1244 c 0,0,1
EndSplineSet
MultipleSubs2: "Multiple Substitution lookup 70 subtable" uniA8E1 uni0903
Position2: "Single Positioning lookup 8 subtable" dx=60 dy=0 dh=0 dv=0
Position2: "Single Positioning lookup 7 subtable" dx=-120 dy=0 dh=0 dv=0
Position2: "Single Positioning lookup 1 subtable" dx=-200 dy=0 dh=0 dv=0
Position2: "Single Positioning lookup 0 per glyph data 0" dx=0 dy=-347 dh=0 dv=0
EndChar

StartChar: uniA8E2
Encoding: 43234 43234 183
Width: 0
GlyphClass: 4
Flags: W
LayerCount: 2
Fore
SplineSet
-178 1073 m 1,0,1
 -131 1073 -131 1073 -107 1093.5 c 128,-1,2
 -83 1114 -83 1114 -83 1145 c 0,3,4
 -83 1173 -83 1173 -99 1188 c 128,-1,5
 -115 1203 -115 1203 -141 1203 c 0,6,7
 -155 1203 -155 1203 -170.5 1199 c 128,-1,8
 -186 1195 -186 1195 -203 1186 c 1,9,-1
 -215 1225 l 1,10,11
 -198 1235 -198 1235 -177.5 1239.5 c 128,-1,12
 -157 1244 -157 1244 -135 1244 c 0,13,14
 -90 1244 -90 1244 -62 1218.5 c 128,-1,15
 -34 1193 -34 1193 -34 1145 c 0,16,17
 -34 1111 -34 1111 -52 1085 c 128,-1,18
 -70 1059 -70 1059 -100 1044.5 c 128,-1,19
 -130 1030 -130 1030 -167 1030 c 0,20,21
 -191 1030 -191 1030 -210 1041.5 c 128,-1,22
 -229 1053 -229 1053 -229 1075 c 0,23,24
 -229 1089 -229 1089 -219.5 1098.5 c 128,-1,25
 -210 1108 -210 1108 -193 1108 c 0,26,27
 -174 1108 -174 1108 -162 1096.5 c 128,-1,28
 -150 1085 -150 1085 -142 1069 c 2,29,-1
 -133 1055 l 2,30,31
 -113 1030 -113 1030 -95.5 1002 c 128,-1,32
 -78 974 -78 974 -62 941 c 1,33,-1
 -109 920 l 1,34,35
 -120 946 -120 946 -137.5 982 c 128,-1,36
 -155 1018 -155 1018 -175 1049 c 1,37,-1
 -178 1073 l 1,0,1
EndSplineSet
MultipleSubs2: "Multiple Substitution lookup 70 subtable" uniA8E2 uni0903
Position2: "Single Positioning lookup 8 subtable" dx=60 dy=0 dh=0 dv=0
Position2: "Single Positioning lookup 7 subtable" dx=-120 dy=0 dh=0 dv=0
Position2: "Single Positioning lookup 1 subtable" dx=-200 dy=0 dh=0 dv=0
Position2: "Single Positioning lookup 0 per glyph data 0" dx=0 dy=-347 dh=0 dv=0
EndChar

